{"glyphs":{"0":{"ha":557,"x_min":0,"x_max":532,"o":"m 283 935 q 489 838 408 935 q 532 663 532 782 l 532 257 q 397 17 532 76 q 280 0 336 0 l 257 0 q 125 31 125 16 l 123 35 l 120 31 l 117 31 q 14 160 52 62 q 0 409 0 199 l 0 503 q 14 720 0 720 q 54 849 16 765 q 143 900 108 900 l 283 935 m 92 886 l 94 886 l 89 880 l 85 880 l 92 886 m 226 595 l 226 486 l 220 480 l 217 497 q 212 489 212 497 l 217 440 l 205 400 q 212 409 212 400 l 217 409 l 217 377 q 231 160 225 377 q 260 140 245 140 l 269 140 q 306 200 306 140 l 306 560 l 311 629 l 311 631 l 334 654 l 334 657 l 323 657 l 323 654 l 329 654 l 329 652 l 315 640 l 309 657 l 306 657 l 306 729 q 271 795 306 795 l 269 795 q 229 732 229 795 l 226 595 z "},"1":{"ha":415,"x_min":0,"x_max":400,"o":"m 264 937 l 317 937 l 320 935 l 323 935 l 320 931 l 320 926 l 323 926 l 323 931 l 329 937 l 353 937 l 353 935 l 350 931 l 350 928 l 355 928 q 365 937 365 928 l 389 937 l 394 931 l 394 854 l 391 795 l 394 726 l 394 632 l 389 490 l 391 480 l 385 480 l 385 471 l 389 451 l 385 448 q 391 433 391 448 l 397 433 l 394 418 l 394 6 l 389 0 l 166 0 l 160 6 l 160 50 l 166 59 l 163 68 l 169 121 l 160 145 l 160 184 l 163 279 l 160 302 l 163 374 l 160 599 q 71 673 160 673 q 0 682 0 673 l 0 777 q 80 804 0 785 q 101 816 101 804 l 104 812 l 110 812 q 264 937 184 850 m 400 475 l 400 466 l 394 460 l 391 471 l 394 475 l 400 475 z "},"2":{"ha":557,"x_min":0,"x_max":527,"o":"m 260 940 q 456 867 397 940 q 524 741 524 795 l 527 706 l 527 676 q 469 492 527 607 l 512 500 l 512 498 q 445 474 512 490 l 445 471 l 454 471 q 304 231 454 454 l 258 158 l 372 158 l 439 153 l 456 158 l 500 158 l 507 153 l 507 6 l 500 0 l 425 0 l 425 6 l 398 3 l 366 6 l 267 0 l 258 0 l 258 6 l 187 0 l 135 3 l 114 0 l 102 3 l 20 0 l 9 0 l 3 6 l 3 132 l 158 384 q 205 401 205 392 l 208 398 l 214 398 l 214 401 l 208 401 l 208 404 l 222 431 l 220 431 l 178 418 l 178 422 l 287 615 q 313 723 313 701 q 260 796 313 796 q 211 711 211 796 l 208 627 l 208 612 l 173 609 l 129 609 l 50 615 l 50 609 l 44 609 l 44 612 l 24 609 l 6 609 l 0 615 q 12 744 6 744 l 9 747 l 6 747 q 56 861 20 819 q 96 893 78 886 q 176 931 148 931 q 260 940 176 940 m 407 463 l 407 460 l 413 460 l 425 463 l 425 466 l 418 466 l 407 463 m 369 451 l 369 448 l 375 448 l 387 451 l 387 454 l 380 454 l 369 451 m 331 439 l 331 436 l 336 436 l 349 439 l 349 442 l 342 442 l 331 439 m 293 427 l 293 425 l 298 425 l 311 427 l 311 431 l 304 431 l 293 427 m 255 416 l 255 413 l 260 413 l 272 416 l 272 418 l 267 418 l 255 416 m 216 404 l 216 401 l 222 401 l 234 404 l 234 407 l 229 407 l 216 404 m 413 149 l 413 146 l 425 146 l 425 149 l 413 149 z "},"3":{"ha":557,"x_min":0,"x_max":527,"o":"m 219 937 l 276 937 q 493 846 440 937 q 522 761 522 797 l 522 732 q 527 658 522 675 q 496 615 527 615 l 219 538 l 219 536 l 222 536 q 507 612 324 567 l 510 612 l 510 610 q 439 533 494 567 q 430 527 430 533 l 430 524 q 513 425 513 496 l 527 311 l 527 302 l 522 237 l 524 205 q 484 83 524 155 q 288 0 414 0 l 239 0 q 14 131 72 0 q 0 256 0 196 l 5 370 l 3 373 l 5 376 l 216 376 l 222 370 l 222 313 q 239 142 222 142 l 254 140 l 262 140 q 302 205 302 140 l 302 353 q 245 433 294 433 q 188 439 245 437 l 174 439 l 168 444 l 168 513 q 216 533 168 519 l 216 536 l 214 536 l 180 524 l 176 527 l 176 572 l 182 578 l 233 578 q 304 612 296 578 l 311 647 l 311 747 q 273 798 311 798 l 271 798 q 233 738 233 798 l 231 650 l 228 647 l 12 647 l 5 652 q 23 795 5 795 q 88 906 58 906 q 219 937 150 937 z "},"4":{"ha":598,"x_min":0,"x_max":580,"o":"m 210 935 l 222 935 l 260 932 l 302 935 l 308 935 l 349 932 l 387 935 l 426 926 l 465 932 l 471 932 l 491 928 l 497 935 l 509 935 l 515 928 l 515 902 q 509 872 515 872 l 512 849 l 515 656 q 506 556 506 609 l 512 550 l 515 470 l 515 326 l 574 326 l 580 319 l 580 192 l 565 165 l 515 165 l 515 92 l 509 83 l 509 68 l 515 59 l 515 6 l 509 0 l 287 0 q 281 9 281 0 l 290 33 q 281 68 285 38 l 284 71 l 281 85 l 281 121 l 284 139 l 281 154 l 281 165 l 180 165 l 178 169 l 174 165 l 157 165 q 148 178 149 165 l 145 178 q 136 165 145 165 l 133 165 l 121 174 l 118 174 q 113 165 118 165 l 6 165 l 0 172 l 0 317 l 139 733 q 210 935 204 935 m 278 710 l 178 326 l 207 326 q 213 317 213 326 l 216 313 l 219 313 l 219 322 l 222 322 l 231 317 l 239 326 l 248 326 q 254 317 254 326 l 258 317 q 263 326 258 326 l 281 326 l 281 405 l 284 538 l 281 665 l 281 710 l 278 710 z "},"5":{"ha":564,"x_min":-7,"x_max":543,"o":"m 11 680 l 43 680 l 133 677 l 171 680 l 197 673 l 322 673 q 357 668 357 673 l 369 671 l 467 668 l 471 665 l 473 665 l 485 668 l 494 668 l 500 662 l 500 537 l 494 531 l 214 531 l 214 374 q 351 435 273 435 l 372 435 q 526 333 479 435 q 543 208 543 271 l 543 1 q 473 -187 543 -157 q 430 -231 466 -188 q 293 -258 363 -258 l 255 -258 q 25 -132 66 -245 l 2 -42 q -7 100 -3 -42 l -3 103 l 113 103 q 217 89 217 103 l 217 31 q 250 -109 229 -109 q 264 -115 250 -115 l 287 -115 q 313 -74 313 -102 l 313 100 q 293 278 301 278 l 293 295 q 223 243 223 295 q 214 225 214 240 l 214 217 l 77 214 l 22 214 q -1 222 1 214 l -1 307 q 7 365 -1 336 l 7 403 l 5 490 l 11 526 l 5 531 l 5 673 l 11 680 z "},"6":{"ha":615,"x_min":-85,"x_max":754,"o":"m 575 1080 l 581 1072 l 581 1069 l 575 1069 l 570 1074 l 575 1080 m -15 1066 l -3 1063 l -3 1057 l -24 1055 l -24 1057 l -15 1066 m -47 1057 l -35 1051 l -33 1055 q -21 1043 -28 1043 l -30 1034 l -41 1046 l -56 1040 l -56 1046 l -47 1057 m 541 1046 l 547 1046 l 547 1034 l 549 1034 l 549 1040 l 555 1040 q 575 997 565 1040 q 564 982 564 994 l 567 982 l 570 979 l 567 970 l 578 959 l 578 956 l 575 956 l 549 965 l 549 939 l 552 928 l 544 905 l 547 896 l 544 867 l 547 836 l 544 832 q 552 815 552 829 l 549 815 q 572 758 567 785 l 570 755 l 572 746 l 575 746 l 578 703 l 578 686 l 572 680 l 492 680 l 489 677 l 480 680 l 471 677 l 454 680 l 440 680 l 440 648 l 437 648 l 434 663 l 434 680 l 356 680 l 351 686 l 351 714 l 345 714 l 345 723 l 351 732 l 348 743 l 351 758 q 319 795 351 781 l 313 795 l 313 792 l 293 795 l 275 795 l 267 786 l 273 786 l 273 783 l 261 760 l 258 585 l 258 547 l 310 599 q 402 616 345 616 l 411 616 q 443 610 431 616 l 448 616 l 463 616 l 463 608 l 460 610 l 454 610 l 454 608 l 469 604 l 469 613 l 475 613 l 475 610 l 471 608 l 471 604 l 486 596 l 489 596 l 512 602 l 521 602 q 526 593 526 602 l 521 585 l 512 590 l 503 587 l 517 576 l 538 593 l 541 593 q 552 564 547 564 l 561 573 l 564 573 l 564 567 q 549 555 563 561 l 547 558 l 547 562 l 544 558 l 538 558 l 538 564 l 532 564 l 532 562 q 552 532 552 540 l 555 535 l 561 535 l 558 524 q 578 408 578 481 l 578 233 l 575 186 l 578 178 l 572 172 l 575 169 l 575 166 l 570 152 l 572 143 l 567 143 l 567 134 q 466 22 541 60 l 460 22 l 454 14 l 457 11 l 457 5 l 454 2 l 454 -1 l 460 -6 l 454 -12 l 457 -15 l 457 -24 l 454 -26 l 457 -29 l 457 -35 l 454 -38 l 454 -41 l 457 -44 l 460 -44 l 457 -64 l 460 -75 l 457 -84 l 460 -93 l 457 -93 l 460 -102 l 457 -104 l 457 -107 l 460 -110 l 460 -113 l 457 -127 l 454 -127 q 448 -119 448 -127 l 452 -116 l 452 -113 l 448 -110 l 448 -107 l 452 -104 l 446 -52 l 448 -41 l 446 -21 l 448 -21 l 446 -18 l 446 14 l 422 7 l 425 5 l 425 -1 l 420 -1 l 420 5 l 417 5 q 359 -3 386 -3 l 362 -6 l 362 -9 q 356 -26 360 -26 l 362 -44 l 362 -107 l 368 -125 l 365 -127 l 353 -127 q 339 -98 339 -121 l 339 -56 l 336 -44 l 339 -41 l 339 -38 l 336 -35 l 339 -21 l 339 -6 l 290 -6 l 241 -3 l 241 2 l 229 2 q 68 100 140 2 q 33 288 33 143 l 33 336 l 31 371 l 37 377 l 37 382 l 39 443 l 37 446 l 37 449 l 39 466 l 39 472 l 31 486 l 33 671 l 33 688 l 31 691 q 48 781 42 773 q 106 864 55 823 q 123 882 121 864 q 192 919 162 917 q 264 936 216 930 l 256 954 l 270 956 l 267 970 l 267 974 l 275 982 l 290 968 q 307 954 302 968 l 304 951 q 284 959 284 951 l 281 959 l 275 954 q 290 936 290 947 l 304 936 q 345 947 317 947 q 368 933 352 933 l 382 933 l 382 939 l 385 939 l 397 933 q 402 942 397 942 l 414 939 l 417 939 l 417 942 l 402 951 l 399 951 l 391 945 l 388 954 l 399 956 l 399 959 q 388 965 399 965 l 388 970 l 402 985 l 408 985 l 414 979 l 411 977 l 411 974 l 417 968 l 417 965 q 406 954 406 964 l 422 954 l 422 939 l 425 939 l 431 956 l 422 959 l 431 970 l 448 970 l 448 985 l 443 985 l 443 988 l 448 988 l 452 991 l 463 979 l 463 977 l 457 977 l 457 970 q 469 942 469 955 l 466 939 l 463 942 l 457 942 l 457 933 q 471 928 471 933 l 471 924 l 469 922 l 471 913 l 477 913 l 477 919 l 475 945 l 477 954 q 469 959 469 954 l 469 965 l 477 965 l 477 979 l 483 985 q 492 965 488 985 l 503 956 l 500 954 l 503 939 l 494 928 l 498 910 l 494 907 l 494 905 l 506 901 l 506 899 l 500 890 l 532 850 l 538 850 l 538 867 l 535 901 l 538 901 l 532 922 l 535 922 l 532 924 l 538 988 l 535 1002 l 541 1046 m -7 1040 l 5 1040 l 5 1034 l -3 1031 l -7 1034 l -7 1040 m 558 1023 l 555 1020 l 555 1017 l 564 1017 l 558 1023 m 267 1014 l 273 1014 l 281 997 l 279 997 l 267 1011 l 267 1014 m 422 928 l 425 924 l 429 924 l 434 930 l 434 933 l 429 933 l 422 928 m 446 933 l 446 928 l 454 919 l 454 922 l 452 933 l 446 933 m 486 899 l 486 893 l 494 893 l 494 899 l 486 899 m -85 878 l -81 878 l -73 870 l -76 867 l -85 867 l -85 878 m -15 861 l -15 855 l -21 850 l -26 850 l -26 855 l -15 861 m -33 847 l -30 847 l -26 844 l -24 847 l -18 847 l -18 844 l -24 824 l -30 824 l -33 844 l -33 847 m 25 691 l 25 688 l 19 682 l 16 686 l 16 688 l 19 691 l 25 691 m 627 674 l 636 674 l 636 668 l 627 668 l 627 674 m 365 654 l 379 654 l 379 650 l 368 648 l 365 650 l 365 654 m 503 625 l 521 622 l 521 616 l 517 619 l 515 619 l 509 610 l 506 613 l 503 613 l 492 610 l 503 625 m 630 619 l 636 619 l 636 604 q 625 544 636 576 l 618 544 l 621 547 l 621 550 l 618 553 l 618 555 l 625 562 l 621 562 q 627 608 627 574 l 625 610 q 630 619 630 610 m 532 578 q 524 573 532 573 l 524 567 l 526 567 l 538 573 l 532 578 m 578 547 l 584 541 l 581 538 l 581 535 l 584 527 l 581 524 l 578 524 l 570 535 l 572 538 l 572 541 l 570 544 l 572 547 l 578 547 m 630 538 l 636 538 l 636 521 l 630 515 l 627 518 l 630 538 m 618 527 l 621 527 l 627 504 l 625 500 l 618 500 q 613 509 613 500 l 618 527 m 572 518 l 578 518 l 584 512 l 581 509 l 578 509 l 572 515 l 572 518 m 584 504 l 587 500 l 587 498 l 584 495 l 581 495 l 578 498 l 578 500 l 581 504 l 584 504 m 613 495 l 625 495 l 630 489 l 625 484 q 613 489 625 489 l 613 495 m 705 489 l 708 489 l 708 469 l 702 469 l 696 475 q 705 489 703 475 m 252 270 q 264 163 258 270 q 304 134 279 134 l 310 134 q 351 192 351 142 l 351 417 q 307 475 351 475 l 304 475 q 258 389 258 475 q 252 270 258 314 m 705 463 l 711 458 l 705 452 l 699 458 l 705 463 m 725 463 l 731 463 l 731 458 l 722 449 l 717 454 l 725 463 m 740 463 l 743 463 l 754 454 l 751 452 l 748 452 q 740 458 748 458 l 740 463 m 694 443 l 702 443 l 702 437 l 690 431 l 688 435 l 688 437 l 694 443 m 644 394 l 650 389 l 644 382 l 639 382 l 639 389 l 644 394 m 604 382 l 607 382 l 618 371 q 604 362 618 364 l 602 366 l 602 368 l 604 382 m 296 157 l 298 157 l 307 152 l 316 155 l 307 140 l 302 140 l 302 143 l 304 146 l 304 149 l 302 152 l 298 152 q 293 140 298 140 l 290 143 l 290 152 l 296 157 m 572 134 l 578 134 l 578 100 l 572 100 l 570 120 l 572 134 m 671 85 l 676 85 l 682 62 l 679 60 l 676 60 l 671 83 l 671 85 m 653 77 l 656 77 l 662 71 q 650 51 662 56 l 648 51 l 648 54 q 653 77 653 62 m 521 -12 l 524 -12 l 524 -18 l 515 -18 l 521 -12 m 512 -26 l 517 -26 l 517 -35 q 509 -44 509 -35 l 503 -44 l 503 -41 l 512 -26 m 422 -35 l 429 -35 l 429 -50 l 422 -50 l 422 -35 m 517 -35 l 521 -35 l 526 -41 l 526 -44 l 524 -44 l 517 -38 l 517 -35 m 578 -168 l 578 -174 l 572 -180 l 570 -176 l 567 -180 l 564 -176 l 564 -174 l 578 -168 z "},"7":{"ha":459,"x_min":0,"x_max":448,"o":"m 6 822 l 47 822 l 92 819 l 92 813 l 95 813 l 234 816 l 240 822 l 433 822 l 448 804 l 448 623 q 361 199 370 199 l 359 199 l 359 190 l 329 60 q 288 -115 307 -115 l 169 -112 l 71 -115 l 68 -112 l 68 -109 q 106 27 92 15 l 125 119 l 121 137 l 172 359 q 193 427 185 359 l 199 433 l 199 454 l 193 454 l 193 457 l 234 653 l 6 653 l 0 659 l 0 816 l 6 822 m 103 198 l 109 198 l 109 190 l 103 190 l 103 198 m 98 174 l 103 174 l 103 165 l 95 130 l 90 130 l 98 174 m 307 163 l 307 146 l 301 146 l 301 157 l 307 163 z "},"8":{"ha":539,"x_min":-1,"x_max":536,"o":"m 281 937 l 310 937 q 528 815 488 937 l 522 815 q 508 838 522 827 l 508 836 q 531 756 521 813 l 536 756 l 536 753 q 519 736 530 736 l 519 668 q 429 527 519 564 l 429 521 q 525 376 525 482 l 528 317 l 528 249 q 491 96 528 123 q 437 54 471 90 l 384 14 q 290 0 332 0 l 245 0 q 44 87 102 0 q -1 260 -1 128 l -1 309 q 21 436 7 378 q 38 473 38 455 q 13 419 30 473 l 10 419 l 10 422 q 86 524 10 471 q 109 538 86 535 l 109 541 q 44 626 66 560 l 35 668 l 38 699 l 38 742 l 55 785 q 95 867 63 865 q 172 911 95 879 l 168 915 l 168 918 q 281 937 209 937 m 245 739 q 262 606 245 711 q 237 595 245 595 l 237 592 q 259 578 243 578 l 271 578 q 302 626 295 578 q 327 640 327 633 l 327 750 q 290 802 327 802 q 245 739 262 802 m 528 781 l 534 781 l 534 770 l 528 770 l 528 781 m 211 232 l 211 221 l 214 221 l 214 238 l 220 238 q 259 139 220 139 l 268 139 q 304 195 304 139 l 304 371 q 268 427 304 427 l 262 427 q 222 362 222 427 q 211 232 211 278 m -1 354 l 4 354 l 4 345 l -1 345 l -1 354 m 486 82 l 486 79 l 435 37 l 432 37 l 432 43 l 486 82 z "},"9":{"ha":571,"x_min":3,"x_max":550,"o":"m 286 745 l 288 745 q 484 678 401 745 q 550 465 550 624 l 550 85 q 507 -93 550 -64 q 435 -159 461 -159 q 277 -197 382 -197 l 274 -197 q 73 -130 125 -197 q 58 -90 61 -110 q 12 -3 41 -90 l 18 51 l 18 57 l 24 62 l 115 62 q 233 51 233 62 l 233 -3 q 271 -56 233 -56 l 288 -56 q 323 -6 323 -56 l 323 28 l 328 28 l 328 45 l 334 83 q 323 149 323 108 l 323 189 q 262 143 302 155 l 260 140 l 256 140 l 245 143 q 147 125 208 125 q 26 209 59 152 q 3 391 3 270 q 29 624 7 624 q 115 707 74 707 q 286 745 157 745 m 225 391 l 239 287 q 265 264 243 277 l 286 264 q 323 316 317 264 l 323 434 q 332 454 332 434 l 332 465 q 323 471 323 465 l 323 541 q 279 604 323 604 q 233 526 233 604 l 225 391 m 50 -90 l 58 -98 l 58 -101 l 55 -101 l 50 -96 l 50 -90 z "}," ":{"ha":386,"x_min":0,"x_max":0,"o":""},"!":{"ha":288,"x_min":-64,"x_max":541,"o":"m 117 -88 q 113 -78 117 -81 q 113 -69 117 -73 l 112 -68 l 112 -68 l 114 -68 l 114 -69 l 117 -66 l 120 -63 q 119 -60 118 -60 l 115 -58 q 117 -49 117 -50 l 117 -49 l 117 -48 q 117 -43 119 -45 l 119 -35 q 117 -22 117 -28 q 118 -20 117 -22 q 117 -14 115 -18 q 118 -9 116 -12 q 117 -3 117 -8 q 117 -1 116 -2 l 117 -1 l 117 -1 q 117 3 117 0 q 117 5 115 3 q 116 11 115 6 q 117 18 116 14 q 117 24 117 22 l 119 24 l 119 24 q 117 29 117 26 l 117 33 l 117 35 l 118 35 l 119 36 q 120 46 117 37 q 122 64 124 62 l 122 64 l 121 64 l 120 65 l 120 65 l 119 66 l 119 66 l 119 66 l 119 66 l 118 66 l 114 70 l 112 71 l 112 71 l 112 71 l 111 73 l 105 76 l 102 79 l 96 81 l 95 79 q 95 71 94 79 q 90 60 94 69 l 87 56 q 83 45 82 49 q 81 35 83 43 q 80 29 83 33 q 79 24 80 28 l 79 24 l 77 22 l 77 21 l 77 21 l 75 20 q 75 5 73 12 q 77 -7 79 -3 q 76 -13 77 -7 l 75 -12 q 75 -8 74 -10 l 76 -7 l 76 -7 l 76 -7 l 71 -3 l 71 -3 q 71 -8 72 -4 q 69 -14 71 -13 l 69 -14 l 71 -15 q 73 -19 73 -18 l 67 -22 l 66 -24 q 55 -28 59 -31 l 55 -28 q 52 -23 52 -26 l 51 -22 l 50 -21 q 48 -12 47 -14 l 49 -12 q 54 -10 53 -12 q 56 -3 56 -7 l 56 3 l 56 4 l 56 3 l 57 2 l 58 3 l 58 3 l 58 3 q 58 9 60 8 l 56 11 l 56 9 l 55 9 l 55 9 l 55 9 l 54 8 l 56 7 l 57 7 q 56 4 58 6 q 54 7 54 7 l 54 8 l 54 8 q 53 8 54 7 q 54 12 52 9 q 55 14 54 12 l 56 14 l 57 12 l 58 11 l 58 12 q 60 6 61 7 l 62 6 l 62 6 l 62 5 l 62 5 l 64 5 l 64 5 l 64 7 l 62 9 q 57 15 57 14 l 56 16 l 56 16 l 56 16 l 54 18 l 52 19 q 55 26 53 24 l 56 27 q 61 26 58 28 l 62 27 l 62 28 l 64 28 l 64 28 l 64 30 l 64 29 l 64 28 q 69 31 65 28 l 70 30 l 71 31 q 69 36 73 33 q 69 40 68 37 q 66 47 68 43 l 64 47 q 62 52 62 52 l 65 56 q 66 61 67 58 l 69 64 l 69 64 l 70 65 q 69 76 66 73 q 71 90 68 82 q 71 97 70 95 l 72 96 l 73 97 q 69 102 73 98 q 67 109 70 105 l 68 109 l 68 110 l 68 110 l 68 111 l 68 111 q 60 113 63 111 l 60 117 l 60 117 q 65 119 64 117 l 64 120 l 64 120 l 64 120 l 64 120 l 62 119 l 62 121 l 62 120 l 62 120 q 56 129 54 126 l 56 129 l 56 129 q 46 131 48 130 q 39 132 39 132 l 39 132 l 39 132 l 38 132 q 31 136 36 133 l 26 142 l 26 142 l 26 143 l 25 151 l 25 151 q 29 153 25 152 l 28 156 l 30 156 l 30 157 l 31 157 l 31 161 l 28 161 l 28 162 q 30 163 29 163 l 31 165 l 27 165 l 26 165 q 22 174 25 166 q 18 179 20 175 q 14 184 16 182 l 13 184 l 12 184 l 9 185 q 10 193 7 187 q 19 197 16 198 l 19 197 l 18 196 l 19 195 l 20 196 l 20 195 q 22 191 19 194 l 22 191 l 23 192 l 23 192 l 21 193 q 21 196 22 194 l 21 196 l 21 196 l 23 195 l 24 194 l 24 194 q 32 180 26 186 l 33 180 l 32 180 l 33 179 l 34 179 l 33 178 l 33 178 l 33 178 l 34 178 l 34 178 l 35 177 l 35 177 l 35 177 l 36 176 l 36 176 l 37 176 q 40 170 39 172 l 40 170 l 45 171 l 45 170 l 45 170 l 43 170 l 43 170 l 44 169 q 56 165 54 165 q 64 163 62 164 l 64 163 l 65 161 l 64 161 l 62 159 l 62 159 q 69 158 65 156 l 71 158 l 73 156 l 73 157 q 77 157 74 156 l 77 157 q 77 159 77 157 q 78 159 77 159 l 79 159 l 79 159 l 79 158 q 83 157 80 159 l 85 159 l 86 161 q 88 161 87 159 l 90 159 q 98 157 94 156 l 99 159 l 100 160 l 100 162 l 102 162 q 102 159 102 160 l 100 159 l 100 159 l 101 158 l 101 158 q 100 156 102 157 l 99 156 q 100 153 101 155 l 100 152 q 104 153 102 154 l 104 153 q 103 155 102 155 l 103 155 q 106 155 104 157 l 106 155 q 111 156 109 153 q 114 155 113 154 q 117 154 115 155 q 117 163 121 160 q 120 179 122 175 q 120 182 121 180 l 120 182 l 120 182 l 122 182 l 123 182 l 124 184 l 123 184 l 121 184 l 121 186 l 121 186 l 121 186 q 119 194 124 189 q 117 193 118 193 l 117 193 l 115 193 l 115 193 l 115 193 q 113 193 115 193 l 112 194 q 111 197 111 196 l 113 197 q 114 201 113 201 l 115 203 l 115 207 l 116 208 l 117 208 l 118 208 l 118 210 l 119 211 l 120 211 l 121 210 l 121 208 l 119 206 l 119 206 q 126 198 127 199 l 127 197 l 127 199 q 127 201 126 200 l 127 201 l 127 201 l 128 199 l 129 199 l 130 198 l 131 199 l 131 199 q 129 204 132 201 l 129 204 l 130 205 q 134 203 132 203 l 139 203 l 140 199 l 141 199 l 142 200 l 142 200 l 141 201 l 140 201 l 140 201 l 142 203 l 143 203 l 142 204 q 148 208 146 206 l 149 208 l 149 208 l 149 211 l 151 211 l 151 212 l 152 212 l 153 212 q 151 208 153 211 l 152 208 l 154 212 q 155 212 155 212 l 157 212 l 155 208 l 154 208 l 154 207 l 153 207 l 151 205 l 152 204 q 156 205 154 203 q 159 205 157 204 l 161 208 l 162 207 q 161 205 163 206 l 161 205 l 162 205 q 163 208 163 207 l 164 208 l 164 208 l 164 210 l 165 210 l 166 210 q 166 209 167 210 l 167 208 l 165 206 l 165 206 l 165 206 q 168 206 166 205 q 170 206 169 205 l 170 205 l 169 204 l 170 203 l 171 204 q 172 212 172 210 l 173 214 l 174 214 l 174 212 l 175 212 l 175 212 l 175 212 l 176 211 l 176 211 l 176 212 l 176 212 l 177 211 q 176 206 176 210 q 177 202 176 205 l 176 200 l 176 200 l 175 198 l 177 197 l 178 197 q 178 194 180 196 l 181 193 q 183 185 182 193 l 183 185 q 188 184 185 186 l 188 184 l 189 185 l 188 186 l 188 186 l 189 186 l 189 186 l 189 186 q 190 188 189 186 l 191 187 l 191 189 l 191 189 l 189 189 l 189 189 l 190 191 l 189 189 l 186 192 l 186 194 l 188 195 l 189 194 q 189 193 190 193 q 195 190 191 193 l 195 190 l 195 189 l 195 189 l 196 189 l 195 189 l 198 188 l 198 186 l 199 187 l 200 186 l 200 186 l 201 187 l 201 187 l 201 187 l 200 188 l 200 188 q 205 186 203 188 q 203 186 205 185 l 203 186 l 205 185 l 207 185 q 209 184 207 185 l 208 182 l 212 181 l 212 181 l 212 182 l 212 182 l 214 182 l 215 180 l 216 179 l 216 179 q 218 179 216 180 l 218 179 l 218 176 q 223 175 220 174 l 223 175 q 228 172 227 174 l 229 172 l 229 172 l 229 172 l 229 172 l 230 174 l 229 172 l 230 172 l 241 168 l 242 169 q 240 173 240 171 l 240 173 l 240 173 l 241 172 l 242 174 l 241 174 l 240 173 l 239 174 l 240 174 l 239 174 l 239 174 l 239 175 l 239 176 l 238 175 l 239 174 l 238 174 q 232 174 234 177 l 229 176 q 229 178 231 177 l 229 178 l 229 178 q 224 180 225 179 l 222 180 l 222 180 q 225 181 224 182 l 225 181 l 225 181 q 216 184 221 184 l 216 184 l 215 185 q 220 185 216 186 l 221 184 q 227 184 226 183 l 226 184 l 227 186 l 227 185 l 227 184 l 228 184 q 229 184 228 184 l 229 184 l 229 185 l 226 187 l 227 188 q 223 190 224 189 q 219 190 222 188 q 214 191 218 189 q 214 193 215 192 l 212 194 l 212 195 l 212 196 q 209 195 210 194 l 210 196 l 215 197 l 215 197 l 212 199 l 213 199 l 212 198 l 210 199 l 209 201 l 202 201 q 202 199 203 200 l 202 199 l 202 199 l 203 200 l 203 200 l 203 200 q 205 196 203 199 l 205 196 l 203 195 l 204 195 l 204 195 l 203 195 l 203 196 l 202 195 l 201 195 q 201 202 201 201 l 199 201 l 200 203 l 201 203 l 201 203 l 199 205 l 199 205 l 198 210 l 199 212 q 200 212 199 212 l 200 212 l 200 213 l 201 214 l 201 213 l 201 213 l 201 214 l 199 214 l 199 212 l 199 212 l 198 212 l 198 214 l 197 212 l 195 213 l 194 214 q 193 214 193 213 l 193 215 l 195 217 l 195 218 l 197 219 l 197 220 l 197 222 l 197 222 l 200 227 l 200 227 l 201 226 q 199 222 201 225 l 201 222 l 201 222 l 200 220 q 205 218 203 220 l 206 220 l 207 222 l 207 222 l 204 223 l 204 224 q 210 225 208 225 l 210 228 l 210 228 l 210 227 l 211 229 q 211 230 210 229 l 212 231 q 212 233 211 232 l 210 235 l 209 236 l 210 237 q 210 239 209 237 q 210 241 210 240 l 213 243 l 214 243 l 214 243 l 246 218 l 246 216 l 250 215 q 250 211 248 212 l 252 205 l 253 204 l 255 201 l 254 200 l 253 199 q 248 199 252 198 l 245 197 l 247 196 l 246 195 l 244 195 q 245 190 245 195 l 244 188 q 243 185 243 186 l 245 184 l 249 185 q 252 179 253 182 l 251 178 l 251 178 l 254 177 l 254 175 l 252 175 l 249 177 l 246 177 l 248 174 l 248 174 l 256 172 l 255 171 l 256 172 l 256 172 l 256 170 l 257 171 l 258 170 q 259 168 257 169 q 260 168 260 169 q 262 174 260 172 q 262 176 263 175 l 262 176 l 264 176 l 266 180 l 266 180 l 266 180 l 267 179 l 267 179 l 267 178 q 267 176 267 178 q 267 172 268 174 l 267 174 l 268 173 l 268 169 l 267 168 q 267 161 266 162 q 269 157 267 159 l 269 156 l 270 155 l 271 156 l 271 156 q 271 149 269 153 l 272 147 l 271 146 l 271 146 l 273 146 l 271 142 l 262 142 l 262 143 l 260 144 l 260 144 q 260 143 261 144 q 256 141 258 143 l 254 140 l 252 135 l 251 134 l 251 134 l 248 131 l 247 130 q 246 123 247 124 l 245 123 l 245 123 l 246 122 l 246 122 l 245 121 l 242 121 l 242 123 q 239 123 241 122 l 239 125 l 239 125 q 234 126 237 124 l 233 127 q 227 127 231 126 q 228 125 227 127 l 228 125 q 226 126 227 127 l 222 122 q 222 120 223 121 l 223 119 l 224 120 l 224 120 l 223 119 q 223 116 224 118 l 223 116 l 222 115 l 222 117 l 222 116 q 220 116 221 115 l 220 116 l 222 119 l 222 119 l 221 118 l 220 117 l 218 117 l 218 115 l 217 115 l 216 114 l 216 114 l 216 114 l 216 113 l 216 113 l 214 111 l 221 107 l 222 108 l 221 109 l 221 110 l 223 110 l 224 109 l 222 109 l 223 107 q 227 109 225 107 l 227 110 l 226 109 l 225 110 l 225 111 l 227 111 l 227 111 l 226 111 q 228 112 227 112 l 229 113 l 229 113 l 229 113 l 229 113 l 229 112 l 229 112 l 229 112 q 231 113 230 111 l 231 114 l 233 115 l 234 116 l 234 116 l 234 116 l 235 115 q 237 115 236 114 l 237 116 l 235 117 l 236 119 l 237 118 l 237 118 l 237 117 q 239 118 239 119 q 241 119 241 120 l 242 119 q 242 116 242 119 q 239 117 239 117 l 240 114 q 241 114 241 115 l 241 115 l 243 117 l 244 117 l 245 117 l 243 114 l 243 114 q 239 106 242 110 l 239 106 l 238 104 l 237 103 l 235 100 l 235 100 l 235 100 l 237 99 l 237 99 l 237 98 l 242 104 l 243 104 l 243 103 l 243 102 q 241 102 242 102 q 243 95 242 98 q 244 85 246 93 q 244 68 247 73 l 244 68 l 243 66 q 245 62 242 66 l 245 60 l 244 60 l 244 60 l 245 60 l 245 60 l 246 60 q 247 55 248 57 l 248 56 l 248 56 q 250 47 250 50 q 250 43 252 46 l 251 41 l 252 42 q 253 39 252 41 l 253 39 l 254 39 q 256 29 256 38 q 258 18 260 22 q 260 5 258 14 q 264 -14 262 1 q 266 -19 263 -16 q 266 -26 264 -21 l 267 -26 q 274 -39 271 -33 l 279 -51 q 280 -65 281 -64 l 279 -66 q 279 -70 281 -66 q 268 -74 275 -75 l 267 -73 l 264 -74 l 262 -73 l 260 -69 l 260 -69 q 250 -46 250 -58 q 248 -30 250 -40 q 246 -26 246 -29 l 241 -16 q 236 1 234 -1 q 232 12 237 3 q 231 18 231 17 l 230 18 l 232 20 l 231 20 l 231 19 l 229 20 q 229 21 229 20 l 229 22 l 229 22 l 229 23 l 229 23 l 230 24 l 230 24 q 228 22 229 22 q 227 31 229 27 l 226 31 l 225 31 l 225 33 l 227 34 l 227 35 l 227 35 l 225 35 q 222 33 223 32 q 216 43 216 41 l 215 45 l 214 47 q 194 47 197 51 q 193 41 193 45 l 193 37 l 192 36 q 195 24 196 28 q 191 22 193 23 l 190 23 q 186 23 189 22 l 186 23 l 187 22 l 189 22 l 189 20 l 193 20 q 193 17 193 18 q 197 17 195 15 l 197 15 l 197 15 l 198 16 l 199 15 l 198 14 l 196 12 l 195 11 l 197 10 l 198 10 l 198 10 l 199 9 l 199 9 l 199 8 l 199 8 l 199 9 l 200 8 l 201 7 l 199 6 l 201 5 q 202 -12 203 -5 q 203 -33 203 -14 q 204 -39 204 -35 l 203 -38 q 205 -48 207 -45 l 205 -48 l 205 -47 l 205 -49 l 205 -49 l 205 -49 l 205 -50 q 205 -56 205 -50 q 205 -63 207 -58 l 207 -67 q 208 -71 205 -68 q 208 -91 211 -86 q 205 -98 208 -95 l 203 -101 q 193 -104 195 -106 q 191 -104 193 -105 l 191 -103 l 191 -103 l 187 -102 q 183 -83 184 -98 q 182 -74 184 -81 l 183 -69 q 182 -67 181 -68 l 182 -66 l 182 -59 q 183 -55 182 -56 l 182 -54 q 178 -46 182 -54 q 178 -39 177 -45 q 176 -22 178 -33 q 175 -15 175 -19 l 176 -14 l 176 -14 l 176 -14 q 175 -3 174 -6 l 176 -1 l 174 -1 l 173 -1 q 174 2 175 1 l 176 3 l 176 3 l 174 3 l 174 4 l 174 3 l 176 5 l 176 5 q 178 7 177 5 l 179 7 l 179 7 q 179 8 178 7 l 178 9 l 178 9 l 178 7 l 176 7 l 176 7 l 175 6 l 175 6 q 175 9 174 8 l 176 9 l 176 9 l 176 9 l 176 10 l 175 11 l 176 11 l 175 9 l 174 10 l 173 12 l 172 12 l 174 14 l 172 13 l 172 14 l 172 15 l 173 14 l 174 15 q 172 19 171 17 l 172 19 l 172 18 l 172 18 l 172 19 l 171 20 l 173 22 l 172 22 l 172 22 l 171 23 l 172 24 l 172 24 l 172 24 l 172 24 l 171 25 l 172 26 l 171 26 l 171 26 q 170 32 172 27 l 171 33 l 171 33 l 171 33 l 171 33 l 170 34 l 170 34 l 170 34 l 171 33 l 172 34 q 170 36 170 35 q 174 37 173 38 l 175 38 q 174 40 175 39 l 172 39 l 172 37 l 171 37 l 171 37 l 167 41 l 168 42 l 168 42 l 163 45 l 163 46 l 162 45 l 161 46 l 161 47 l 160 47 l 159 48 q 151 47 156 50 q 151 35 150 47 q 147 20 150 25 l 146 20 q 146 14 145 19 q 146 12 145 14 l 145 11 l 143 9 l 144 0 q 143 -14 142 -11 l 140 -38 q 142 -54 138 -50 q 142 -74 143 -73 q 140 -83 140 -77 l 138 -85 q 131 -90 134 -85 q 121 -89 123 -91 l 117 -88 m 130 -87 l 132 -85 l 134 -85 q 125 -71 123 -74 l 127 -69 l 127 -69 l 128 -67 l 129 -66 l 128 -66 q 125 -64 127 -66 q 121 -66 123 -64 l 118 -70 l 117 -72 q 122 -79 121 -78 l 124 -80 l 130 -87 m 122 -74 l 121 -73 l 121 -73 l 123 -73 l 124 -73 l 123 -74 l 122 -74 m 48 -8 q 48 -1 47 -3 l 50 -1 l 51 -2 q 49 -8 52 -3 l 48 -8 l 48 -8 m 120 -58 q 120 -56 121 -57 l 121 -56 l 121 -56 l 121 -54 q 123 -53 123 -55 l 124 -51 l 123 -50 l 122 -50 l 123 -51 l 120 -53 l 119 -54 q 120 -58 119 -58 l 120 -58 m 131 -64 l 132 -63 l 130 -64 l 130 -64 l 131 -64 m 60 -2 q 62 -2 61 -1 l 62 -2 l 61 -1 l 60 -1 l 60 -1 l 60 -2 m 134 -60 l 136 -58 l 136 -57 l 136 -57 l 136 -58 l 134 -58 q 134 -60 135 -59 l 134 -60 m 134 -57 l 136 -56 l 135 -56 l 134 -55 l 133 -55 l 134 -57 l 134 -57 m 189 -88 l 189 -88 l 189 -87 l 188 -86 l 187 -87 l 189 -88 m 189 -85 l 191 -81 l 193 -81 l 193 -82 l 194 -82 l 194 -82 l 193 -83 l 194 -83 l 195 -83 q 195 -80 194 -82 q 193 -76 193 -78 l 195 -76 l 194 -75 l 194 -75 q 195 -75 195 -75 q 197 -77 197 -77 l 197 -77 l 197 -78 l 197 -78 l 198 -79 l 198 -79 l 198 -80 l 199 -81 l 200 -79 l 201 -77 l 197 -75 l 197 -74 q 196 -74 197 -75 l 195 -74 q 192 -73 195 -75 l 193 -73 l 193 -74 l 191 -73 l 192 -73 l 191 -72 q 189 -74 189 -75 l 189 -75 l 189 -75 l 187 -75 l 187 -77 l 186 -76 l 186 -77 l 187 -77 l 186 -77 l 186 -79 l 187 -83 l 188 -85 l 189 -85 m 123 -33 l 124 -33 q 123 -28 126 -30 l 124 -27 l 123 -26 l 123 -27 q 123 -32 123 -28 l 123 -31 l 123 -33 l 123 -33 m 189 -79 l 189 -79 l 189 -78 l 189 -78 l 189 -78 l 189 -79 l 189 -79 m 185 -55 l 185 -54 l 185 -52 l 185 -52 l 184 -54 l 184 -54 l 185 -55 m 189 -52 l 189 -50 l 189 -50 l 188 -51 l 187 -52 l 189 -52 m 189 -51 l 190 -50 l 190 -48 l 191 -49 l 191 -50 l 191 -50 q 191 -49 190 -50 l 191 -47 l 190 -48 l 189 -47 l 189 -47 l 191 -47 l 191 -47 l 191 -48 l 191 -48 q 195 -47 193 -47 l 195 -45 l 194 -45 l 193 -45 l 194 -45 l 196 -44 l 195 -43 l 194 -43 l 194 -42 l 194 -42 l 195 -43 q 197 -42 196 -41 l 198 -41 l 196 -41 l 195 -40 q 197 -41 195 -39 l 198 -40 l 197 -39 q 194 -39 195 -40 l 195 -39 l 194 -38 l 193 -39 l 194 -39 l 193 -40 l 193 -40 l 193 -39 q 190 -39 193 -38 l 189 -38 l 189 -37 l 189 -37 l 189 -38 l 188 -37 q 188 -45 186 -40 l 188 -47 l 187 -47 l 186 -48 l 189 -51 m 127 1 l 127 2 l 127 2 l 127 1 l 127 1 m 205 -45 l 205 -45 l 204 -46 l 204 -46 l 205 -45 m 123 18 l 125 20 q 123 19 124 21 l 123 18 m 126 19 l 127 20 l 126 20 l 126 20 l 126 19 m 121 24 l 121 24 l 119 26 l 119 26 l 121 24 m 125 24 l 123 25 q 122 25 123 24 l 122 25 l 123 24 l 125 24 m 181 1 l 182 0 l 182 1 l 182 1 l 180 1 l 181 1 l 181 1 m 184 -1 l 185 -1 l 185 1 l 185 1 l 185 1 l 185 1 l 184 0 l 182 0 l 184 -1 m 179 3 l 180 2 l 180 3 l 180 3 l 179 3 m 178 5 l 179 5 l 179 5 l 178 5 l 178 5 m 176 13 l 177 14 l 176 14 l 176 13 l 176 13 m 259 -50 l 260 -49 q 258 -45 260 -47 l 258 -45 l 258 -44 l 258 -43 l 256 -45 q 257 -50 258 -48 q 259 -50 259 -50 m 180 12 l 180 14 l 180 14 l 180 15 l 180 14 l 180 12 m 185 11 l 184 12 l 184 12 l 184 12 l 185 11 m 174 21 l 174 21 l 173 20 l 173 20 l 174 21 m 180 18 l 180 18 l 182 17 l 183 20 l 185 20 l 184 22 l 183 23 q 183 22 182 22 l 184 21 l 183 20 q 182 22 182 22 l 181 22 l 180 20 l 180 20 l 180 22 l 179 21 q 179 20 178 20 l 180 19 l 179 18 l 178 19 l 178 19 l 179 17 l 180 18 m 195 6 l 195 7 l 196 7 l 196 7 l 194 7 l 195 6 m 193 9 l 193 10 l 192 9 l 193 9 m 37 130 l 38 131 l 40 131 l 39 130 l 39 130 l 39 130 l 37 130 m 192 11 l 194 12 l 194 12 l 194 12 l 191 12 l 192 11 m 189 15 l 189 16 l 186 18 l 186 16 l 189 15 m 182 22 l 183 23 l 182 24 l 182 24 l 182 23 l 182 22 m 180 24 l 180 27 l 180 27 l 179 26 l 179 25 l 180 24 m 198 12 l 197 12 l 199 12 l 199 12 l 199 11 l 198 12 m 186 26 l 188 26 l 187 26 l 186 26 l 186 26 l 186 26 m 182 30 l 182 31 l 181 31 l 180 31 l 182 30 m 184 30 l 186 32 l 184 33 l 184 33 l 184 31 l 184 30 l 184 30 m 177 36 q 188 37 179 37 l 189 37 l 176 39 q 177 36 175 39 m 91 104 l 92 104 l 92 106 l 92 106 l 90 104 l 91 104 m 57 133 l 56 134 q 53 136 54 136 l 52 137 l 52 137 l 52 136 l 52 136 q 57 133 57 133 m 165 60 l 165 60 l 166 59 q 168 59 166 59 q 167 63 165 61 l 167 63 l 168 63 q 169 61 168 62 q 171 60 169 61 l 170 61 l 170 61 q 173 60 173 60 q 173 66 175 63 l 173 66 q 172 66 173 66 l 172 66 q 170 62 171 63 l 170 63 l 170 64 l 170 64 l 170 63 l 169 64 q 168 68 170 66 l 168 68 l 169 69 l 168 70 l 166 71 l 166 71 q 166 70 167 71 l 168 69 l 167 68 l 163 69 l 164 70 l 163 71 l 160 69 l 159 68 l 161 69 q 161 64 162 66 q 161 62 163 63 l 165 60 m 35 173 l 35 173 l 35 174 l 32 173 l 33 172 q 35 174 33 172 l 35 173 m 33 174 l 33 175 l 33 175 l 35 175 l 33 176 l 32 174 q 32 173 33 174 l 33 174 m 164 71 q 163 73 165 73 l 163 73 l 165 75 l 165 75 q 165 73 166 74 l 165 72 l 165 73 l 167 72 l 167 72 l 167 73 l 166 74 l 166 74 l 164 75 l 165 76 l 166 76 l 166 76 l 165 75 l 165 75 l 165 75 l 167 75 l 166 74 l 168 75 l 168 75 l 168 75 l 170 77 l 169 78 l 168 78 l 167 79 l 168 79 l 168 80 l 168 81 l 166 79 l 165 81 q 168 81 165 82 l 168 81 q 167 83 169 83 l 167 83 l 167 83 l 165 85 l 166 86 l 168 85 l 168 85 q 168 90 167 89 l 166 91 l 166 90 l 165 89 l 165 90 l 165 90 l 165 90 q 165 85 165 89 l 163 85 l 163 85 l 163 85 l 163 84 l 163 84 l 164 83 l 165 83 l 164 83 l 164 83 q 164 81 165 83 l 164 81 l 163 81 l 163 81 l 163 80 l 163 80 l 164 79 l 164 79 l 163 79 q 161 79 162 79 l 161 79 l 161 79 q 163 79 162 79 l 164 78 l 163 77 l 163 78 l 162 73 l 164 71 m 31 177 l 32 178 l 32 178 l 31 179 l 30 177 l 31 177 m 28 178 l 29 180 l 29 180 l 30 181 l 30 181 q 27 179 29 182 l 28 178 m 27 182 l 29 183 l 28 184 l 28 183 l 27 184 q 27 186 28 185 l 26 186 l 26 187 l 26 187 l 25 188 l 26 189 l 24 189 l 24 189 l 24 190 l 24 190 l 23 189 q 24 186 22 189 l 25 186 q 27 184 24 186 l 27 184 l 27 184 l 26 183 l 26 183 l 27 182 m 27 184 l 26 185 l 26 185 l 28 184 l 27 184 m 170 74 l 170 74 l 169 75 l 168 73 l 170 74 m 165 76 l 165 76 l 165 77 l 167 79 l 168 78 l 167 77 l 165 76 m 162 81 l 164 82 l 163 83 l 163 83 l 164 83 l 163 84 l 163 83 l 163 83 l 161 81 l 162 81 m 233 33 l 233 33 l 231 33 l 231 33 l 233 33 m 170 83 l 168 84 l 169 83 l 170 83 m 165 86 l 165 86 l 167 88 l 167 88 l 167 87 l 165 86 m 233 35 l 235 35 l 234 36 l 233 35 l 233 35 l 233 35 m 242 31 l 243 31 l 244 32 l 242 33 l 242 33 l 242 31 m 231 44 l 232 43 l 233 45 l 233 45 l 234 45 l 233 46 l 233 46 l 235 47 l 236 45 q 236 48 237 47 l 237 50 l 237 50 q 233 49 235 47 l 231 47 l 231 46 l 233 46 l 233 45 l 231 44 l 231 44 m 233 43 l 234 44 l 233 45 l 233 44 l 233 43 m 239 43 l 240 43 l 239 44 l 239 43 l 239 43 l 239 43 m 220 62 l 225 64 q 224 67 224 65 l 224 68 l 222 66 l 220 64 l 220 62 m 246 47 l 246 47 l 245 47 l 244 47 q 246 47 245 46 m 201 80 l 203 82 l 202 83 l 201 81 l 201 80 m 199 88 l 199 88 l 199 88 l 198 87 l 199 88 m 227 66 l 227 67 l 226 68 l 227 66 l 227 66 m 205 83 l 205 86 l 205 86 l 205 86 l 205 86 l 203 84 l 203 84 l 203 84 l 205 83 m 102 164 l 102 164 l 102 165 l 103 166 l 103 165 l 102 164 m 226 69 q 228 68 227 70 l 230 68 l 229 69 l 229 69 l 228 70 l 227 71 l 227 70 l 227 70 l 226 69 l 226 69 l 226 69 m 221 73 l 222 74 l 222 74 l 219 75 l 220 74 l 220 74 l 221 73 m 209 90 l 208 90 l 208 90 l 208 90 l 208 89 l 208 89 l 205 88 l 205 89 l 205 90 l 205 90 l 205 91 l 203 92 l 203 93 l 203 93 l 204 94 q 203 97 203 96 l 203 98 l 202 98 l 201 96 l 200 97 q 201 98 201 98 l 199 99 l 201 100 l 201 100 l 200 100 q 199 101 200 100 l 199 97 l 199 96 q 201 94 199 96 l 202 96 q 203 94 203 94 l 201 94 q 203 90 203 91 l 203 91 l 204 90 l 203 90 l 203 90 l 202 91 l 202 91 l 201 90 l 202 87 l 203 87 q 209 90 205 86 m 211 81 l 212 83 q 216 83 214 84 q 215 85 214 85 l 216 87 l 216 87 l 216 86 l 215 87 l 214 90 q 212 89 213 88 l 212 88 l 211 87 l 211 87 q 211 92 212 90 l 211 92 l 211 92 q 211 90 212 91 l 209 90 l 210 89 l 208 87 l 205 85 l 206 85 l 207 84 l 208 83 l 210 83 l 210 83 l 210 81 l 211 81 m 233 66 l 233 68 l 233 68 q 231 68 232 67 q 231 66 230 67 l 233 66 m 223 74 l 223 74 l 222 75 l 222 74 l 223 74 m 220 75 l 224 77 l 223 78 q 224 81 222 79 l 221 82 l 221 82 l 223 79 l 222 79 q 222 77 222 79 l 219 76 l 220 75 m 219 76 l 220 77 l 220 78 l 220 77 l 220 78 l 220 79 l 222 79 l 220 79 l 220 80 l 221 79 l 221 79 l 221 81 l 221 81 q 218 81 219 82 q 218 77 216 79 l 219 76 m 203 88 l 204 89 l 205 88 l 205 88 l 203 88 m 103 168 l 102 168 l 103 169 l 104 168 l 103 168 m 236 66 l 237 67 l 235 68 l 234 66 q 236 66 234 66 m 216 80 l 216 81 l 215 81 l 216 81 l 215 82 l 214 81 l 216 80 m 239 63 l 239 64 l 240 65 l 240 65 l 237 64 l 237 64 l 239 63 m 211 85 l 210 85 l 210 87 l 211 85 l 211 85 m 104 169 l 104 170 l 104 170 l 105 170 l 105 170 l 105 170 l 104 169 m 104 172 l 104 172 l 104 173 l 105 172 l 106 172 l 104 172 m 104 173 l 105 174 l 106 174 l 106 174 l 106 173 l 104 173 m 225 80 l 225 80 l 225 80 l 226 81 l 227 80 l 227 80 q 226 83 225 81 l 226 83 l 224 81 l 225 80 m 202 98 l 202 98 l 201 99 l 201 99 l 202 98 m 224 83 l 225 83 l 225 83 l 224 83 l 224 83 l 224 83 l 224 83 m 218 87 q 223 86 219 87 l 222 85 l 224 83 l 225 85 l 225 85 l 224 83 l 225 83 l 228 83 l 228 83 l 229 85 l 229 85 l 228 86 l 229 85 q 228 89 230 87 l 228 89 l 227 90 q 225 88 227 90 q 225 90 224 89 l 224 90 l 224 90 l 222 91 q 222 93 221 92 l 220 94 l 220 95 l 220 93 l 218 94 l 220 93 l 219 92 l 217 92 l 218 91 l 219 90 q 217 90 218 89 l 217 90 l 217 88 l 217 88 l 217 88 l 218 87 l 218 87 m 219 94 l 218 95 q 215 92 218 96 l 214 93 l 214 92 q 218 95 215 91 l 219 94 m 242 71 l 242 71 l 241 72 l 244 73 l 245 74 l 243 75 l 243 74 l 243 74 q 240 73 242 73 l 239 71 l 242 71 m 214 94 l 213 95 l 216 97 l 214 98 l 214 97 l 214 96 l 211 94 l 214 94 m 267 50 l 267 52 l 269 53 l 269 51 l 268 50 l 267 50 m 223 86 l 224 87 l 225 87 l 224 86 q 223 86 224 86 m 239 75 l 240 77 l 241 77 l 241 77 l 239 76 l 239 75 l 239 75 m 220 90 l 220 90 l 220 90 l 222 90 l 222 90 l 222 90 l 220 90 m 219 96 l 219 96 l 218 96 l 218 96 l 219 96 m 231 87 l 232 88 l 231 89 l 231 88 l 231 88 l 230 87 l 231 87 m 192 123 l 195 125 l 194 126 q 190 126 192 125 l 190 126 l 191 124 l 192 123 m 181 134 l 182 133 l 182 134 l 181 135 l 181 134 m 201 119 l 201 119 l 201 120 l 201 120 l 201 120 q 201 125 200 124 q 202 127 203 127 l 201 128 l 199 125 l 197 123 q 197 122 198 123 l 198 121 l 200 120 l 201 119 m 191 129 l 191 128 l 191 128 l 195 128 l 195 130 l 195 130 l 195 130 q 195 125 194 126 l 198 130 l 199 130 l 198 135 l 197 136 l 197 136 l 199 137 l 198 138 l 197 137 l 196 138 l 197 138 l 196 139 l 195 138 l 194 138 l 195 138 l 194 136 l 193 137 l 194 138 l 193 138 l 193 138 l 193 138 l 193 139 l 193 139 q 187 134 190 138 l 186 133 l 186 132 l 187 133 l 188 134 l 188 134 l 188 134 l 189 134 l 189 135 l 190 134 l 188 132 q 189 130 190 131 l 190 130 l 190 130 l 191 129 l 191 129 m 183 134 l 185 136 l 186 137 l 186 138 l 186 138 l 188 139 l 187 140 l 187 140 l 185 140 l 184 140 l 183 140 l 183 138 l 182 138 l 183 136 l 182 135 l 182 135 l 182 135 l 183 134 m 212 115 l 211 115 l 212 116 q 212 119 212 117 l 210 120 q 208 118 209 118 l 207 117 l 207 116 q 212 115 210 113 m 204 121 q 207 121 205 122 l 208 122 l 210 125 l 214 130 l 214 131 l 212 129 l 212 130 q 214 132 213 132 l 214 131 l 214 130 l 215 131 l 216 133 l 216 133 l 216 133 l 214 134 l 210 137 l 210 137 l 208 136 l 209 136 l 206 134 l 207 132 l 204 132 l 205 132 l 205 131 l 203 131 l 202 130 l 205 130 l 205 130 q 205 128 204 129 l 205 127 l 202 125 l 202 123 l 202 123 q 204 123 203 124 l 204 122 l 204 122 l 203 121 l 203 121 l 204 121 m 275 65 l 275 66 l 275 66 l 276 67 l 277 66 l 276 65 l 276 65 l 275 64 l 275 65 m 182 141 q 184 141 183 142 l 184 141 l 182 143 l 182 143 l 182 143 l 183 144 l 182 144 l 182 144 l 181 142 l 182 141 m 191 134 l 190 134 l 190 136 l 191 137 l 191 136 l 191 135 l 191 134 m 197 130 l 197 131 l 197 132 l 198 131 l 197 130 m 218 113 l 219 115 l 219 115 l 220 115 l 220 114 l 220 114 l 218 113 m 216 117 l 216 117 l 216 119 l 218 120 l 219 121 q 216 124 219 122 l 216 122 l 215 123 l 215 123 l 215 123 l 214 123 l 216 123 l 216 125 l 216 125 l 214 125 l 213 123 q 214 118 211 121 l 215 117 l 216 117 m 191 137 l 192 138 l 192 138 l 192 137 l 191 137 m 225 113 l 224 114 l 225 115 l 226 115 l 225 113 m 201 134 l 203 136 l 201 136 l 201 135 l 201 134 m 229 113 l 229 115 l 229 115 l 231 116 l 231 113 l 229 113 m 224 119 l 223 121 l 224 121 l 225 121 l 226 123 l 227 123 l 227 122 l 225 120 l 225 120 l 224 119 m 222 124 l 223 126 l 224 127 q 227 127 226 129 l 228 129 l 227 130 l 227 130 l 226 130 l 225 131 l 226 130 l 226 129 l 224 130 l 223 131 l 222 130 l 220 134 l 219 133 q 220 131 221 132 l 221 130 l 222 131 l 222 131 l 222 130 l 220 130 q 222 125 221 129 l 221 125 l 221 125 l 222 124 m 189 151 l 189 151 l 189 153 l 190 153 l 191 154 l 191 154 l 191 153 l 192 152 l 193 153 q 189 157 189 157 l 189 157 l 188 157 l 189 158 l 189 158 l 188 160 l 187 159 l 189 151 m 211 134 l 211 136 l 212 136 l 212 135 l 211 134 m 207 141 l 208 142 l 207 141 l 206 142 l 206 143 q 203 144 205 142 l 203 143 l 203 143 q 207 141 207 141 m 202 144 l 201 144 l 201 144 q 206 143 204 144 l 208 144 l 208 144 l 207 145 l 207 145 l 207 145 l 205 146 l 205 146 l 201 144 l 202 144 m 179 163 l 180 165 l 180 165 l 179 164 l 179 163 m 204 147 l 203 149 q 200 148 201 149 q 204 147 202 146 m 121 210 q 121 216 119 212 l 123 216 l 124 216 l 121 211 l 121 210 l 121 210 m 225 132 l 226 133 l 220 134 l 220 134 l 220 134 q 225 132 224 134 m 182 165 l 182 166 l 182 165 l 183 166 l 183 168 l 184 168 l 184 165 l 184 165 l 184 167 l 184 170 l 184 170 l 184 169 l 183 168 l 181 167 l 181 165 l 182 165 m 205 149 l 206 150 l 205 151 l 204 149 l 205 149 m 229 131 l 229 132 l 226 133 l 226 133 l 227 132 l 229 131 m 238 126 l 237 127 l 237 127 q 236 127 237 127 l 235 128 l 235 129 q 231 130 232 129 l 231 129 l 233 127 l 238 126 m 183 168 l 182 171 l 184 170 l 184 171 l 183 172 l 182 171 l 182 171 l 182 172 l 182 169 l 183 168 m 205 151 q 207 151 206 151 l 208 151 l 206 152 l 205 152 l 204 151 l 205 151 m 244 124 l 243 125 l 242 125 q 239 126 241 124 l 239 125 l 239 125 q 244 124 243 123 m 220 149 l 220 149 l 219 151 l 218 152 q 217 152 218 153 l 216 150 l 214 151 q 212 146 212 146 l 212 146 l 220 149 m 205 153 l 206 153 q 205 156 205 155 l 206 157 l 206 157 l 204 155 l 204 154 l 205 153 m 153 195 l 155 197 l 152 197 l 151 197 l 153 196 l 152 195 l 153 195 m 207 153 l 208 154 l 207 156 l 207 156 l 207 156 q 207 153 206 155 m 214 147 l 214 149 l 215 149 l 216 148 l 216 147 l 214 147 m 302 82 l 302 82 l 302 83 l 303 83 l 302 82 l 302 82 m 184 176 l 184 177 l 184 178 l 182 178 l 182 178 l 182 177 l 184 176 m 312 74 q 313 77 314 77 l 313 78 l 314 79 l 313 80 l 312 79 l 311 80 l 312 81 l 311 81 l 311 81 l 309 80 l 309 80 l 310 81 l 309 82 l 310 81 l 311 82 l 309 83 l 307 83 l 307 83 l 306 84 l 305 85 l 307 87 l 305 87 q 304 87 304 87 l 304 90 l 304 90 q 302 88 302 88 l 303 90 l 302 90 l 302 89 l 302 88 l 302 89 l 300 90 l 300 90 l 300 92 l 300 92 l 299 91 l 298 92 l 298 92 l 299 92 l 299 92 q 298 94 298 93 l 298 94 l 298 94 l 296 96 l 295 102 l 296 105 l 294 105 l 296 109 l 296 109 l 292 108 l 292 109 l 292 110 l 291 111 l 290 110 l 289 112 l 289 112 l 288 114 l 287 114 q 286 117 285 115 l 286 117 l 286 117 q 286 123 284 121 l 285 123 q 283 122 283 122 q 283 125 284 124 l 286 125 l 284 126 l 283 127 l 283 127 l 283 127 l 283 127 q 281 130 280 130 l 281 132 l 284 133 l 286 130 q 288 130 287 131 l 288 132 l 289 132 l 289 132 l 287 133 l 288 134 q 291 133 290 134 l 290 132 l 291 132 l 292 132 l 291 133 l 294 133 l 294 132 l 294 133 l 294 133 l 294 132 l 291 130 l 291 130 l 292 129 q 294 130 293 130 l 294 130 l 294 129 l 294 129 l 295 132 q 297 132 296 131 l 297 132 l 298 132 l 298 132 l 297 131 l 296 131 l 296 131 l 296 130 l 299 130 l 300 130 l 300 129 l 300 129 l 300 130 l 301 129 l 301 129 q 299 128 299 128 l 298 129 l 298 130 l 298 129 l 298 128 q 294 127 297 129 q 294 125 295 126 l 294 125 l 295 126 l 296 125 l 295 125 l 294 125 l 294 125 q 296 124 294 124 l 296 124 l 296 123 l 295 123 l 295 123 l 294 122 q 295 121 296 122 l 294 121 l 294 121 l 294 120 l 294 120 l 297 122 l 296 123 l 298 123 l 297 122 l 297 122 l 299 124 l 300 122 l 301 124 l 302 125 l 303 125 l 303 123 l 303 123 l 303 125 l 303 125 l 302 124 l 301 124 l 302 123 l 302 123 l 297 121 l 296 119 l 296 119 l 300 121 l 301 121 l 301 120 q 301 121 301 120 l 302 122 l 302 122 l 302 123 l 304 122 l 304 122 l 304 122 l 303 121 l 302 120 l 301 119 l 301 119 l 301 119 q 304 119 302 119 l 304 119 l 304 119 l 304 119 l 306 116 l 304 116 q 304 113 306 115 l 305 113 l 307 114 l 307 114 l 307 116 l 308 116 l 307 117 l 310 117 l 310 117 l 310 115 l 311 116 l 312 115 l 311 115 l 313 115 l 313 114 l 315 112 q 317 111 315 113 q 319 112 319 113 l 320 109 l 323 108 q 324 106 322 107 l 323 105 l 323 105 l 325 104 l 325 102 l 327 102 q 330 97 329 100 l 331 98 l 332 97 l 333 94 l 333 94 l 333 94 q 338 81 339 83 l 336 79 q 336 74 337 79 l 336 74 l 337 75 l 338 75 l 338 73 l 338 73 q 329 75 332 73 q 326 75 328 74 l 326 75 q 323 75 326 75 l 323 75 l 322 75 l 321 76 l 321 76 q 320 77 321 76 l 317 73 q 312 74 315 72 m 220 152 l 223 153 l 223 153 l 223 153 l 223 153 q 220 154 222 155 l 219 153 l 220 152 m 311 83 l 310 85 l 309 85 l 309 85 l 311 83 m 281 106 l 281 106 l 281 108 l 281 108 l 283 108 l 283 108 l 283 106 l 283 106 l 281 106 m 226 153 l 227 154 l 226 155 l 225 153 l 226 153 m 315 87 l 317 92 l 317 92 l 316 92 l 317 93 l 315 93 q 314 96 317 94 q 313 100 315 98 l 314 102 l 313 101 l 313 102 l 313 102 l 313 102 l 313 104 l 312 104 q 311 106 311 106 l 311 107 l 309 106 l 309 106 q 307 110 309 107 l 307 109 q 307 103 309 104 l 307 103 l 309 104 q 311 99 312 101 l 313 98 q 311 92 313 94 l 313 91 l 313 92 l 313 94 l 313 94 l 313 94 l 314 93 l 314 93 q 315 89 316 91 q 315 87 313 87 m 193 183 l 193 184 l 193 184 l 193 183 l 193 183 m 214 170 l 215 170 l 215 168 l 216 168 l 216 170 l 215 171 l 212 172 l 213 172 q 210 172 211 171 q 210 169 210 171 q 214 170 214 170 m 231 153 l 231 155 l 231 156 l 230 155 l 230 155 l 231 154 l 231 154 l 231 153 m 191 186 l 191 186 l 191 186 l 191 185 l 192 186 l 192 186 l 191 187 l 191 186 m 195 182 l 196 183 l 195 185 l 195 184 q 195 182 195 184 m 233 154 l 236 154 q 235 157 237 156 l 234 157 l 234 155 l 233 155 l 232 155 l 233 154 m 159 212 l 159 214 l 156 214 l 158 218 l 159 218 l 160 219 l 163 223 l 165 222 l 164 221 l 165 222 l 165 222 l 166 220 l 166 221 l 165 222 l 165 222 q 171 221 167 223 l 170 219 l 169 219 l 169 219 l 169 219 l 168 220 l 165 220 l 165 220 q 163 220 163 220 l 162 220 l 160 216 l 159 217 l 159 216 l 159 216 l 159 216 l 159 216 l 158 216 l 158 216 l 159 216 l 159 216 q 159 212 160 213 m 185 193 l 185 194 l 185 194 l 187 193 l 185 193 m 212 174 l 212 174 l 211 175 l 210 174 l 212 174 m 217 169 l 218 170 l 217 170 l 216 170 l 217 169 m 311 96 l 312 97 l 311 98 l 311 98 l 311 96 l 311 96 m 338 76 l 338 77 l 338 77 l 338 77 l 339 77 l 338 76 m 251 148 l 250 147 l 252 146 l 254 145 l 254 145 l 253 146 l 253 146 l 252 146 l 251 148 l 251 148 l 249 149 l 246 150 l 246 150 l 251 148 m 327 86 l 328 87 l 328 87 l 327 89 l 326 88 l 327 86 m 324 90 l 326 91 l 326 91 l 324 90 l 324 90 m 328 87 l 331 90 l 331 90 q 328 87 330 90 l 328 87 l 328 87 m 318 97 l 319 98 l 318 98 l 319 99 l 320 100 q 317 100 318 102 q 317 98 319 99 l 318 97 m 323 93 l 324 94 q 323 96 323 94 l 323 96 q 321 95 323 96 l 322 94 l 323 94 l 323 94 l 322 94 l 323 93 m 316 99 l 317 100 l 316 100 l 315 100 l 316 99 m 203 188 l 203 188 q 203 191 202 189 l 203 188 l 203 188 m 326 92 l 327 93 l 328 94 l 328 94 l 328 94 l 328 93 l 328 93 l 328 94 q 326 95 327 96 l 326 94 l 327 94 l 327 94 l 326 94 l 326 94 l 325 94 l 326 93 l 327 93 l 327 93 l 326 92 m 286 124 l 286 125 l 285 125 l 286 124 l 286 124 m 205 188 l 205 188 l 205 189 l 205 189 l 205 189 l 205 188 l 205 188 m 332 92 l 332 92 l 332 92 q 330 92 331 91 l 330 91 l 330 90 q 332 92 330 90 m 317 100 l 317 100 l 317 103 l 317 104 l 316 102 l 315 102 l 317 101 l 317 100 m 228 171 l 228 171 l 228 171 l 227 172 l 227 172 l 227 172 l 228 171 m 288 124 l 289 125 l 289 127 l 288 125 q 288 124 288 125 l 288 124 m 283 127 l 285 129 l 285 130 l 283 128 l 283 128 l 283 130 l 283 130 l 283 130 l 284 131 l 284 131 l 282 130 l 283 127 m 323 98 l 323 98 l 321 100 l 322 98 l 322 98 l 323 98 m 324 96 l 325 97 l 324 98 l 323 97 l 324 96 m 298 117 l 298 119 l 297 119 l 299 120 l 299 120 l 298 121 l 296 118 l 296 118 l 297 119 l 298 119 l 298 117 m 233 170 l 234 170 l 232 171 l 231 170 l 232 169 l 233 170 m 216 182 l 215 182 l 216 183 l 216 183 l 216 182 m 236 168 q 237 167 236 168 l 238 167 l 238 167 l 237 168 l 238 168 l 237 168 q 235 168 236 168 l 235 168 l 236 168 m 217 182 l 217 182 q 222 181 217 182 l 222 180 l 217 182 m 202 194 l 202 194 l 202 194 l 203 194 l 203 194 l 203 193 l 202 194 m 302 117 l 302 117 l 301 117 l 300 117 l 302 117 m 281 134 l 281 135 l 281 135 l 281 134 l 281 134 m 256 153 l 257 153 l 257 153 l 258 153 l 258 153 q 260 153 260 154 l 260 154 l 260 155 l 262 155 l 262 155 l 262 153 l 262 154 l 263 153 l 263 153 l 264 153 l 264 153 l 264 153 l 263 153 l 262 156 q 260 155 261 154 l 261 157 l 262 156 l 262 157 q 258 155 260 159 l 257 156 l 257 157 l 255 158 l 254 157 l 254 157 l 254 156 l 254 156 l 254 155 l 254 155 l 254 155 l 256 153 m 239 166 l 239 167 l 239 168 l 239 168 l 239 166 l 239 166 m 242 165 l 245 165 l 245 165 l 245 165 l 245 165 q 241 166 242 167 l 241 166 l 242 165 m 274 140 l 274 140 l 274 140 l 273 140 q 273 143 273 140 l 273 143 l 274 142 l 274 142 l 275 142 l 274 144 l 275 143 l 275 143 l 276 142 l 276 142 l 276 142 l 275 142 l 275 142 l 275 139 l 274 140 l 274 140 m 215 186 l 215 186 l 216 187 l 216 186 l 215 186 m 307 116 l 306 116 l 307 117 l 307 117 l 307 116 m 269 146 l 269 149 l 269 149 l 267 148 l 268 147 l 269 146 m 280 138 l 279 138 l 281 140 l 281 140 l 280 138 m 304 119 q 304 121 305 119 l 304 121 l 304 121 l 310 120 l 309 119 l 308 119 l 308 119 l 307 119 l 306 120 l 305 119 l 304 119 l 304 119 m 233 178 l 233 178 l 231 179 l 231 178 l 232 177 l 233 178 m 298 127 l 298 127 l 298 127 l 299 127 l 298 127 m 231 182 l 231 182 q 227 182 228 183 l 229 180 q 231 182 229 180 m 202 202 l 203 203 l 203 204 l 202 203 l 202 202 m 289 134 l 290 134 l 291 134 l 290 134 l 290 134 l 289 134 m 269 151 l 270 151 l 267 152 l 267 152 l 269 151 m 222 186 l 222 187 l 224 187 l 223 186 l 223 186 l 222 186 l 222 186 m 266 153 l 267 154 l 267 154 l 264 156 l 263 155 l 266 153 m 268 153 l 269 153 l 269 153 l 269 153 l 267 153 l 268 153 l 268 153 m 239 176 l 239 177 l 239 177 l 238 176 l 238 176 l 239 176 m 217 193 l 220 194 l 218 195 l 218 195 q 215 195 216 195 l 217 194 l 217 194 l 217 193 l 217 193 m 294 133 l 292 134 l 293 134 l 294 134 l 294 133 m 268 154 l 268 154 l 268 155 l 267 155 l 268 154 m 260 164 l 260 165 l 260 165 l 259 165 l 260 164 m 203 209 l 205 209 l 205 210 q 204 214 204 211 l 204 212 l 203 213 l 203 215 l 202 214 q 203 209 201 213 m 247 180 l 245 181 l 245 182 l 245 182 l 243 182 l 242 181 l 243 180 q 247 180 246 179 m 239 193 q 243 193 239 194 l 242 194 l 242 194 l 243 193 l 244 195 l 243 195 q 241 194 242 195 l 239 195 l 239 195 l 239 193 m 342 117 l 342 118 l 342 119 l 343 119 l 343 119 l 344 118 l 343 117 l 342 117 l 342 117 m 500 1160 l 517 1155 l 522 1160 l 522 1158 l 514 1147 q 498 1152 498 1148 l 500 1160 m 172 1120 q 180 1106 178 1120 q 175 1093 180 1093 l 178 1090 l 178 1082 l 172 1082 l 170 1093 l 172 1120 m 208 1071 l 229 1065 l 229 1071 l 232 1071 l 251 1049 l 251 1041 q 243 1036 251 1036 l 245 1033 l 245 1030 q 237 1017 242 1017 l 232 1025 l 240 1033 l 240 1044 l 237 1044 q 221 1033 237 1033 l 221 1038 l 227 1044 q 210 1065 227 1065 l 210 1060 l 205 1060 l 205 1063 l 208 1071 m 9 1065 l 12 1065 l 12 1063 l 4 1055 l 4 1060 l 9 1065 m 227 1063 l 227 1060 l 232 1055 l 235 1055 l 235 1060 l 227 1063 m 18 1063 l 23 1057 l 20 1055 l 18 1055 l 18 1063 m 235 1052 l 232 1044 l 232 1041 l 235 1041 l 237 1049 l 237 1052 l 235 1052 m 7 1052 l 7 1044 l 1 1044 l 1 1046 l 7 1052 m 58 1041 l 61 1038 l 61 1036 l 53 1025 l 66 1011 l 75 1014 l 75 1011 q 66 1006 75 1006 l 69 998 l 66 989 l 80 989 l 83 992 l 85 989 l 107 989 l 107 995 l 110 995 l 110 989 l 132 989 l 132 995 l 134 995 l 134 989 l 137 989 l 159 1006 l 161 1006 l 164 1003 l 167 1006 l 170 1006 q 178 989 178 1003 l 240 989 l 237 992 l 237 1000 l 240 1000 l 248 992 l 243 992 l 243 989 l 248 989 l 251 992 l 251 987 l 254 987 l 262 989 l 267 979 l 264 954 l 270 949 l 270 941 l 264 932 l 267 911 l 259 903 l 259 895 l 264 886 l 264 846 l 259 838 l 259 835 l 262 824 l 259 813 l 259 808 l 262 805 l 262 802 l 264 805 l 267 805 q 273 797 273 805 l 275 797 q 286 813 281 797 l 297 816 l 300 813 l 305 813 q 324 832 305 819 l 327 832 l 330 829 l 332 832 l 335 832 q 343 816 343 829 l 343 810 l 338 805 l 332 805 l 330 821 l 316 821 q 308 808 316 808 l 308 805 l 313 800 q 319 808 319 800 l 327 810 l 330 808 l 324 791 l 324 789 l 335 778 l 343 783 l 349 767 l 340 767 l 346 756 l 343 753 l 340 753 l 338 756 l 335 753 l 324 753 l 316 759 l 313 756 l 313 753 l 316 729 l 313 726 l 311 729 l 300 729 q 294 718 300 718 l 289 718 l 289 724 l 300 734 l 297 743 l 275 732 l 275 737 l 267 732 l 264 734 l 264 729 q 286 718 286 724 l 286 715 l 283 715 l 281 718 l 278 718 l 278 710 l 283 710 l 283 699 l 281 696 l 281 694 l 283 694 l 292 696 l 302 675 l 297 669 l 302 661 l 292 661 l 300 650 l 308 653 l 308 656 l 305 659 l 305 661 l 313 661 l 313 653 l 316 653 q 321 661 316 661 l 327 653 l 327 648 l 316 645 l 319 648 l 319 650 l 316 650 l 289 631 l 286 634 l 281 634 l 281 629 q 289 623 289 629 l 289 621 l 283 621 l 281 623 l 278 623 l 278 618 l 283 607 l 286 610 l 289 610 l 305 602 l 308 602 q 313 612 308 612 l 316 612 q 324 607 316 607 l 324 599 l 327 599 l 338 602 l 357 591 l 384 599 l 389 593 l 389 596 l 387 607 q 392 599 392 607 l 395 596 l 397 596 q 406 615 406 606 l 414 615 l 414 610 q 397 591 408 591 l 397 588 l 403 580 l 403 577 l 397 572 l 395 572 l 387 577 l 381 577 l 381 574 l 395 555 l 395 553 l 392 553 q 381 566 381 558 l 376 566 l 376 564 q 389 545 382 545 l 387 536 l 387 531 l 389 523 l 387 523 l 378 526 l 395 512 l 397 512 l 397 517 l 395 520 l 395 523 l 400 523 l 400 517 l 395 493 l 392 493 l 389 496 l 387 496 l 381 490 l 378 493 l 378 488 l 373 488 l 373 493 q 351 471 366 493 l 351 452 l 346 452 l 346 474 l 340 474 l 346 490 l 343 493 l 340 493 l 335 488 l 332 488 l 327 493 l 327 498 l 330 496 l 338 496 l 330 504 l 327 504 l 327 498 l 311 528 q 305 536 305 528 l 302 536 l 302 528 l 308 512 l 308 509 l 300 509 l 300 523 q 292 509 292 523 l 289 509 l 286 512 l 283 512 l 281 509 l 281 512 l 270 507 q 259 528 259 507 l 248 515 l 245 515 l 245 501 q 237 496 245 496 l 237 485 l 243 485 l 240 463 l 243 450 l 237 412 q 245 401 239 401 l 245 395 q 235 385 239 395 l 235 382 q 243 376 243 382 l 243 371 l 235 360 l 235 357 l 245 319 q 259 309 254 319 l 256 292 q 273 271 273 281 l 267 271 l 267 276 q 245 254 260 276 l 245 235 l 240 235 l 240 257 l 235 257 l 240 273 l 237 276 l 235 276 l 229 271 l 227 271 l 221 276 l 221 281 l 224 279 l 232 279 l 224 287 l 221 287 l 221 281 l 205 311 q 199 319 199 311 l 197 319 l 197 311 l 202 295 l 202 292 l 194 292 l 194 306 q 186 292 186 306 l 183 292 l 180 295 l 178 295 l 175 292 l 175 295 l 164 290 q 153 311 153 290 l 142 298 l 121 290 l 118 292 l 113 276 l 107 281 l 107 290 q 132 333 132 315 l 129 336 l 132 338 l 134 336 l 140 336 l 145 341 l 145 344 l 132 347 l 115 325 l 113 325 l 113 330 l 107 330 l 110 317 l 99 317 l 99 325 l 88 317 l 80 317 q 75 328 75 317 l 72 328 q 50 306 72 311 l 50 298 q 58 292 50 292 l 58 271 l 56 271 l 56 279 l 53 276 l 47 276 l 47 295 l 42 295 l 42 322 l 37 322 l 37 328 q 56 352 48 352 l 56 357 l 53 360 l 56 363 l 56 366 l 50 374 l 50 382 q 61 387 50 387 l 56 406 l 58 409 l 58 412 l 56 422 l 66 422 l 64 458 l 66 520 q 58 564 58 520 l 58 585 l 56 585 l 45 580 q 15 602 31 580 q -12 618 1 602 q 7 699 -12 675 q 23 791 23 734 q 37 816 37 806 l 34 816 q -42 859 -25 832 l -42 873 q -64 897 -51 873 l -64 900 q -45 935 -64 918 l -37 935 l -37 930 l -34 930 l -26 932 q -39 941 -26 939 l -39 946 q -26 954 -26 946 q -7 946 -16 946 l 4 968 l 9 973 l 9 987 l 1 987 l 1 992 l 9 992 q 15 981 15 992 l 31 989 l 31 987 l 47 989 q 39 1014 45 1014 l 37 1011 l 37 1008 l 39 1000 l 34 1000 l 28 1014 l 28 1017 l 34 1027 l 42 1027 l 42 1019 l 47 1019 q 58 1041 47 1037 m -23 1036 l -12 1036 l -9 1025 l -12 1022 l -15 1022 l -23 1030 l -23 1036 m 202 1030 l 205 1027 l 205 1025 q 186 1000 186 1006 l 180 1000 l 180 1014 q 202 1030 188 1014 m 368 1025 l 370 1025 q 392 1017 391 1025 l 387 1011 l 368 1011 l 362 1017 l 362 1019 l 368 1025 m 151 995 l 151 989 l 164 989 l 164 995 l 151 995 m -4 984 l 1 979 l -1 965 l -15 976 l -4 984 m 338 946 q 346 932 344 946 q 340 919 346 919 l 343 916 l 343 908 l 338 908 l 335 919 l 338 946 m -47 922 l -53 916 l -53 913 l -47 913 l -45 916 l -45 922 l -47 922 m -45 911 l -45 908 l -39 908 l -31 911 l -31 916 l -45 911 m -28 884 l -31 881 l -31 870 l -28 870 l -23 876 l -23 878 l -28 884 m -1 867 l -1 862 l 9 862 l 9 870 l -1 867 m 368 857 l 370 854 l 370 851 q 351 827 351 832 l 346 827 l 346 840 q 368 857 353 840 m 286 800 l 286 797 l 294 805 l 294 808 l 286 800 m 278 756 l 281 748 l 283 748 l 297 762 l 294 772 l 292 770 q 286 759 286 770 l 278 756 m 416 772 l 422 772 q 441 743 422 765 l 438 734 l 441 734 q 476 718 476 730 q 511 694 502 713 l 511 688 l 498 675 q 541 634 498 665 l 536 629 l 538 626 l 538 621 l 525 623 l 525 621 q 533 612 525 612 l 536 610 l 536 599 l 533 599 l 522 607 l 525 610 l 525 612 q 509 623 509 618 l 525 626 l 525 629 q 506 648 513 629 l 509 650 l 503 656 l 506 659 q 476 686 496 660 q 463 680 463 686 l 471 664 l 476 664 l 479 667 l 481 667 q 490 648 481 657 l 490 645 l 471 645 l 473 659 l 471 659 l 468 656 q 460 667 460 656 l 457 675 q 425 699 425 686 l 416 694 l 414 694 q 400 702 414 701 l 384 694 l 381 694 q 376 707 381 707 l 343 702 l 332 724 l 335 724 l 346 715 l 351 715 q 338 732 349 727 l 340 740 l 343 740 l 357 732 l 365 734 l 365 732 q 395 724 365 726 l 397 726 l 414 707 l 416 710 l 425 710 l 433 705 l 441 707 l 441 702 l 438 699 l 438 696 l 441 694 l 444 694 l 446 696 l 449 696 q 460 686 460 694 q 473 694 473 686 l 476 694 l 473 696 l 473 699 l 476 702 l 476 705 l 471 710 l 473 713 l 471 713 l 463 710 l 460 713 q 454 705 460 705 l 444 715 l 452 715 l 452 710 l 454 710 l 457 721 l 454 724 l 435 718 l 438 732 q 427 743 427 732 l 422 743 l 425 740 q 416 724 421 724 l 411 729 l 411 732 l 414 729 l 416 729 l 419 740 l 408 748 l 414 748 l 422 745 l 422 748 q 406 759 418 759 l 406 764 l 408 764 l 411 762 l 414 762 l 416 772 m 264 756 l 256 732 q 275 748 270 748 l 275 756 l 264 756 m 294 753 l 305 743 l 308 743 l 308 745 l 300 753 l 294 753 m 319 748 l 324 748 q 332 743 324 743 l 335 732 l 332 732 q 319 740 319 735 l 319 748 m 351 726 l 359 718 l 362 718 l 362 726 l 351 726 m 463 705 l 468 705 l 465 702 l 468 699 l 468 694 l 463 694 l 463 705 m 283 686 l 283 675 l 286 675 l 286 686 l 283 686 m 311 683 l 319 683 l 313 677 l 311 677 l 311 683 m 338 664 l 340 661 l 340 659 l 338 656 l 335 656 l 332 659 l 332 661 l 335 664 l 338 664 m 259 653 l 259 645 l 264 640 l 264 648 l 259 653 m 273 653 l 270 645 l 273 637 l 286 640 l 286 642 q 278 650 278 642 l 275 653 l 273 653 m 471 637 l 471 634 l 465 629 l 463 629 l 463 634 l 471 637 m 311 634 l 313 634 l 313 631 l 311 623 l 305 623 l 305 629 l 311 634 m 500 634 l 500 631 l 492 623 l 492 621 l 479 621 l 479 626 l 500 634 m 31 626 l 53 599 l 58 599 l 58 615 q 39 626 54 626 l 31 626 m 427 629 l 430 626 l 425 618 l 427 615 l 427 610 l 425 610 l 419 615 l 419 621 l 427 629 m 340 623 l 346 623 l 351 618 l 351 612 l 346 612 q 340 604 346 604 l 340 607 l 343 610 l 340 612 l 340 623 m 278 602 l 275 599 l 275 596 l 283 596 l 278 602 m 264 566 l 267 564 l 267 561 l 262 539 q 273 523 267 523 l 273 539 l 267 539 l 267 542 l 273 547 l 275 547 l 275 536 l 278 539 l 281 539 l 278 550 l 281 564 l 275 569 l 275 574 l 281 574 l 281 583 l 264 566 m 248 574 l 248 569 l 256 569 l 256 574 l 248 574 m 359 569 l 359 558 l 362 558 l 362 569 l 359 569 m 248 566 l 248 555 l 251 555 l 251 566 l 248 566 m 346 553 l 349 545 l 351 545 l 351 553 l 346 553 m 321 528 l 321 517 q 327 509 327 517 l 330 509 l 332 520 l 330 531 l 321 528 m 338 523 l 332 512 q 340 507 340 512 l 343 507 l 343 517 l 338 523 m 292 504 l 297 504 l 302 493 l 294 493 l 294 501 l 292 498 l 286 498 l 292 504 m 414 498 l 416 490 l 414 474 l 416 466 l 411 460 q 419 450 419 460 l 422 452 l 425 452 l 433 441 l 433 439 l 427 433 l 425 433 q 419 441 419 433 l 416 444 l 414 444 l 397 439 l 400 420 l 397 417 l 395 417 q 389 428 389 417 q 362 439 362 428 l 365 469 q 373 474 373 469 l 373 477 l 368 477 l 368 482 l 370 482 q 381 450 381 482 l 384 450 q 414 498 384 466 m 64 412 l 64 409 l 66 409 l 75 412 l 69 417 l 64 412 m 319 401 l 321 398 l 321 393 l 319 393 l 313 398 l 316 401 l 319 401 m 39 393 l 45 393 l 45 379 l 39 379 l 39 393 m 64 357 q 75 341 70 341 l 77 341 l 77 344 l 72 360 l 69 360 l 66 357 l 64 357 m 156 322 q 167 306 161 306 l 167 322 l 161 322 l 161 325 l 167 330 l 170 330 l 170 319 l 172 322 l 175 322 l 172 336 l 175 344 l 164 344 q 156 322 158 344 m 45 336 l 45 319 l 53 322 l 53 328 l 45 336 m 216 311 l 216 300 q 221 292 221 300 l 224 292 l 227 303 l 224 314 l 216 311 m 232 306 l 227 295 q 235 290 235 295 l 237 290 l 237 300 l 232 306 m 186 287 l 191 287 l 197 276 l 189 276 l 189 284 l 186 281 l 180 281 l 186 287 m 197 248 l 200 248 q 214 210 211 248 l 195 191 l 189 191 l 189 194 l 195 199 l 192 202 l 192 205 l 195 235 q 203 240 203 235 l 203 243 l 197 243 l 197 248 m 67 245 l 73 245 l 73 237 l 67 237 l 67 245 z "},"\"":{"ha":286,"x_min":3,"x_max":279,"o":"m 9 1006 l 28 1006 l 69 1002 l 81 1006 l 94 1004 l 109 1006 q 127 985 127 989 l 125 915 l 127 895 q 115 829 119 876 q 90 795 100 802 l 53 795 l 37 800 l 28 798 l 20 827 l 20 837 q 7 892 20 863 l 3 962 l 5 996 l 3 1002 l 9 1006 m 160 1006 l 168 1006 l 259 1004 l 277 1006 l 279 1000 l 277 989 l 279 970 l 279 942 l 273 936 l 279 913 l 279 911 q 255 810 279 869 q 250 795 255 795 l 184 798 q 156 948 174 798 l 160 960 l 156 975 l 156 1002 l 160 1006 z "},"#":{"ha":744,"x_min":0,"x_max":829,"o":"m 236 971 q 245 956 243 971 q 239 941 245 941 l 242 938 l 242 929 l 236 929 l 233 941 l 236 971 m 342 959 l 351 953 l 354 956 l 360 941 l 366 941 l 366 950 l 378 941 l 378 923 q 369 895 369 911 l 375 878 q 363 865 372 865 l 363 859 q 378 826 372 850 q 396 814 391 826 l 396 811 l 369 789 q 342 753 369 780 q 354 732 351 753 q 363 726 363 732 l 363 720 l 345 717 l 348 732 q 336 744 336 732 l 330 744 l 333 741 l 321 708 l 321 705 l 323 708 l 333 708 l 342 702 l 351 705 l 351 699 l 348 696 l 348 693 l 351 690 l 354 690 l 357 693 l 360 693 q 372 681 372 690 l 390 687 l 390 681 q 375 675 375 681 l 384 656 l 390 656 l 393 660 l 396 660 q 406 638 396 650 l 406 635 l 384 635 l 387 650 l 384 650 l 381 648 q 372 660 372 648 l 369 669 q 333 696 333 682 l 321 687 l 317 690 l 305 642 l 309 638 l 309 635 l 300 596 l 311 596 l 336 593 l 360 596 l 366 596 l 378 593 l 390 596 l 399 596 l 402 593 l 406 593 l 408 596 l 408 599 l 435 593 l 445 596 q 427 608 445 601 l 427 611 l 445 614 l 445 617 q 423 638 431 617 l 427 642 l 420 648 l 423 650 q 393 677 410 654 l 393 681 l 396 681 q 439 638 410 679 q 454 626 448 638 l 454 617 l 445 608 q 469 593 445 597 l 481 596 l 487 590 q 508 596 494 596 l 529 665 l 524 671 l 524 677 l 538 726 l 535 738 q 553 795 545 795 l 551 811 l 551 814 l 559 823 l 593 817 l 596 820 l 596 823 l 641 820 l 653 820 l 663 811 l 653 802 l 656 787 l 656 783 l 653 783 l 650 787 l 647 787 l 647 768 l 653 768 q 638 732 652 750 l 641 723 q 608 608 632 647 l 608 605 l 611 608 l 614 608 q 647 590 614 593 l 650 593 l 650 596 l 671 593 l 711 596 l 714 587 l 708 557 l 714 557 l 714 532 q 747 545 747 537 l 756 538 l 753 517 l 747 517 l 735 520 l 635 490 q 617 451 632 451 l 617 445 l 620 441 l 620 439 l 614 433 l 614 429 l 620 429 l 620 420 q 608 412 620 412 l 611 408 l 608 406 l 608 402 l 611 369 l 602 348 q 614 330 608 330 l 632 333 l 635 330 l 644 333 l 647 330 l 650 330 l 665 336 l 665 333 l 669 336 l 677 336 l 686 330 l 692 336 l 750 336 q 759 311 756 336 l 753 260 l 759 239 q 741 224 758 224 l 735 224 l 699 230 l 686 227 l 647 230 l 644 227 l 644 224 l 632 227 q 578 215 578 227 q 563 197 578 197 l 563 194 l 568 188 q 541 58 557 104 l 545 48 q 511 0 545 0 l 508 3 l 508 6 l 496 3 l 472 6 l 427 0 l 423 3 l 460 170 l 469 224 l 435 224 l 414 230 l 396 224 l 393 224 l 387 230 l 354 224 l 333 230 l 330 227 l 327 227 l 311 230 l 290 227 l 281 230 l 275 224 l 260 224 q 248 209 260 209 l 251 194 l 251 188 l 227 73 l 224 70 l 221 70 l 224 66 l 224 64 q 218 37 222 37 l 221 33 q 209 0 216 0 l 188 0 l 178 6 l 176 3 l 176 0 l 118 6 l 106 3 l 103 3 l 103 6 q 115 42 103 19 l 112 52 q 136 149 127 138 l 133 157 l 149 224 l 75 227 l 66 224 l 64 227 l 60 227 l 48 224 l 45 227 l 45 242 l 48 254 l 45 267 l 48 267 l 45 269 l 45 272 l 48 294 l 45 333 l 54 336 l 58 333 l 73 336 l 81 336 l 91 333 l 106 336 l 112 336 l 142 333 l 170 336 l 172 336 l 182 385 l 178 385 l 176 393 l 145 387 l 142 390 l 154 427 q 130 478 146 454 l 127 478 l 127 469 l 133 451 l 133 448 l 124 448 l 124 463 q 115 448 115 463 l 112 448 l 109 451 l 106 451 l 103 448 l 103 451 l 91 445 q 79 469 79 445 l 66 454 l 42 445 l 39 448 l 33 429 l 27 435 l 27 445 q 52 484 52 471 l 52 487 l 42 487 l 33 481 l 27 487 l 27 484 l 31 475 l 18 475 l 18 481 l 21 484 l 21 487 l 6 484 l 0 490 l 3 493 l 0 505 l 3 551 l 0 559 q 6 569 6 559 l 0 590 l 3 593 l 6 593 l 9 590 l 15 596 l 27 596 l 45 590 l 52 596 l 60 590 l 66 596 l 70 593 l 73 596 l 85 596 l 97 590 l 118 593 l 127 590 q 145 602 127 595 l 145 605 l 142 605 l 139 602 l 136 602 l 136 608 l 142 608 q 149 617 142 617 l 154 608 l 154 602 q 145 596 145 602 l 145 593 q 154 587 154 593 l 166 596 l 176 587 l 178 587 q 191 596 178 596 l 203 626 l 203 629 l 197 629 l 197 642 l 203 660 l 205 660 l 203 663 l 203 671 l 215 687 l 209 705 l 218 729 l 215 747 l 221 756 l 212 762 l 209 760 l 209 756 l 212 729 l 209 726 l 205 729 l 193 729 q 188 717 193 717 l 182 717 l 182 723 l 193 735 l 191 744 l 166 732 l 166 738 l 157 732 l 154 735 l 154 729 q 178 717 178 723 l 176 714 q 121 756 121 729 l 112 760 l 112 768 l 118 777 l 121 774 l 127 774 l 124 777 l 124 783 l 133 783 l 133 774 l 136 774 l 139 777 l 142 777 l 145 774 l 145 781 q 136 787 136 781 l 136 793 q 160 814 146 814 l 163 805 l 166 805 q 178 823 172 805 l 191 826 l 193 823 l 199 823 q 221 844 199 830 l 224 844 l 227 841 l 230 844 l 233 844 q 245 823 238 844 l 251 823 l 251 820 l 254 823 l 263 823 l 272 820 l 288 823 l 311 823 l 309 838 l 323 841 l 317 847 l 315 847 l 315 841 l 311 841 l 305 847 l 315 850 l 315 853 q 302 865 308 853 l 311 874 l 311 886 l 309 886 q 290 874 309 874 l 290 880 l 296 886 q 278 911 296 911 l 278 905 l 272 905 l 272 907 l 275 917 l 300 911 l 300 913 l 294 923 l 296 932 l 290 932 l 296 938 l 305 923 l 311 923 l 305 932 l 311 938 l 317 932 l 317 923 l 315 920 l 315 917 l 321 917 q 342 950 321 936 l 336 950 l 336 953 l 342 959 m 296 907 l 296 905 l 302 899 l 305 899 l 305 905 l 296 907 m 305 895 l 302 886 l 302 884 l 305 884 l 309 892 l 309 895 l 305 895 m 323 878 l 330 865 l 327 856 l 333 856 l 336 865 l 330 871 l 330 880 l 333 884 l 333 886 l 330 886 q 323 878 323 886 m 269 871 l 272 868 l 272 865 q 251 838 251 844 l 245 838 l 245 853 q 269 871 253 853 m 315 868 l 315 862 l 321 856 l 323 865 l 315 868 m 330 844 l 327 832 l 333 832 l 333 844 l 330 844 m 212 832 q 203 817 212 817 l 203 814 l 209 808 q 215 817 215 808 l 224 820 l 227 817 l 221 799 l 221 795 l 230 787 q 236 814 230 808 q 227 832 227 814 l 212 832 m 184 817 l 178 808 l 178 805 l 184 811 l 188 808 l 193 808 l 193 814 l 184 817 m 124 814 l 133 814 l 136 802 l 130 802 l 124 814 m 121 802 l 124 802 l 124 793 l 115 783 l 112 783 l 112 793 l 121 802 m 342 789 l 336 772 l 339 768 l 336 766 l 339 762 l 345 762 l 339 774 l 345 781 l 345 789 l 342 789 m 170 760 l 172 750 l 176 750 l 191 766 l 188 777 l 184 774 q 178 762 178 774 l 170 760 m 154 760 q 133 744 154 744 q 149 732 134 738 q 166 750 157 750 l 166 760 l 154 760 m 188 756 l 199 744 l 203 744 l 203 747 l 193 756 l 188 756 m 372 720 q 381 714 372 714 l 381 708 l 378 708 l 375 711 l 372 711 q 366 702 372 702 l 354 714 l 363 714 l 363 708 l 366 708 q 372 720 366 720 m 375 702 l 381 702 l 378 699 l 381 696 l 381 690 l 375 690 l 375 702 m 384 626 l 384 623 l 378 617 l 375 617 l 375 623 l 384 626 m 417 623 l 417 621 l 408 611 l 408 608 l 393 608 l 393 614 l 417 623 m 166 621 l 170 617 l 170 614 l 166 611 l 163 611 l 160 614 l 160 617 l 163 621 l 166 621 m 817 538 l 820 538 l 829 530 l 820 524 l 810 532 l 817 538 m 814 499 l 817 499 l 814 484 l 814 481 q 826 472 814 472 l 826 454 q 817 433 826 444 l 829 418 l 829 414 q 750 441 776 429 l 783 481 l 802 481 q 814 499 802 493 m 269 481 l 272 466 l 260 441 l 260 435 l 263 439 l 266 439 l 266 435 l 305 445 l 284 336 l 381 336 l 393 333 l 406 336 l 435 330 l 454 333 l 481 327 q 493 336 481 336 q 502 363 495 363 l 499 366 q 514 414 507 414 l 511 429 l 524 469 l 481 463 l 481 478 l 484 481 l 484 484 q 463 490 463 484 q 429 484 451 484 l 420 484 l 393 490 l 393 487 l 390 490 l 387 490 q 366 484 380 484 l 366 481 l 372 451 l 348 441 l 345 441 l 345 435 l 348 433 l 348 429 l 345 429 l 336 435 l 330 435 l 315 433 l 290 460 l 290 466 l 300 478 l 300 481 q 290 490 290 481 l 269 481 m 81 487 l 81 484 q 94 463 86 463 l 94 481 l 87 487 l 81 487 m 149 469 l 149 457 l 154 451 l 157 451 l 160 460 l 157 472 l 149 469 m 375 451 l 378 451 q 412 435 397 451 l 408 433 l 406 433 q 375 451 375 446 m 115 441 l 121 441 l 127 429 l 118 429 l 118 439 l 115 435 l 109 435 l 115 441 m 54 414 l 60 414 l 60 406 l 54 406 l 54 414 z "},"$":{"ha":547,"x_min":-14,"x_max":741,"o":"m 342 1052 l 345 1049 l 345 1044 l 336 1044 l 336 1046 l 342 1052 m 374 1049 q 388 1041 388 1046 l 388 1038 l 382 1038 q 393 1030 382 1030 l 396 1027 l 396 1019 l 385 1019 q 374 1033 385 1033 l 366 1025 l 363 1025 l 363 1027 q 374 1049 372 1035 m 331 1044 l 334 1044 l 334 1041 l 328 1027 l 331 1025 l 334 1025 l 334 1033 l 336 1030 l 339 1030 l 334 1011 q 347 989 336 1000 l 350 989 l 345 984 l 339 984 q 323 998 339 991 l 320 1030 q 331 1044 326 1042 m 429 1038 l 431 1036 l 431 1033 l 423 1022 l 437 1008 l 445 1011 l 445 1008 q 437 1003 445 1003 l 439 995 l 437 987 q 453 965 453 976 l 448 965 q 437 979 448 973 l 437 973 l 442 957 q 423 927 423 941 l 426 924 l 429 924 l 429 927 l 431 924 l 437 924 l 437 927 l 431 927 l 431 935 l 437 943 l 439 941 l 445 941 l 442 943 l 442 949 l 450 949 l 450 941 l 453 941 l 456 943 l 458 943 l 461 941 l 461 946 q 453 951 453 946 l 453 957 q 475 976 463 976 l 477 968 l 480 968 q 491 984 486 968 l 502 987 l 505 984 l 510 984 q 529 1003 510 991 l 532 1003 l 534 1000 l 537 1003 l 540 1003 q 548 987 548 1000 l 548 981 l 543 976 l 537 976 l 534 992 l 521 992 q 513 979 521 979 l 513 976 l 518 970 q 524 979 524 970 l 532 981 l 534 979 l 529 962 l 529 960 l 540 949 l 548 954 l 553 938 l 545 938 l 551 927 l 548 924 l 545 924 l 543 927 l 540 924 l 529 924 l 521 930 l 518 927 l 518 924 l 521 900 l 518 897 l 515 900 l 505 900 q 499 889 505 889 l 494 889 l 494 895 l 505 905 l 502 913 l 480 903 l 480 908 l 472 903 l 469 905 l 469 900 q 491 889 491 895 l 491 886 l 488 886 l 486 889 l 483 889 l 483 881 l 488 881 l 488 870 l 486 867 l 486 865 l 488 865 l 496 867 l 507 846 l 502 840 l 507 832 l 496 832 l 505 821 l 513 824 l 513 827 l 510 829 l 510 832 l 518 832 l 518 824 l 521 824 q 526 832 521 832 l 532 824 l 532 819 l 521 816 l 524 819 l 524 821 l 521 821 q 499 802 499 808 l 507 772 l 513 772 q 518 783 513 783 l 521 783 q 529 778 521 778 l 529 770 l 532 770 l 543 772 l 564 762 l 575 783 l 575 786 q 567 797 567 786 l 564 797 l 551 778 l 548 775 l 545 775 l 545 778 l 548 781 l 548 783 q 540 794 541 783 l 543 805 l 540 813 l 545 829 l 543 827 l 540 827 l 537 829 l 537 832 l 540 835 l 543 835 l 551 832 q 567 840 551 837 l 583 838 l 589 838 l 589 835 l 586 832 l 589 829 l 589 824 l 586 821 l 586 819 q 591 810 591 819 l 616 813 l 616 810 l 618 813 l 629 813 l 629 810 l 627 797 q 640 759 633 797 l 618 751 l 616 751 l 616 745 l 618 743 l 618 740 l 616 740 l 608 745 l 602 745 l 589 743 q 570 762 589 750 l 564 756 l 545 756 l 545 753 l 551 732 l 551 726 q 537 699 551 705 l 521 718 l 513 718 l 518 702 q 507 669 514 702 q 491 656 491 669 l 488 656 l 486 659 l 483 659 l 483 653 l 491 642 l 486 637 l 491 631 l 491 629 l 488 626 l 491 623 l 491 621 l 475 602 l 477 593 l 475 593 q 453 536 465 593 l 453 526 q 467 498 453 518 l 469 498 l 469 504 l 467 507 l 472 512 q 486 517 472 517 l 486 515 l 488 490 l 488 479 q 513 444 503 479 l 513 436 q 521 417 521 436 q 540 295 535 417 q 494 159 522 174 q 450 105 489 142 q 320 64 370 64 l 320 48 l 317 45 l 320 43 l 320 40 l 317 37 l 320 18 l 320 -6 q 309 -14 320 -14 l 288 -9 l 271 -14 l 250 -14 l 247 -12 l 244 -14 l 228 -14 l 222 -9 l 228 -3 l 225 -1 l 225 21 l 222 62 q 214 67 214 62 l 217 70 l 217 73 l 214 73 l 212 70 l 209 70 l 203 78 l 184 73 l 190 54 q 176 75 186 54 q 117 100 159 75 l 117 97 l 122 64 l 117 54 l 119 51 l 119 48 l 114 29 l 109 29 l 106 43 l 109 51 l 106 64 l 109 100 l 103 105 l 106 108 l 106 111 q 49 157 80 116 l 49 159 l 54 165 l 60 165 l 60 154 l 62 154 l 65 168 l 38 168 l 41 178 q 24 203 34 199 l 22 203 l 14 197 l 11 197 l 11 203 l 16 203 l 16 205 l 11 205 q -14 192 11 196 l -14 211 q 22 230 -14 217 l 22 243 l 14 260 l 19 265 l 19 271 q 8 333 11 271 l 11 336 l 11 338 l 8 347 l 16 371 l 19 368 l 33 371 l 52 371 l 57 366 l 60 368 l 87 366 l 92 366 l 100 371 l 106 371 l 106 368 l 125 371 l 141 371 l 149 366 l 157 371 l 176 368 l 206 374 l 220 420 l 206 425 l 206 428 l 209 431 l 209 433 q 114 490 176 439 q 65 531 108 507 q 5 691 5 607 l 5 718 q 76 867 5 815 q 127 900 96 871 l 157 908 l 152 913 q 168 960 168 950 l 174 960 q 163 932 174 932 l 163 927 l 171 924 l 168 922 l 168 913 l 182 911 l 182 919 l 184 916 l 187 916 q 193 927 193 916 l 198 927 l 198 919 l 222 922 l 222 935 l 231 946 l 225 946 l 225 962 l 231 962 l 231 965 q 222 970 222 965 l 222 987 l 228 992 l 233 992 l 241 987 l 247 992 l 277 989 l 317 992 l 320 989 l 320 973 l 317 970 l 320 962 l 317 949 l 320 949 l 317 946 l 317 935 q 336 927 329 935 l 345 930 q 328 941 345 935 l 328 943 q 345 951 345 943 q 363 943 355 943 l 374 965 l 380 970 l 380 984 q 369 992 369 984 l 355 989 l 355 992 l 361 1000 l 347 1000 l 347 1006 l 358 1006 l 361 1003 l 363 1006 l 366 1006 q 385 979 385 987 l 399 987 l 418 979 l 420 979 q 410 1011 414 1011 l 407 1008 l 407 1006 l 410 998 l 404 998 l 399 1011 l 399 1014 l 404 1025 l 412 1025 l 412 1017 l 418 1017 q 429 1038 418 1035 m 347 1033 l 358 1033 l 366 1019 l 361 1014 l 358 1014 l 347 1027 l 347 1033 m 572 1027 l 575 1025 l 575 1022 q 556 998 556 1003 l 551 998 l 551 1011 q 572 1027 558 1011 m 144 987 l 157 987 l 163 981 l 160 968 l 163 965 l 163 962 q 152 932 158 932 l 149 935 l 155 954 q 146 968 151 968 l 144 965 l 141 965 l 138 968 l 138 981 l 144 987 m 182 987 l 187 979 l 182 973 l 176 984 l 179 987 l 182 987 m 355 981 l 361 976 l 366 981 l 372 976 l 369 962 q 350 979 350 974 l 353 981 l 355 981 m 496 979 l 491 970 l 491 968 l 496 973 l 499 970 l 505 970 l 505 976 l 496 979 m 122 973 l 122 960 l 125 932 l 119 932 l 114 970 l 117 973 l 122 973 m 195 968 l 198 965 l 198 962 l 193 957 l 193 951 l 198 943 l 198 935 l 187 930 l 184 930 q 195 968 188 968 m -8 946 l -3 946 l -3 941 l 3 941 l 16 943 l 24 932 l 24 913 l 19 908 l 16 911 l 14 911 l 8 905 l -5 905 l -14 913 l -14 919 l -11 922 l -14 924 l -14 941 l -8 946 m 415 943 l 415 935 l 420 941 l 420 943 l 415 943 m 483 927 l 486 919 l 488 919 l 502 932 l 499 943 l 496 941 q 491 930 491 941 l 483 927 m 610 935 l 613 935 l 618 930 l 610 930 l 610 935 m 624 932 q 637 927 624 927 l 640 919 l 643 922 l 646 922 q 722 824 722 854 l 722 821 l 713 813 l 711 816 l 711 819 l 713 821 l 708 827 l 711 829 q 681 857 701 831 q 667 851 667 857 l 675 835 l 681 835 l 684 838 l 686 838 q 694 819 686 829 l 694 816 l 675 816 l 678 829 l 675 829 l 673 827 q 665 838 665 827 l 662 846 q 629 870 629 857 l 621 865 l 618 865 q 605 873 618 871 l 589 865 l 586 865 q 581 878 586 878 l 548 873 l 537 895 l 540 895 l 551 886 l 556 886 q 543 903 553 899 l 545 911 l 548 911 l 562 903 l 570 905 l 570 903 q 600 895 570 897 l 602 897 l 618 878 l 621 881 l 629 881 l 637 876 l 646 878 l 646 873 l 643 870 l 643 867 l 646 865 l 648 865 l 651 867 l 654 867 q 665 857 665 865 q 678 865 678 858 l 681 865 l 678 867 l 678 870 l 681 873 l 681 876 l 675 881 l 678 884 l 675 884 l 667 881 l 665 884 q 659 876 665 876 l 648 886 l 656 886 l 656 881 l 659 881 l 662 892 l 659 895 l 640 889 l 643 903 q 632 913 632 903 l 627 913 l 629 911 q 621 895 626 895 l 616 900 l 616 903 l 618 900 l 621 900 l 624 911 q 613 919 613 915 l 618 919 l 627 916 l 627 919 l 618 930 l 621 932 l 624 932 m 469 927 q 450 913 469 913 q 464 903 452 908 q 480 919 472 919 l 480 927 l 469 927 m 499 924 l 510 913 l 513 913 l 513 916 l 505 924 l 499 924 m 524 919 l 529 919 q 537 913 529 913 l 540 903 l 537 903 q 524 911 524 906 l 524 919 m 556 897 l 564 889 l 567 889 l 567 897 l 556 897 m 442 886 l 442 881 l 448 876 l 450 876 l 450 884 l 442 886 m 667 876 l 673 876 l 670 873 l 673 870 l 673 865 l 667 865 l 667 876 m 586 862 l 591 857 l 591 854 l 586 848 l 583 848 l 578 854 l 586 862 m 488 857 l 488 846 l 491 846 l 491 857 l 488 857 m 515 854 l 524 854 l 518 848 l 515 848 l 515 854 m 575 791 l 581 791 l 583 805 q 575 791 577 805 m 675 808 l 675 805 l 670 800 l 667 800 l 667 805 l 675 808 m 515 805 l 518 805 l 518 802 l 515 794 l 510 794 l 510 800 l 515 805 m 548 802 l 548 797 l 551 789 l 553 789 l 553 797 l 548 802 m 209 743 l 209 734 q 244 661 209 710 q 290 626 254 650 l 293 626 l 293 631 l 290 645 l 293 645 l 290 653 l 304 691 l 298 696 l 301 705 l 298 721 l 301 737 l 298 756 l 301 767 l 288 791 l 282 797 l 279 794 l 258 797 q 209 743 209 777 m 692 800 l 694 797 l 694 794 l 692 791 l 684 791 l 684 797 l 692 800 m 643 759 l 646 759 q 675 745 663 759 l 673 743 l 670 743 q 643 759 643 754 m 567 743 q 575 729 573 743 q 570 715 575 715 l 572 713 l 572 705 l 567 705 l 564 715 l 567 743 m 301 672 l 298 659 l 304 650 l 298 623 l 312 615 l 315 615 q 326 642 315 631 l 326 648 l 317 648 l 323 672 l 301 672 m 345 672 l 345 664 l 347 650 l 350 650 l 350 659 l 347 672 l 345 672 m 434 664 l 429 664 l 429 669 l 426 669 q 418 661 426 661 l 415 659 l 415 656 l 420 656 l 420 653 q 412 642 414 653 q 439 599 412 604 l 442 610 l 448 610 l 448 604 l 450 604 l 450 637 l 461 637 l 461 648 l 456 664 l 453 661 l 448 661 q 442 672 448 672 q 434 664 434 672 m 328 669 l 328 656 l 331 656 l 331 669 l 328 669 m 363 667 l 355 615 l 350 615 l 350 634 q 342 640 350 640 l 345 653 l 339 653 l 326 602 q 339 588 334 602 l 342 588 l 342 593 l 339 596 l 342 599 l 347 599 l 355 585 l 350 585 l 361 577 l 361 580 l 358 583 l 361 585 l 361 607 l 369 667 l 363 667 m -11 667 l -8 667 l -3 661 l -3 659 l -11 656 l -11 667 m 442 659 l 448 659 q 437 618 445 618 l 437 623 l 442 659 m 388 615 l 380 602 l 380 599 l 391 612 l 391 615 l 388 615 m 439 596 l 437 593 l 437 583 l 445 591 l 439 596 m 412 591 q 401 566 412 578 l 401 561 l 415 550 l 418 550 q 431 585 418 564 l 431 588 l 412 593 l 412 591 m 423 545 l 426 542 l 429 542 l 437 574 l 434 574 q 423 545 430 574 m 442 569 q 437 561 442 561 l 437 555 l 439 558 l 442 558 l 445 555 l 445 569 l 442 569 m 434 553 l 431 539 l 442 542 l 442 545 l 434 553 m 727 431 l 730 431 l 730 428 l 719 420 l 719 422 l 727 431 m 656 425 l 659 422 l 654 414 l 656 412 l 656 406 l 654 406 l 648 412 l 648 417 l 656 425 m 228 417 q 214 368 228 391 l 220 368 l 217 355 l 222 349 l 225 279 l 217 265 q 231 205 222 265 q 236 195 236 205 q 277 186 249 186 l 279 186 q 296 205 279 197 l 301 216 l 298 216 l 304 233 q 296 260 298 233 l 298 271 l 279 273 l 271 271 l 258 279 l 255 276 l 252 276 l 241 279 q 250 284 241 284 l 250 287 q 241 295 241 287 l 239 292 l 236 292 l 233 295 q 269 382 260 334 q 231 417 231 406 l 228 417 m 279 360 q 255 309 279 338 l 260 309 l 293 328 l 293 330 l 285 360 l 279 360 m 730 363 q 741 355 741 359 l 738 352 l 738 349 l 724 355 l 730 363 m 35 165 l 35 162 l 30 157 l 30 159 l 35 165 m 111 -17 l 117 -17 l 114 -36 l 117 -44 l 111 -44 l 106 -25 q 111 -17 111 -25 z "},"%":{"ha":727,"x_min":0,"x_max":784,"o":"m 122 914 q 152 884 152 911 l 193 887 q 258 868 258 883 l 258 865 q 244 857 258 859 l 244 852 l 260 852 l 263 849 l 266 852 l 271 852 q 298 808 285 844 l 296 806 l 296 803 l 301 787 l 301 784 l 298 770 q 304 760 304 770 l 309 760 l 304 781 l 304 789 l 309 789 l 320 749 l 323 751 l 326 751 l 339 738 q 355 724 351 738 l 353 722 q 334 730 334 722 l 331 730 l 326 724 q 342 703 334 724 l 345 703 l 350 708 q 358 694 356 708 l 355 694 l 345 692 l 334 708 l 331 705 l 328 705 q 350 686 330 695 l 350 678 q 336 667 349 673 l 323 670 l 323 665 l 328 665 l 328 662 l 326 648 l 331 643 q 320 624 331 624 q 328 618 320 618 l 328 613 q 317 597 328 597 l 317 591 l 334 572 l 331 570 l 328 570 l 317 578 l 317 572 l 334 548 l 350 545 l 363 545 l 363 556 q 347 562 363 562 l 347 564 l 345 562 l 342 562 l 336 567 l 347 567 l 331 586 l 334 589 l 328 594 l 336 602 l 361 597 l 361 602 l 355 602 l 355 610 l 358 613 l 358 616 q 350 621 350 616 q 374 635 363 624 l 410 627 l 412 635 l 404 659 l 401 656 l 399 656 q 391 673 394 656 q 377 686 377 673 l 396 694 l 401 686 l 401 678 l 396 678 l 396 684 l 393 684 l 393 678 l 426 665 l 426 667 q 407 689 407 680 l 410 689 l 418 684 l 420 684 l 423 697 l 420 705 l 423 705 l 429 711 l 439 705 l 445 722 l 442 722 l 434 716 l 431 724 l 442 727 l 442 730 q 431 735 442 735 l 431 741 q 453 754 439 754 l 453 779 l 458 784 l 461 765 l 464 765 q 480 803 464 781 l 491 827 l 488 836 l 491 838 l 494 838 l 491 841 l 491 844 l 496 849 l 499 849 l 502 846 l 505 846 q 515 852 505 852 l 515 857 l 502 860 l 502 865 q 513 890 502 886 l 543 890 l 564 884 l 564 890 l 586 890 l 586 887 q 570 836 570 854 q 548 798 551 811 l 551 787 l 532 735 l 540 727 l 537 724 l 540 711 l 532 700 l 534 684 l 532 681 l 532 678 l 543 675 l 543 673 l 537 665 l 545 656 l 545 654 l 543 654 l 532 656 l 524 654 l 524 651 l 540 635 l 521 624 q 529 616 529 624 l 532 616 l 551 632 l 564 605 l 572 616 l 572 624 l 567 624 l 567 627 l 572 627 l 572 643 l 570 675 l 572 675 l 567 694 l 570 694 l 567 697 l 572 757 l 570 770 l 575 811 l 581 811 l 581 800 l 583 800 l 583 806 l 589 806 q 608 765 597 806 l 597 754 l 602 749 l 600 741 l 610 730 l 610 727 l 608 727 l 583 735 l 583 705 l 591 694 q 583 686 583 694 l 581 686 l 583 684 l 583 678 l 578 678 l 578 675 l 583 675 l 586 678 l 586 670 l 581 670 l 581 667 l 578 643 l 581 624 l 578 600 l 581 586 l 583 589 l 589 589 l 594 583 l 591 581 l 591 578 l 594 570 l 591 567 l 589 567 l 581 578 l 583 581 l 583 583 l 572 583 l 572 602 l 562 597 l 559 600 l 559 602 l 556 600 l 551 600 q 543 605 551 605 l 543 608 q 551 613 543 613 l 545 618 l 515 591 l 513 594 l 510 591 l 507 591 l 505 594 l 502 594 l 502 581 l 505 581 q 543 597 524 597 l 543 591 q 534 581 534 591 l 532 578 l 529 578 l 532 575 l 532 572 l 515 559 l 513 562 q 524 572 515 572 l 521 575 l 521 578 l 524 586 l 521 586 l 502 572 l 499 572 l 491 581 l 491 591 l 494 602 l 491 621 l 483 613 l 486 602 q 458 537 475 602 l 458 521 l 448 521 l 448 524 l 453 524 l 453 529 l 448 529 l 445 526 l 442 526 l 445 513 l 445 505 q 434 496 434 505 l 437 486 q 415 445 423 445 l 415 442 l 423 442 l 423 439 l 412 437 l 412 426 l 407 407 l 410 407 l 420 410 l 426 404 q 399 393 399 404 q 358 315 379 315 l 358 309 q 366 304 366 309 l 363 293 l 369 269 q 331 203 347 269 q 293 106 315 178 l 285 103 l 288 90 q 274 79 286 84 l 277 65 l 269 57 l 271 54 l 271 52 q 263 46 271 46 l 263 30 q 258 8 258 24 l 233 0 l 231 3 l 228 3 l 225 0 l 222 0 l 193 5 l 193 11 l 206 19 l 209 19 l 209 22 q 193 54 201 22 q 203 76 197 54 l 206 76 l 203 79 q 222 114 212 114 l 220 127 l 233 146 l 231 149 l 231 152 q 241 165 233 165 l 241 179 l 247 187 l 244 195 q 263 241 253 201 l 269 241 l 266 244 l 266 247 l 285 296 q 277 312 281 312 l 274 298 l 269 298 l 271 315 l 269 323 l 271 331 l 269 331 l 252 312 l 250 312 q 244 320 250 320 l 244 315 l 241 315 l 239 317 l 236 317 l 236 312 l 231 312 l 228 320 q 244 334 241 320 l 231 342 l 228 342 l 231 345 l 225 358 l 236 353 l 236 350 l 233 347 l 233 345 l 244 339 l 247 342 l 250 342 l 266 336 l 266 339 q 277 353 266 349 l 282 347 l 290 347 l 285 363 q 269 372 269 363 l 269 399 l 250 407 q 217 377 250 384 l 209 380 l 206 377 l 203 377 l 195 380 l 201 388 l 201 393 l 198 393 q 171 358 182 393 l 165 358 q 155 363 165 363 l 155 366 q 174 418 165 376 l 184 418 l 193 412 l 195 415 l 195 420 l 184 420 q 165 412 165 420 l 163 415 l 160 415 q 114 374 114 380 l 114 369 l 119 369 l 125 374 l 144 369 l 141 366 l 141 363 l 138 366 l 136 366 l 119 361 l 111 366 l 106 358 l 109 355 l 106 353 l 103 353 l 92 361 q 87 350 92 350 q 95 323 95 338 l 103 323 l 103 326 l 100 334 l 106 334 l 111 320 l 100 309 l 103 307 l 92 304 l 90 307 l 84 298 l 87 296 l 87 293 q 79 282 83 282 l 68 290 l 62 285 l 65 282 l 62 279 l 60 279 q 5 323 5 302 l 14 347 l 11 350 l 8 350 l 5 336 l 0 336 l 3 353 l 0 361 q 30 388 0 382 l 49 382 l 49 385 l 52 382 l 54 382 l 62 385 l 57 393 l 54 391 l 49 391 q 33 401 49 397 l 33 407 l 35 407 l 38 404 l 41 404 q 49 410 41 410 l 46 423 l 46 445 q 95 469 58 469 l 95 475 q 49 556 71 475 q 62 562 62 556 q 57 570 57 562 l 52 570 q 46 559 52 559 l 35 613 l 38 616 l 41 616 l 35 629 l 38 632 l 38 635 l 35 643 l 38 646 l 38 648 l 35 659 l 43 662 l 43 665 l 33 667 l 35 700 l 35 711 q 49 749 47 723 l 54 754 l 54 757 l 49 765 l 49 770 l 60 784 l 57 787 l 57 792 q 81 827 68 827 l 81 830 l 79 833 l 79 836 l 95 854 l 98 857 l 100 857 l 98 860 l 98 863 q 136 884 127 884 l 136 887 q 117 901 125 887 l 117 909 l 122 914 m 486 906 l 491 901 l 486 895 l 480 901 l 486 906 m 339 884 q 350 871 343 871 l 350 863 l 347 863 l 331 868 q 339 884 334 884 m 448 865 q 472 852 463 852 l 472 846 l 464 838 l 456 838 l 448 846 l 448 865 m 399 852 l 410 844 l 410 838 q 391 825 401 825 l 385 833 l 385 841 q 399 852 391 852 m 160 792 l 160 765 l 155 760 l 136 762 q 152 754 136 758 l 157 708 l 157 700 l 155 689 l 157 678 l 152 662 l 157 656 l 157 654 q 149 648 157 648 l 157 627 l 155 624 l 157 597 l 157 591 l 155 581 l 157 578 l 155 559 l 155 553 l 157 540 l 152 534 l 160 526 l 160 518 l 157 515 q 195 494 157 496 l 206 534 l 203 545 l 209 556 l 201 564 l 201 567 q 212 572 201 572 l 201 591 l 203 594 l 201 621 q 209 735 209 644 l 212 738 l 212 741 l 209 751 l 209 757 l 212 760 l 201 776 l 201 800 l 190 811 l 171 811 q 160 792 160 807 m 591 789 l 589 787 l 589 784 l 597 784 l 591 789 m 317 781 l 323 781 l 331 765 l 328 765 l 317 779 l 317 781 m 391 719 l 396 711 q 385 703 396 707 l 374 708 l 366 705 l 358 708 l 358 711 q 391 719 358 717 m 635 708 l 643 708 l 643 703 l 635 703 l 635 708 m 328 692 l 323 678 l 331 673 l 336 678 l 334 692 l 328 692 m 524 673 l 524 659 q 532 673 530 659 l 524 673 m 637 656 l 643 656 l 643 643 q 632 586 643 616 l 627 586 l 629 589 l 629 591 l 627 594 l 627 597 l 632 602 l 629 602 q 635 646 635 614 l 632 648 q 637 656 637 648 m 496 637 l 491 624 l 494 621 l 499 621 q 507 629 499 629 l 507 632 l 496 637 m 505 621 l 502 613 l 505 613 l 510 618 l 507 621 l 505 621 m 380 600 l 372 586 l 374 583 l 380 583 l 385 589 l 385 594 l 380 600 m 556 591 l 559 589 l 559 586 l 553 581 l 551 581 l 551 586 l 556 591 m 637 581 l 643 581 l 643 564 l 637 559 l 635 562 l 637 581 m 567 578 l 572 578 l 572 575 l 564 567 l 564 570 l 567 578 m 583 562 l 589 562 l 594 556 l 591 553 l 589 553 l 583 559 l 583 562 m 594 548 l 597 545 l 597 543 l 594 540 l 591 540 l 589 543 l 589 545 l 591 548 l 594 548 m 540 545 l 543 545 l 545 534 l 537 534 l 537 537 l 540 545 m 312 540 l 304 521 l 307 521 q 317 537 317 524 l 315 540 l 312 540 m 307 505 l 307 499 l 315 491 l 317 491 q 353 521 317 503 l 345 529 l 342 529 q 317 510 317 519 l 307 505 m 361 521 q 353 507 361 514 l 355 505 l 363 505 l 369 518 l 366 521 l 361 521 m 494 515 l 494 502 l 499 502 q 505 510 499 510 l 507 510 l 505 507 l 505 505 l 513 505 l 513 510 l 521 510 l 526 496 q 515 477 515 484 l 518 469 l 505 469 l 499 475 l 499 480 l 507 475 l 510 475 q 518 491 510 491 l 518 496 l 505 499 l 494 496 q 486 513 488 496 l 488 513 l 491 515 l 494 515 m 453 502 l 458 502 l 458 488 l 453 488 l 453 494 l 456 496 l 456 499 l 453 502 m 491 491 l 499 491 l 499 483 l 494 483 l 491 480 l 488 483 l 491 491 m 464 488 l 469 488 l 469 486 l 467 477 l 464 477 l 464 488 m 486 475 l 488 475 l 494 469 l 486 469 l 486 475 m 556 475 l 575 475 l 586 472 l 589 475 l 591 475 l 594 472 l 597 472 l 605 475 q 646 456 634 475 l 643 453 q 673 423 660 453 q 694 404 683 404 l 694 401 q 703 355 694 380 l 697 350 l 703 350 l 703 355 l 708 355 l 713 342 l 708 342 l 708 339 l 719 326 l 719 334 l 724 334 q 754 315 724 320 q 746 309 754 309 l 746 304 l 768 312 l 768 309 l 765 307 l 765 304 l 768 304 l 765 301 l 765 298 q 781 293 765 293 l 781 290 l 776 274 l 784 260 l 781 258 l 781 255 l 784 252 l 784 250 q 762 233 780 233 l 757 239 l 741 228 l 738 228 l 719 241 q 708 160 719 197 q 703 146 708 146 l 705 136 q 692 103 705 119 l 694 95 q 678 60 688 95 q 665 52 673 52 l 667 49 l 667 46 q 637 14 648 17 q 618 22 629 14 l 613 11 l 610 14 l 605 14 l 597 8 l 586 8 l 564 11 l 548 8 q 524 27 534 8 q 491 76 498 47 q 477 106 482 76 l 475 109 l 475 111 l 477 114 l 477 117 q 461 157 466 117 l 464 157 l 461 160 l 464 174 l 464 176 l 461 174 l 458 174 l 453 182 l 453 184 q 467 193 467 184 l 453 217 l 453 241 l 456 252 l 453 255 l 456 274 l 456 290 q 439 298 456 295 q 486 339 464 339 l 486 345 l 472 342 l 469 345 l 469 350 l 472 369 q 445 399 445 372 l 450 399 l 448 401 l 448 404 l 453 410 l 483 410 l 486 407 l 488 407 l 491 410 q 556 475 526 475 m 212 404 q 203 393 208 393 l 206 385 l 209 385 l 217 401 l 214 404 l 212 404 m 437 404 l 442 404 l 442 401 l 437 396 l 437 404 m 776 399 q 784 363 784 399 l 784 358 q 773 350 773 357 l 779 339 l 770 334 l 762 342 l 762 350 l 770 361 l 770 372 l 754 374 l 754 380 l 762 388 l 765 385 l 765 391 l 762 393 l 762 396 l 765 399 l 776 399 m 464 388 l 467 380 l 475 380 l 475 382 l 469 388 l 464 388 m 244 382 l 247 380 l 247 377 l 244 374 l 239 374 l 239 377 l 244 382 m 288 363 q 304 347 288 355 l 309 355 l 309 358 l 304 366 q 315 377 315 366 l 301 380 l 298 380 q 288 363 288 374 m 553 363 l 556 361 l 556 342 l 553 339 l 553 336 l 559 336 l 559 342 l 562 342 q 575 317 575 331 l 567 317 l 575 293 l 570 293 l 564 304 l 567 307 l 562 307 l 556 296 l 556 288 l 562 288 l 562 285 l 556 285 l 556 255 l 562 255 l 562 252 l 556 252 l 556 250 l 562 241 q 556 209 556 238 l 553 209 l 556 206 l 556 201 l 553 198 l 556 195 l 556 193 l 553 184 l 556 182 l 553 168 l 553 165 l 559 114 l 559 95 l 570 84 l 589 84 q 602 103 595 85 l 605 100 l 610 100 l 610 103 q 600 122 600 103 l 602 176 l 600 279 l 602 290 l 597 326 l 605 326 l 605 331 q 589 342 597 331 l 600 345 l 600 355 l 597 353 l 594 353 l 586 361 l 591 369 l 586 369 l 553 363 m 65 366 l 65 361 l 73 361 l 68 366 l 65 366 m 182 363 l 184 363 l 184 361 l 182 358 l 182 355 l 184 353 l 187 353 l 187 361 l 193 361 l 193 355 l 187 345 l 182 345 l 176 350 l 179 353 l 176 355 l 176 358 l 182 363 m 201 363 l 206 363 q 214 350 212 363 l 212 350 l 201 358 l 201 363 m 296 363 l 304 363 l 298 358 l 296 358 l 296 363 m 141 355 l 144 355 l 155 353 l 157 355 l 157 350 l 146 347 l 141 355 m 165 355 l 168 353 l 168 347 l 165 347 l 160 353 l 163 355 l 165 355 m 556 334 l 556 328 l 564 320 l 564 326 l 567 328 l 564 331 l 556 334 m 722 320 l 722 317 l 727 312 l 730 315 l 730 317 l 727 320 l 722 320 m 363 315 l 372 315 l 366 309 l 363 309 l 363 315 m 583 315 l 589 309 l 589 301 l 586 301 q 578 312 582 301 l 581 315 l 583 315 m 749 298 l 751 296 l 754 296 l 757 307 l 749 298 m 103 307 l 106 307 q 136 293 125 307 l 133 290 l 130 290 q 103 307 103 302 m 738 304 l 738 296 l 746 296 l 746 298 l 741 304 l 738 304 m 372 269 l 374 269 q 404 255 391 269 l 401 252 l 399 252 q 372 269 372 264 m 239 247 l 244 247 l 244 233 l 239 239 l 239 247 m 575 214 l 583 214 l 583 209 l 575 209 l 575 214 m 456 201 l 461 201 l 461 190 l 456 190 l 456 201 m 583 201 l 589 201 l 589 168 l 583 168 l 581 187 l 583 201 z "},"&":{"ha":700,"x_min":-136,"x_max":1005,"o":"m 905 1267 l 914 1267 l 924 1258 l 924 1252 l 917 1246 l 905 1261 l 905 1267 m 722 1208 l 726 1208 l 726 1198 l 713 1195 l 713 1198 l 722 1208 m 832 1195 l 838 1189 l 836 1185 l 829 1185 l 823 1192 l 826 1195 l 832 1195 m 751 1192 q 766 1183 766 1188 q 732 1148 753 1179 l 719 1148 l 713 1154 l 713 1160 q 751 1192 732 1192 m 769 1179 l 776 1179 l 776 1167 l 779 1167 l 779 1173 l 785 1173 q 798 1148 798 1173 l 804 1148 q 810 1160 804 1160 l 813 1158 l 804 1135 l 807 1126 l 795 1114 l 801 1107 l 798 1098 l 810 1085 l 810 1082 l 807 1082 l 779 1091 l 779 1076 q 804 1057 798 1076 l 807 1060 l 813 1060 l 817 1057 l 838 1063 l 848 1060 l 848 1038 l 842 1038 q 832 1050 842 1050 l 823 1048 l 823 1050 l 820 1048 l 813 1048 l 791 1050 l 776 1031 q 810 1016 800 1031 l 820 1016 q 838 1031 837 1016 l 845 1031 q 861 1000 850 1031 l 863 1004 l 867 1004 l 880 997 l 882 1000 l 895 1000 l 895 997 l 892 994 l 892 991 q 911 966 911 982 l 905 960 l 905 956 l 917 956 l 917 950 l 911 950 l 882 947 q 861 966 861 951 l 851 966 q 842 925 842 966 l 836 925 q 848 912 838 912 l 848 893 q 836 887 848 887 l 836 859 l 842 852 l 861 852 l 851 865 l 851 871 l 861 875 l 861 871 l 857 862 l 873 862 l 861 812 l 823 815 l 804 815 l 798 831 l 807 831 l 804 833 l 804 840 l 810 850 l 798 862 l 807 865 l 804 868 l 804 878 l 810 890 l 804 903 l 807 906 l 791 909 q 782 890 791 901 q 791 884 791 890 l 788 881 l 785 881 q 779 890 779 881 l 772 890 l 776 887 l 776 884 q 760 865 768 884 l 763 862 l 763 859 l 760 831 l 763 831 l 772 833 l 776 831 l 776 824 l 772 824 l 769 827 l 766 824 l 763 824 l 753 831 l 751 831 l 751 821 q 763 802 761 821 l 769 802 l 769 812 l 772 812 l 776 808 q 791 821 791 808 l 795 818 l 798 818 l 795 815 l 795 764 l 791 762 l 795 758 l 795 755 q 769 739 795 739 l 769 730 l 763 730 l 763 733 l 766 736 l 766 739 l 726 746 l 716 746 l 682 739 l 678 743 l 678 746 l 688 755 l 709 755 l 709 758 q 675 789 709 764 l 675 783 l 659 783 l 650 793 q 663 799 650 799 l 663 806 l 647 818 l 634 818 l 634 806 l 628 806 l 628 812 l 631 815 l 631 818 l 625 818 q 609 806 625 806 l 609 802 q 628 762 609 786 q 644 739 628 747 q 634 705 642 705 l 631 708 l 628 708 q 609 695 628 703 l 600 699 l 597 689 l 600 680 l 587 667 l 593 661 l 590 652 l 603 639 l 603 635 l 600 635 l 572 645 l 572 610 l 581 598 q 572 589 572 598 l 568 589 l 572 585 l 572 579 l 565 579 l 565 576 l 572 576 l 574 579 l 574 570 l 568 570 l 568 566 l 565 538 l 568 516 l 565 488 l 568 472 l 572 475 l 578 475 l 584 469 l 581 466 l 581 463 l 584 454 l 581 450 l 578 450 l 568 463 l 572 466 l 572 469 l 559 469 l 559 491 l 546 485 l 543 488 l 543 491 l 540 488 l 534 488 q 524 494 534 494 l 524 497 q 534 504 524 504 l 528 510 l 493 479 l 490 481 l 486 479 l 484 479 l 480 481 l 477 481 l 477 466 l 480 466 q 524 485 503 485 l 524 479 q 515 466 515 479 l 512 463 l 509 463 l 512 460 l 512 456 l 493 441 l 490 444 q 503 456 493 456 l 499 460 l 499 463 l 503 472 l 499 472 l 471 450 l 471 444 q 493 412 486 444 l 486 403 l 490 403 l 499 406 l 503 397 l 505 397 l 509 400 l 512 400 l 512 393 l 505 393 q 515 385 505 385 l 518 381 l 518 378 l 515 378 l 518 375 l 518 359 l 515 343 q 546 321 536 343 l 628 362 q 675 403 649 391 l 682 403 l 682 246 l 675 239 l 672 239 l 669 243 l 666 243 l 666 239 l 669 230 l 666 230 l 647 218 l 637 224 l 634 224 q 612 195 634 208 l 637 145 l 634 136 l 644 136 l 644 117 q 697 32 662 117 l 694 32 q 713 -2 702 9 l 707 -8 l 701 -2 l 701 -8 l 694 -8 q 663 10 694 7 l 659 7 l 659 4 l 669 -5 l 669 -8 l 666 -8 l 647 10 l 647 14 l 653 14 l 653 20 l 641 26 q 634 14 634 26 l 631 10 l 628 10 l 618 20 l 625 29 l 622 29 q 578 20 578 29 l 578 7 l 581 -15 l 578 -15 l 574 -12 l 572 -15 l 565 -15 l 565 -12 l 572 -5 l 568 10 l 572 26 l 565 26 l 565 16 l 559 16 l 559 20 l 562 23 l 562 26 l 555 26 l 553 23 l 549 23 l 543 29 l 534 26 l 534 32 l 530 32 l 490 29 q 452 60 463 29 q 436 83 441 83 l 430 76 l 433 73 q 364 41 422 73 l 289 16 l 286 20 l 282 10 l 286 7 l 286 1 l 279 1 l 279 14 l 276 10 l 267 14 l 222 7 l 220 10 l 203 10 l 201 7 q 128 32 133 20 l 125 29 l 122 29 q 34 111 77 49 l 9 174 l 12 189 q 6 212 6 189 l 0 218 l 0 256 l 6 264 l 0 274 l 0 293 l 9 306 l 3 325 q 24 350 9 350 l 22 366 l 24 368 l 18 375 l 22 375 l 24 372 q 37 387 37 372 q 134 454 87 442 l 134 456 q 68 548 69 513 l 50 576 l 53 585 l 50 585 q 43 601 44 585 l 43 617 l 34 617 l 34 623 q 47 629 47 623 l 43 629 l 28 626 l 24 629 l 24 633 l 43 633 l 40 664 l 43 667 l 43 670 l 40 683 l 43 683 l 40 686 l 40 689 q 66 702 40 701 l 66 705 l 53 708 l 56 718 l 59 718 l 59 711 l 66 711 l 66 714 l 56 746 l 91 796 q 81 802 81 796 l 84 802 l 97 799 l 106 815 q 100 824 100 815 l 97 821 l 91 821 l 91 824 l 106 862 l 103 871 q 91 846 99 871 l 87 846 l 87 852 l 66 831 l 47 846 l 62 862 l 50 865 l 43 859 l 31 868 l 31 862 l 28 862 q 18 884 22 862 l 15 881 l 12 881 q 3 900 7 881 q -13 916 -13 900 l 9 925 l 15 916 l 15 906 l 9 906 l 9 912 l 6 912 l 6 906 l 43 890 l 43 893 q 22 919 22 907 l 24 919 l 34 912 l 37 912 l 40 928 l 37 937 l 40 937 l 47 944 l 59 937 q 66 947 59 947 l 68 947 l 72 944 l 75 944 l 75 947 l 66 956 l 62 956 l 53 950 l 50 960 l 62 962 l 62 966 q 50 972 62 972 l 50 979 q 75 994 59 994 l 75 1022 l 81 1029 l 84 1025 l 84 975 l 81 960 q 87 944 87 960 l 91 944 l 97 962 l 87 966 l 97 979 l 116 979 l 116 994 l 109 994 l 109 997 l 116 997 l 119 1000 l 132 987 l 132 985 l 125 985 l 125 979 q 138 947 138 962 l 134 944 l 132 947 l 125 947 l 125 937 q 141 931 141 937 l 141 928 l 138 925 l 141 916 l 147 916 l 147 922 l 144 950 l 147 960 q 138 966 138 960 l 138 972 l 147 972 l 147 987 l 153 994 q 163 972 159 994 l 176 962 l 172 960 l 176 944 l 166 931 l 169 912 l 166 909 l 166 906 l 178 903 l 178 900 l 172 890 l 182 881 l 182 878 l 178 878 l 166 881 l 157 878 l 157 875 l 176 856 l 213 871 l 210 903 l 213 903 l 207 925 l 210 925 l 207 928 l 213 997 l 210 1013 l 216 1060 l 222 1060 l 222 1048 l 226 1048 l 226 1054 l 232 1054 q 254 1006 242 1054 l 241 994 l 248 987 l 245 979 l 257 966 l 257 962 l 254 962 l 226 972 l 226 937 l 235 925 q 226 916 226 925 l 222 916 l 226 912 l 226 906 l 220 906 l 220 903 l 226 903 l 229 906 l 229 897 l 222 897 l 222 878 l 220 875 l 220 871 l 222 871 q 270 887 270 871 q 286 916 279 916 l 282 919 q 292 956 286 956 l 295 956 q 307 947 295 949 q 361 893 328 904 q 380 871 380 887 q 405 856 405 869 l 418 856 q 424 865 418 865 l 420 887 l 420 890 l 424 893 l 414 909 l 414 912 q 424 919 414 919 l 424 947 l 436 960 l 443 960 l 446 944 l 446 937 l 439 928 q 458 903 441 917 q 484 919 481 903 q 465 931 465 925 l 471 941 q 452 966 463 962 l 436 966 l 433 979 l 439 991 l 424 1010 l 433 1019 q 446 985 441 1010 l 455 985 l 455 987 l 449 997 q 471 1010 454 1010 q 493 991 493 1010 l 496 994 l 503 994 l 503 991 l 499 987 l 499 985 q 578 944 547 954 q 587 931 583 931 l 590 931 l 584 956 l 587 956 q 600 972 593 958 l 590 975 l 572 969 l 568 972 l 568 975 l 574 1000 l 572 1004 l 568 1000 l 565 1000 q 555 1019 559 1000 q 540 1035 540 1019 l 562 1044 l 568 1035 l 568 1025 l 562 1025 l 562 1031 l 559 1031 l 559 1025 l 562 1022 l 565 1022 q 572 1038 572 1022 l 574 1041 l 578 1041 q 584 1031 584 1041 l 590 1031 l 593 1048 l 590 1057 l 593 1057 l 600 1063 l 612 1057 q 618 1066 612 1066 l 622 1066 l 625 1063 l 628 1063 l 628 1066 l 618 1076 l 615 1076 l 606 1069 l 603 1079 l 615 1082 l 615 1085 q 603 1091 615 1091 l 603 1098 q 628 1114 612 1114 l 628 1133 l 618 1133 q 612 1123 618 1123 l 593 1123 l 590 1126 l 587 1126 q 600 1148 593 1148 l 618 1148 l 628 1142 l 634 1148 l 637 1145 l 637 1107 l 647 1098 l 653 1098 q 669 1117 653 1117 l 666 1139 q 672 1154 672 1139 q 682 1164 682 1154 l 691 1164 l 701 1154 l 701 1145 q 672 1123 701 1123 q 682 1114 672 1114 l 684 1110 l 684 1104 l 678 1104 l 678 1098 q 691 1066 691 1081 l 688 1063 l 684 1066 l 678 1066 l 678 1060 q 694 1050 694 1059 l 694 1048 l 691 1044 l 694 1035 l 701 1035 l 701 1041 l 697 1069 l 701 1079 q 691 1085 691 1079 l 691 1091 l 701 1091 q 713 1135 703 1135 q 735 1095 721 1107 q 722 1088 735 1088 l 722 1085 l 728 1085 l 741 1088 l 744 1079 l 741 1069 q 753 1054 753 1065 l 763 1054 l 763 1069 l 766 1107 l 747 1107 l 738 1117 l 738 1123 l 751 1126 l 753 1123 q 769 1179 769 1135 m 788 1154 l 785 1152 l 785 1148 l 795 1148 l 788 1154 m 471 1145 l 477 1145 l 486 1126 l 484 1126 l 471 1142 l 471 1145 m 418 1129 l 420 1126 l 420 1123 l 418 1123 l 427 1085 q 414 1107 420 1085 l 411 1107 l 414 1110 l 414 1120 l 411 1123 l 411 1126 l 414 1129 l 418 1129 m 845 1129 l 861 1107 l 861 1104 q 832 1073 839 1073 q 817 1082 817 1077 l 817 1095 q 826 1114 826 1095 l 845 1129 m 480 1110 l 496 1095 q 515 1079 510 1095 l 512 1076 q 490 1085 490 1076 l 486 1085 l 480 1079 q 499 1054 490 1079 l 503 1054 l 509 1060 q 518 1044 515 1060 l 515 1044 l 503 1041 l 490 1060 q 455 1050 477 1050 l 455 1054 q 468 1060 455 1060 l 458 1079 l 474 1082 l 471 1098 l 471 1101 l 480 1110 m 637 1091 l 637 1085 l 634 1082 l 637 1079 l 641 1063 l 644 1063 l 650 1082 q 641 1088 641 1082 l 644 1091 l 637 1091 m 625 1088 l 622 1079 l 628 1079 l 628 1088 l 625 1088 m 584 1082 l 590 1082 l 593 1079 l 597 1079 q 587 1066 592 1066 l 584 1066 l 578 1073 l 578 1076 l 584 1082 m 867 1082 l 873 1082 l 889 1066 l 886 1063 l 886 1060 q 867 1073 867 1067 l 867 1082 m 848 1079 l 848 1069 l 845 1069 l 838 1076 l 848 1079 m 555 1073 l 562 1063 l 549 1054 l 537 1060 l 528 1057 l 518 1060 l 518 1063 q 555 1073 518 1070 m 641 1050 l 644 1048 l 647 1048 l 653 1054 l 653 1057 l 647 1057 l 641 1050 m 486 1054 q 509 1035 486 1044 l 509 1025 q 490 1013 503 1013 l 486 1016 l 486 1019 l 493 1025 q 480 1048 493 1036 l 486 1054 m 427 1050 l 430 1048 l 430 1044 l 424 1038 l 420 1041 l 420 1044 l 427 1050 m 600 1038 l 600 1031 l 606 1031 l 612 1038 l 600 1038 m 235 1035 l 232 1031 l 232 1029 l 241 1029 l 235 1035 m 757 1035 q 751 1010 757 1019 l 753 1006 l 760 1006 q 766 1022 760 1022 l 763 1035 l 757 1035 m 461 1035 l 461 1029 q 446 1019 461 1023 l 443 1022 l 443 1025 q 461 1035 443 1031 m 418 1029 l 427 1029 l 418 1019 l 418 1029 m -82 1025 l -75 1025 l -66 1006 l -69 1006 l -82 1022 l -82 1025 m 584 1022 l 584 1013 l 597 1010 l 597 1013 q 584 1022 597 1018 m 772 979 q 795 935 795 948 l 791 925 l 804 916 q 813 922 804 922 l 810 925 l 810 928 l 820 947 l 820 956 l 817 975 l 820 985 q 801 1006 814 999 l 782 1006 q 772 979 772 1006 m 722 997 q 744 962 744 976 l 747 962 l 751 979 l 760 979 l 763 975 l 766 975 l 766 987 q 738 1000 755 987 l 722 997 m -73 991 l -57 975 q -38 960 -43 975 l -41 956 q -63 966 -63 956 l -66 966 l -73 960 q -54 935 -63 960 l -50 935 l -44 941 q -35 925 -37 941 l -38 925 l -50 922 l -63 941 q -98 931 -75 931 l -98 935 q -85 941 -98 941 l -94 960 l -79 962 l -82 979 l -82 981 l -73 991 m 72 969 l 68 960 l 75 960 l 75 969 l 72 969 m 568 966 l 572 966 l 578 960 l 578 956 l 572 956 l 568 966 m 490 956 l 490 954 l 499 950 l 503 950 l 503 954 l 493 956 l 490 956 m 3 954 l 9 944 l -3 935 l -16 941 l -25 937 l -35 941 l -35 944 q 3 954 -35 951 m 726 937 l 726 931 l 732 931 l 732 925 q 722 919 722 925 q 738 906 724 912 l 738 912 l 741 912 l 738 916 l 738 919 q 753 928 738 924 l 751 937 l 747 935 l 741 935 l 741 941 l 726 937 m 87 931 l 91 928 l 94 928 l 100 935 l 100 937 l 94 937 l 87 931 m 113 937 l 113 931 l 122 922 l 122 925 l 119 937 l 113 937 m -66 935 q -44 916 -66 924 l -44 906 q -63 893 -50 893 l -66 897 l -66 900 l -60 906 q -73 928 -60 917 l -66 935 m 568 922 l 565 925 l 565 919 l 587 919 l 587 922 l 584 925 l 584 928 l 568 922 m 47 919 l 47 912 l 59 912 l 59 919 l 47 919 m 512 916 l 509 912 l 509 909 l 518 909 l 512 916 m -92 916 l -92 909 q -107 900 -92 904 l -110 903 l -110 906 q -92 916 -110 912 m -136 909 l -129 909 l -129 906 l -136 900 l -136 909 m 295 903 l 295 893 l 311 897 l 311 900 l 295 903 m 157 900 l 157 884 q 166 900 163 884 l 157 900 m -119 900 l -110 881 l -113 878 l -117 878 l -129 890 l -119 900 m 106 893 l 106 890 l 109 881 l 113 881 l 113 884 l 109 893 l 106 893 m 317 893 l 307 881 l 307 878 l 339 875 l 345 875 l 345 878 q 317 893 336 893 m 279 881 l 279 878 l 289 878 l 289 887 l 286 887 l 279 881 m 116 881 l 116 871 l 119 871 l 122 881 l 116 881 m 870 881 l 873 878 l 876 878 l 880 881 l 880 875 l 870 865 l 870 868 l 873 871 l 870 875 l 870 881 m 785 875 l 788 875 l 795 868 l 795 865 l 791 865 l 785 871 l 785 875 m 125 859 l 119 843 l 122 840 l 128 840 q 138 850 128 850 l 138 852 l 125 859 m 779 862 l 782 862 l 788 856 l 788 852 l 785 852 l 779 859 l 779 862 m 106 833 l 106 827 l 113 821 l 119 821 l 119 840 l 106 833 m 572 840 l 568 831 l 572 831 l 578 837 l 578 840 l 572 840 m 785 843 l 791 837 l 779 837 l 785 843 m 15 818 l 18 818 l 24 812 l 24 808 l 18 802 l 15 806 l 15 808 l 18 808 l 15 812 l 15 818 m 641 806 l 647 806 l 647 802 l 644 793 l 641 793 l 641 806 m 757 787 q 747 781 757 781 l 747 774 l 751 774 l 760 783 l 763 783 l 763 787 l 757 787 m 744 755 l 753 755 l 753 762 l 751 762 l 744 755 m 521 749 l 524 736 l 528 736 l 530 739 l 534 739 l 530 743 l 530 746 l 534 749 l 534 752 l 528 752 l 524 749 l 521 749 m 248 746 q 257 724 248 735 l 248 721 l 248 705 l 260 705 l 257 708 l 257 711 q 292 733 272 733 q 314 718 314 722 l 314 714 l 311 711 l 311 708 l 320 699 q 342 705 342 699 q 301 743 328 743 l 292 743 q 260 724 277 743 q 251 739 260 731 l 254 743 l 254 746 l 248 746 m 924 736 l 924 727 l 911 724 l 924 736 m 521 721 l 521 714 l 534 702 l 530 680 l 530 673 l 537 664 l 537 658 q 521 560 537 620 l 528 554 l 528 551 l 518 551 l 515 554 l 512 554 l 509 541 l 521 529 l 499 516 q 509 507 509 516 l 512 507 l 534 526 q 543 497 543 513 l 546 494 l 549 494 l 559 507 l 559 516 l 553 516 l 553 519 l 559 519 l 559 538 l 555 576 l 559 576 l 553 598 l 555 598 l 553 601 l 559 677 q 546 718 550 688 l 534 727 l 528 727 l 521 721 m 836 730 l 838 730 l 848 721 l 838 714 l 829 724 l 836 730 m 6 714 q 24 708 24 712 l 28 711 l 34 711 l 34 702 l 18 699 l 18 702 l 15 699 l 3 699 l 3 708 l 6 711 l 6 714 m 669 711 l 684 711 l 684 705 l 663 705 l 669 711 m 691 708 l 697 708 l 697 705 l 694 702 l 697 699 l 697 692 l 691 692 l 691 708 m 37 702 l 37 699 l 31 692 l 28 695 l 28 699 l 37 702 m 251 695 l 251 689 l 260 686 l 260 695 l 251 695 m 298 677 l 304 677 l 307 692 q 298 677 300 692 m 641 695 l 650 695 l 650 689 l 641 689 l 641 695 m 267 689 q 257 673 267 673 l 257 661 l 263 654 l 273 664 l 282 658 l 286 661 l 289 661 l 292 658 l 298 667 l 298 670 q 289 683 289 670 l 286 683 l 276 677 l 273 677 l 270 689 l 267 689 m 832 689 l 836 689 l 832 673 l 832 670 q 845 661 832 661 l 845 642 q 836 620 845 631 l 848 604 l 848 601 q 766 633 774 621 l 766 639 q 801 670 774 639 l 820 670 q 832 689 820 683 m 682 686 l 684 683 l 684 680 l 688 683 l 691 683 l 697 677 l 682 677 l 675 683 l 678 686 l 682 686 m 741 686 l 751 686 l 751 683 l 744 677 l 741 680 l 741 686 m -101 673 l -94 673 l -94 658 l -101 652 l -104 652 l -104 664 l -98 664 l -98 667 l -107 667 l -101 673 m -88 670 l -73 670 l -73 661 l -79 661 l -88 670 m 713 670 l 713 664 l 703 664 l 703 658 l 713 658 l 713 648 l 709 648 l 697 658 l 697 652 l 684 652 l 684 654 l 691 654 l 691 658 l 688 667 l 697 661 q 713 670 697 668 m -35 661 l -25 661 l -25 654 l -35 654 l -35 661 m -63 658 l -57 658 l -47 633 l -47 626 l -44 626 q -35 639 -35 626 l -28 639 l -28 626 l -22 626 l -16 633 l 6 626 l 3 623 l 3 620 l 0 623 l -3 623 l -13 614 l -16 614 l -32 623 l -38 614 l -35 610 l -38 608 l -41 608 l -54 617 l -57 614 l -57 610 l -60 614 l -66 614 l -66 608 q -75 620 -71 608 l -79 623 l -85 623 l -85 617 q -69 585 -85 599 l -63 573 l -57 579 l -66 601 l -63 601 q -50 573 -56 601 l -41 573 l -41 576 l -44 585 l -38 585 l -32 570 q -47 551 -43 564 q -88 595 -81 551 l -92 598 l -94 598 l -92 601 l -92 608 q -110 617 -92 614 l -117 610 l -119 610 q -126 633 -119 625 l -126 639 q -104 645 -104 641 l -101 642 l -98 642 l -88 645 l -82 639 l -79 642 l -75 642 l -69 635 q -63 658 -63 643 m 273 633 q 292 608 283 633 l 295 608 l 301 614 q 307 604 307 614 l 311 601 l 314 601 l 320 608 q 311 629 311 615 q 282 639 282 629 l 279 639 l 273 633 m -136 617 l -129 617 l -129 604 l -136 610 l -136 617 m 279 614 l 279 610 l 301 585 l 301 583 l 314 598 l 311 598 l 295 595 l 282 614 l 279 614 m 637 617 l 641 617 l 641 601 l 631 610 l 637 617 m 735 617 l 751 617 q 738 604 745 604 l 738 598 l 741 601 l 747 601 l 747 595 l 732 595 l 732 601 l 735 617 m 9 614 l 9 608 l 15 608 l 18 610 l 22 610 l 22 604 l 9 601 l 3 610 l 6 614 l 9 614 m 31 610 l 34 608 l 34 601 l 31 601 l 24 608 l 28 610 l 31 610 m -13 608 l -9 608 l -3 601 l -7 598 l -9 598 l -13 601 l -13 608 m 716 591 l 722 591 l 738 589 l 732 583 l 728 585 l 728 579 q 738 573 738 579 l 735 570 l 722 573 l 726 576 l 726 585 q 716 591 716 585 m 634 585 l 641 585 l 641 566 l 631 566 l 631 570 l 634 573 l 634 576 l 631 576 l 634 585 m 634 554 l 641 554 l 641 538 q 628 472 641 507 l 622 472 l 625 475 l 625 479 l 622 481 l 622 485 l 628 491 l 625 491 q 631 541 631 505 l 628 545 q 634 554 634 545 m 986 541 l 989 541 l 989 535 l 983 529 l 980 532 l 980 535 l 986 541 m 81 494 l 87 488 l 87 485 l 81 485 l 81 494 m 769 488 l 779 488 l 779 481 l 769 481 l 769 488 m 540 479 l 543 475 l 543 472 l 537 466 l 534 466 l 534 472 l 540 479 m 650 479 l 659 479 q 666 469 666 479 l 663 466 l 669 425 l 663 425 l 663 437 q 656 425 656 437 l 653 422 l 650 422 q 641 428 650 428 l 641 431 q 659 463 648 431 l 650 469 l 647 469 q 637 441 641 469 l 634 441 l 628 450 l 628 454 l 634 454 q 650 479 634 473 m 779 472 l 785 472 l 785 435 l 779 435 l 776 456 l 779 472 m 81 463 l 87 463 l 87 460 l 81 454 l 81 463 m 553 463 l 559 463 l 559 460 l 549 450 l 549 454 l 553 463 m 59 454 l 66 454 l 72 447 l 75 435 l 72 435 l 59 450 l 59 454 m 572 444 l 578 444 l 584 437 l 581 435 l 578 435 l 572 441 l 572 444 m 584 428 l 587 425 l 587 422 l 584 419 l 581 419 l 578 422 l 578 425 l 581 428 l 584 428 m 521 425 l 524 425 l 528 412 l 518 412 l 518 416 l 521 425 m 625 368 l 615 359 l 609 359 q 625 368 609 366 m 521 359 l 528 359 l 530 343 l 528 343 l 521 350 l 521 359 m 257 309 l 257 299 l 260 299 l 263 309 l 257 309 m 238 296 l 241 293 l 241 290 q 232 258 235 282 l 232 256 l 235 256 l 248 290 l 241 296 l 238 296 m 267 287 l 260 271 l 263 268 l 270 268 q 279 277 270 277 l 279 281 l 267 287 m 999 283 l 1005 283 l 1005 218 l 999 218 l 996 233 l 999 237 l 1002 237 l 999 239 l 999 283 m 295 271 q 304 262 304 271 l 307 262 l 317 274 l 314 277 l 301 277 l 295 271 m 248 262 l 248 256 l 254 256 l 254 249 l 248 243 q 241 252 241 243 l 232 249 l 232 227 q 282 174 239 174 l 307 174 l 320 183 l 323 180 l 357 199 l 355 208 l 351 208 l 349 205 l 345 205 l 345 208 l 349 212 l 349 214 l 345 227 l 342 227 l 332 221 l 330 221 l 330 227 l 336 233 l 339 230 l 342 230 l 342 237 l 339 246 l 336 243 l 330 243 q 320 249 330 249 l 320 252 q 330 258 320 258 l 323 264 q 311 256 323 257 q 289 233 311 249 l 286 237 l 282 233 l 279 233 l 276 237 l 273 237 l 273 221 l 276 221 q 320 239 299 239 l 320 233 q 311 221 311 233 l 307 218 l 304 218 l 307 214 l 307 212 l 289 195 l 286 199 q 298 212 289 212 l 295 214 l 295 218 l 298 227 l 295 227 l 273 212 l 270 212 l 260 221 l 260 233 l 263 246 l 260 268 l 248 262 m 276 268 l 273 258 l 276 258 l 282 264 l 279 268 l 276 268 m 735 70 l 744 70 l 744 64 l 735 64 l 735 70 m 838 64 q 848 23 848 64 l 848 16 q 836 -5 836 16 l 829 -5 q 823 4 829 4 l 823 7 l 832 20 l 832 32 l 813 35 l 813 41 l 823 51 l 826 48 l 826 54 l 823 58 l 823 60 l 826 64 l 838 64 m 6 45 l 12 45 l 12 32 l 6 39 l 6 45 m 443 32 l 452 32 q 458 23 458 32 l 455 20 l 461 -18 l 455 -18 l 455 -8 q 449 -18 449 -8 l 446 -21 l 443 -21 l 439 -18 l 436 -18 l 452 16 l 436 23 l 436 26 l 443 32 m 273 26 l 273 23 l 279 16 l 282 16 l 279 26 l 273 26 m 229 4 l 238 4 l 238 -2 l 229 -2 l 229 4 m 641 4 l 647 -5 l 641 -12 q 622 -2 624 -12 l 641 4 m 678 1 l 684 -5 l 684 -8 l 678 -2 l 678 1 m 587 -2 l 593 -2 l 606 -31 l 597 -31 l 600 -33 l 600 -40 q 578 -62 578 -40 l 578 -75 l 572 -75 l 572 -50 l 565 -50 l 562 -46 l 559 -50 q 546 -77 557 -77 l 546 -87 l 540 -87 l 540 -77 l 534 -56 l 537 -56 q 546 -33 541 -56 l 549 -33 l 559 -40 l 555 -37 l 555 -33 q 574 -18 555 -26 l 593 -27 l 593 -21 l 597 -18 l 587 -8 l 587 -2 m 270 -5 l 273 -8 l 273 -12 l 276 -8 l 279 -8 l 286 -15 l 270 -15 l 263 -8 l 267 -5 l 270 -5 m 330 -5 l 339 -5 l 339 -8 l 332 -15 l 330 -12 l 330 -5 m 301 -21 l 301 -27 l 292 -27 l 292 -33 l 301 -33 l 301 -43 l 298 -43 l 286 -33 l 286 -40 l 273 -40 l 273 -37 l 279 -37 l 279 -33 l 276 -24 l 286 -31 q 301 -21 286 -23 m 631 -21 q 641 -37 638 -21 l 634 -37 l 631 -21 m 615 -33 l 622 -40 l 622 -50 l 618 -50 l 609 -37 l 612 -33 l 615 -33 m 528 -40 l 530 -43 l 530 -50 l 528 -65 l 524 -65 l 512 -58 l 512 -50 l 528 -40 m 663 -43 l 666 -43 l 672 -50 l 669 -52 l 666 -52 l 663 -50 l 663 -43 m 323 -75 l 339 -75 q 326 -87 334 -87 l 326 -93 l 330 -90 l 336 -90 l 336 -96 l 320 -96 l 320 -90 l 323 -75 m 222 -77 l 229 -84 l 229 -87 l 222 -87 l 222 -77 m 304 -100 l 311 -100 l 326 -102 l 320 -109 l 317 -106 l 317 -112 l 323 -112 l 323 -119 l 314 -119 q 304 -100 314 -108 z "},"'":{"ha":151,"x_min":3,"x_max":143,"o":"m 10 968 l 31 968 l 78 964 l 92 968 l 106 966 l 122 968 q 143 945 143 950 l 141 866 l 143 843 q 129 768 134 822 q 101 731 112 738 l 59 731 l 41 736 l 31 733 l 22 766 l 22 778 q 8 840 22 808 l 3 920 l 5 957 l 3 964 l 10 968 z "},"(":{"ha":286,"x_min":0,"x_max":274,"o":"m 252 857 l 266 857 l 271 852 l 271 849 l 266 849 l 274 836 l 274 833 l 271 825 l 274 811 l 274 749 l 269 743 l 266 743 l 263 746 l 260 743 l 255 743 l 244 751 l 236 746 l 233 754 l 222 746 l 214 746 l 212 749 l 209 749 l 206 746 l 203 749 l 190 722 l 195 716 l 195 694 l 190 651 l 190 648 l 193 629 l 190 627 l 187 627 l 193 586 l 190 562 l 193 548 l 187 540 q 193 467 193 513 l 193 448 q 184 442 193 442 l 184 439 l 190 439 l 190 437 l 187 429 q 193 420 193 429 l 190 418 l 193 404 l 193 372 l 187 363 l 193 355 l 187 317 l 193 301 l 193 279 l 187 271 l 190 269 l 190 266 l 187 258 q 195 190 193 241 l 193 187 l 190 187 l 193 174 l 190 171 l 190 168 l 193 157 l 184 157 l 184 155 q 198 127 195 155 l 222 106 l 225 109 l 228 109 l 247 106 l 252 111 l 266 111 l 274 103 l 274 84 l 269 76 l 274 71 l 271 57 l 274 27 l 274 22 l 271 3 l 220 0 l 198 3 l 174 0 l 157 3 l 146 0 q 130 8 146 5 l 122 5 l 117 11 l 114 8 l 111 8 l 57 24 q 14 73 14 55 l 19 79 q 8 100 11 79 l 11 111 l 5 117 l 5 127 l 3 152 l 5 163 l 3 171 q 11 184 9 171 q 3 214 5 184 l 5 217 l 0 222 l 3 233 l 0 236 l 0 239 l 3 241 l 3 244 l 0 252 l 3 255 l 3 258 l 0 260 l 0 263 l 5 290 l 0 296 l 0 323 l 3 334 l 0 342 l 3 345 l 5 345 l 0 361 l 0 377 l 5 385 l 0 391 l 0 464 l 3 475 l 0 486 l 0 543 l 3 545 l 0 548 l 0 551 l 3 613 l 0 632 l 5 637 l 0 643 l 5 656 l 3 659 l 3 662 l 8 689 l 3 694 l 3 700 l 8 705 l 3 722 l 8 730 l 5 732 l 5 738 l 11 746 l 8 749 l 8 751 q 14 765 8 765 l 11 768 l 11 776 q 60 833 34 823 l 68 830 q 81 841 69 836 l 84 838 l 87 838 l 109 844 l 111 841 q 171 854 111 854 l 174 852 l 176 852 q 252 857 191 857 z "},")":{"ha":296,"x_min":-105,"x_max":330,"o":"m 30 901 l 35 901 l 38 886 l 103 881 l 111 884 q 170 869 157 884 l 178 873 l 195 867 l 198 869 l 201 869 l 218 859 l 220 861 l 224 861 q 252 839 245 850 l 254 842 l 257 842 l 260 839 l 263 839 l 263 844 l 260 847 l 260 850 l 263 853 l 274 853 l 279 847 l 279 814 q 274 794 274 807 l 271 794 l 277 777 l 274 768 l 279 763 l 279 760 l 277 758 l 283 746 l 277 729 l 283 724 l 283 718 l 277 712 l 283 684 l 279 682 l 279 679 l 286 662 l 279 656 l 283 653 l 286 653 l 283 633 l 286 569 l 283 566 l 286 564 l 286 502 l 283 493 l 286 479 l 286 404 l 279 395 l 286 389 l 286 372 l 279 355 l 286 350 l 283 347 l 286 333 l 286 305 l 279 299 l 286 271 l 283 269 l 283 266 l 286 257 l 283 254 l 283 252 l 286 249 l 286 246 l 283 243 l 283 240 l 286 229 l 279 223 l 283 220 l 283 218 q 274 187 280 193 l 283 176 l 279 164 l 283 156 l 279 131 l 279 119 l 274 111 l 277 97 l 266 77 l 271 72 q 218 18 271 56 l 218 13 l 215 13 l 215 18 l 207 18 l 207 16 q 215 10 207 10 l 215 7 l 212 4 l 212 1 l 224 -4 l 227 -1 l 229 -1 l 246 -7 l 246 -4 q 257 10 246 6 l 263 4 l 271 4 l 266 21 l 260 21 l 260 30 l 263 30 l 277 7 l 277 4 q 263 -18 263 -11 l 254 -18 q 249 -9 254 -9 q 232 -32 237 -32 l 229 -32 q 224 -24 229 -24 l 224 -29 l 220 -29 l 218 -26 l 215 -26 l 215 -32 l 210 -32 l 207 -24 q 224 -9 220 -24 l 210 -1 l 207 -1 l 210 1 l 201 13 l 193 13 q 187 4 193 4 l 181 13 l 159 1 l 148 7 l 128 -1 l 119 1 q 103 -4 103 0 l 75 1 q 64 -4 64 1 l 69 -20 l 77 -20 l 77 -18 l 75 -9 l 80 -9 l 86 -24 q 72 -41 76 -28 q 35 -1 41 -41 l 18 1 l 5 1 l 1 21 l 1 26 l 5 58 l 1 75 l 7 80 l 1 85 l 1 105 l 10 114 l 24 114 l 33 109 l 52 111 l 52 109 q 80 142 80 125 q 86 156 86 142 l 94 159 l 94 161 l 86 161 l 89 173 l 86 184 l 89 193 l 86 195 l 83 195 q 92 266 86 249 l 89 274 l 92 282 l 86 288 l 86 311 q 92 325 87 325 l 86 364 l 92 378 l 86 384 l 86 417 l 89 429 l 86 440 l 92 446 l 89 454 l 94 454 l 94 456 q 86 463 86 456 l 86 482 q 92 555 86 538 l 86 566 l 89 578 l 86 608 l 92 648 l 89 650 l 86 650 l 89 670 l 89 673 l 83 718 l 83 741 l 89 749 l 75 771 l 75 774 l 72 771 l 69 771 l 66 774 q 58 768 66 768 l 60 766 l 60 760 q 41 741 41 760 l 41 729 l 35 729 l 35 751 l 30 751 l 27 755 l 24 751 q 13 726 22 726 l 13 715 l 7 715 l 7 726 l 1 746 l 5 746 q 13 766 8 746 l 16 766 l 24 760 l 16 768 l 16 771 l 13 768 l 7 768 l 1 774 l 1 825 l -35 833 l -37 822 q -68 853 -68 824 q -62 864 -62 853 l -37 864 l -26 861 l -15 864 l -15 861 q 10 878 10 866 l 5 878 l 5 881 q 33 886 5 886 l 30 889 l 30 901 m -99 864 l -91 864 l -91 859 l -105 859 l -99 864 m -52 844 l -46 833 l -37 833 l -37 836 l -46 844 l -52 844 m 260 827 l 260 825 l 266 814 l 269 814 l 269 825 l 260 827 m 75 766 l 80 760 l 80 751 l 77 751 q 69 763 73 751 l 72 766 l 75 766 m -3 760 l -1 758 l -1 751 l -3 738 l -7 738 l -18 743 l -18 751 l -3 760 m 291 41 l 313 33 l 313 30 l 311 26 l 313 24 l 313 21 l 308 16 l 296 16 l 291 21 q 308 26 308 21 q 291 35 308 33 l 291 41 m 277 21 l 286 21 l 279 16 l 277 16 l 277 21 m 288 4 l 291 4 l 296 -1 l 294 -1 l 288 4 m 47 -1 l 58 -20 l 64 -15 l 58 -1 l 47 -1 m 316 1 l 325 1 l 330 -4 l 330 -9 l 319 -12 q 311 -7 319 -7 l 311 -4 l 316 1 m 316 -15 l 319 -18 l 319 -20 l 316 -24 l 313 -24 l 311 -20 l 311 -18 l 313 -15 l 316 -15 z "},"*":{"ha":276,"x_min":0,"x_max":315,"o":"m 109 999 l 163 999 l 168 994 l 163 985 l 163 977 q 174 934 163 951 l 174 931 l 168 923 l 168 912 l 187 918 l 190 915 l 193 915 l 247 939 l 266 901 q 274 912 267 912 l 290 912 q 301 928 290 923 l 304 928 l 301 915 l 301 912 q 312 904 301 904 l 312 888 q 304 869 312 879 l 315 855 l 315 852 q 260 871 260 867 l 217 855 l 222 836 q 203 823 203 836 q 231 766 208 803 l 190 736 q 138 804 174 749 l 133 804 q 117 785 133 796 q 81 736 117 777 l 30 774 l 30 777 l 76 844 l 76 847 q 68 858 68 847 q 0 880 22 866 l 19 937 l 22 937 q 43 926 43 937 l 46 926 l 49 928 l 52 928 l 57 918 l 60 918 l 68 923 l 100 912 l 100 942 l 106 953 l 100 966 l 111 983 l 111 988 q 103 994 103 988 l 109 999 m 304 964 l 307 964 l 315 956 l 307 950 l 298 958 l 304 964 m 225 836 l 228 836 q 258 823 245 836 l 255 820 l 252 820 q 225 836 225 831 z "},"+":{"ha":520,"x_min":0,"x_max":515,"o":"m 195 686 l 241 683 l 279 686 l 285 680 l 288 683 l 290 683 l 293 680 l 296 680 l 312 686 l 317 686 l 323 680 l 323 653 l 320 642 l 323 640 l 323 637 l 320 599 l 323 558 l 317 553 l 323 547 l 323 536 l 320 526 l 323 517 l 320 517 l 323 515 l 323 493 l 353 493 l 361 488 l 366 493 l 385 493 l 388 490 l 391 493 l 396 493 l 399 490 l 401 493 l 510 493 l 515 488 l 515 479 l 513 477 l 515 474 l 515 466 l 513 463 l 515 460 l 515 439 l 510 406 l 515 401 l 515 368 q 507 363 515 363 l 380 366 l 353 363 l 353 366 l 350 363 l 347 363 l 345 366 l 331 363 l 323 363 l 323 338 l 317 330 l 323 325 l 320 317 l 323 271 l 323 178 l 317 173 l 266 173 l 241 176 l 239 173 l 236 173 l 233 176 l 231 176 l 195 173 l 193 176 l 193 178 l 195 189 l 193 200 l 193 203 l 198 203 l 198 211 l 193 211 l 193 216 l 195 219 l 193 222 l 193 254 l 195 273 l 193 298 l 193 333 l 195 349 q 184 366 192 366 l 141 363 l 133 368 l 125 363 l 114 363 l 106 366 l 92 363 l 43 366 l 3 363 l 0 366 l 0 387 l 3 398 l 0 409 l 3 412 l 3 414 l 0 425 l 3 428 l 0 441 l 0 460 l 3 477 l 0 490 l 3 493 l 49 493 l 60 490 l 71 493 l 119 493 l 127 488 l 133 488 l 141 493 l 193 493 l 193 561 l 195 572 l 193 585 l 195 602 l 193 621 l 195 631 l 193 656 l 193 680 l 195 683 l 195 686 z "},",":{"ha":106,"x_min":3,"x_max":98,"o":"m 47 127 l 63 122 l 63 127 l 93 127 l 98 122 l 98 95 q 25 -52 98 -27 l 6 -54 l 3 -54 l 3 -19 q 28 16 28 0 q 12 27 12 16 l 3 33 l 6 52 l 6 76 l 25 122 l 47 127 z "},"-":{"ha":307,"x_min":3,"x_max":758,"o":"m 22 512 l 39 509 l 41 512 l 50 512 l 50 509 l 96 512 l 120 512 l 185 509 l 250 512 l 280 512 q 286 504 286 512 l 283 490 l 286 466 l 286 460 l 283 436 l 286 428 l 283 428 q 296 404 286 404 l 304 395 l 304 393 l 302 390 l 302 387 q 307 379 307 387 l 332 382 l 332 379 l 334 382 l 340 382 q 345 374 345 382 l 342 366 q 356 328 349 366 l 334 319 l 332 319 l 332 314 l 334 311 l 334 309 l 332 309 l 323 314 l 318 314 l 304 311 l 283 336 l 283 341 l 291 352 l 291 355 q 283 366 283 355 l 280 366 l 272 360 l 269 360 q 264 371 269 371 l 261 357 l 256 357 l 256 360 l 258 374 l 245 371 l 199 374 l 161 371 l 150 374 l 120 371 l 71 371 l 44 374 l 20 371 l 9 371 l 6 374 l 3 374 l 9 428 q 3 458 3 439 l 3 463 l 6 493 l 3 509 l 6 512 l 22 512 m 302 431 l 307 425 l 307 422 l 302 417 l 299 417 l 294 422 l 302 431 m 755 406 l 758 406 l 758 395 l 755 395 l 749 401 l 755 406 m 291 360 l 296 360 l 299 374 q 291 360 293 374 m 359 328 l 361 328 q 391 314 378 328 l 389 311 l 386 311 q 359 328 359 323 z "},".":{"ha":159,"x_min":-41,"x_max":202,"o":"m 34 178 q 40 174 37 174 q 44 170 41 170 l 45 170 l 45 170 l 44 169 l 43 170 l 43 167 l 43 164 q 45 163 45 163 l 47 163 q 50 158 50 158 l 50 158 l 50 157 q 52 155 50 155 l 55 150 q 60 144 58 148 q 61 143 61 144 q 64 140 63 143 q 66 137 65 140 q 68 134 66 137 q 69 134 69 134 l 69 134 l 69 133 q 71 132 70 133 q 72 130 72 132 q 75 127 73 130 q 77 123 76 126 q 79 120 79 122 l 79 120 l 79 119 q 81 118 80 119 l 83 116 l 84 115 l 83 115 l 83 114 q 87 108 85 114 q 93 98 91 98 l 93 98 l 94 98 l 94 98 l 94 98 l 95 98 l 95 98 l 96 98 l 96 98 l 96 98 l 100 98 l 101 98 l 101 98 l 101 98 l 102 98 l 106 99 l 109 98 l 113 100 l 113 101 q 110 105 113 102 q 108 113 109 106 l 108 116 q 105 123 107 122 q 102 130 104 125 q 100 133 100 130 q 99 136 100 134 l 99 136 l 99 138 l 99 138 l 99 138 l 99 140 q 94 147 97 144 q 87 153 88 150 q 85 156 87 153 l 86 156 q 87 154 87 155 l 87 153 l 87 153 l 87 153 l 92 153 l 92 153 q 90 156 91 153 q 88 159 88 158 l 88 159 l 87 159 q 85 161 85 160 l 86 164 l 86 166 q 90 172 87 172 l 90 172 q 94 171 92 172 l 94 171 l 96 171 q 100 167 100 168 l 100 166 q 98 163 98 165 q 100 159 98 161 l 102 156 l 102 155 l 102 156 l 101 156 l 101 155 l 101 155 l 101 155 q 104 152 102 152 l 105 152 l 105 153 l 105 153 l 105 153 l 105 153 l 105 154 l 104 153 l 103 153 q 102 155 102 153 q 105 155 105 155 l 105 154 l 105 154 q 106 155 105 155 q 106 152 106 155 q 107 151 107 152 l 106 151 l 105 151 l 104 151 l 104 151 q 101 153 101 152 l 100 152 l 100 152 l 100 153 l 100 153 l 99 152 l 99 151 l 100 151 l 102 151 q 106 149 106 150 l 108 149 l 108 149 l 108 149 l 109 149 l 111 149 q 112 144 112 146 l 112 144 q 109 142 111 142 l 109 141 l 109 140 l 109 140 l 109 140 l 109 139 l 109 139 l 109 140 q 106 136 108 139 l 106 136 l 106 136 q 109 134 106 134 q 111 132 110 134 q 115 130 112 130 l 116 130 q 119 128 119 129 l 119 125 q 120 122 119 123 l 120 119 l 120 119 l 120 119 q 125 113 125 116 q 130 105 127 111 q 132 102 132 103 l 132 102 l 132 101 q 136 100 132 100 q 139 98 136 98 l 139 97 l 139 96 l 139 96 l 139 96 l 140 96 q 144 98 142 98 l 146 96 l 146 96 q 144 93 144 94 l 145 93 l 145 93 l 145 93 l 145 93 l 146 94 l 146 93 l 146 94 l 146 94 q 153 92 153 94 l 153 92 l 153 92 q 159 94 157 94 q 163 97 163 96 l 163 97 l 163 97 l 163 97 q 169 98 165 98 l 174 97 l 174 97 l 174 96 l 178 93 l 178 93 q 176 90 178 92 l 178 89 l 177 88 l 178 87 l 177 87 l 178 85 l 180 86 l 180 85 q 180 85 180 85 l 180 83 l 182 85 l 183 85 q 189 83 184 85 q 193 81 190 83 q 197 81 195 81 l 197 81 l 198 81 l 199 81 q 202 77 201 81 q 199 71 201 73 l 199 71 l 199 73 l 199 73 l 199 72 l 198 72 q 195 74 198 73 l 195 74 l 195 73 l 195 73 l 197 73 q 198 71 197 72 l 198 71 l 198 71 l 196 71 l 195 71 l 195 71 q 186 75 191 74 l 186 75 l 186 75 l 185 75 l 184 75 l 184 75 l 184 75 l 184 75 l 184 75 l 184 75 l 183 75 l 183 75 l 183 75 l 182 75 l 182 75 l 182 75 q 178 77 179 76 l 178 77 l 176 75 l 175 75 l 175 75 l 176 76 l 176 76 l 175 76 q 168 73 168 74 q 163 71 164 71 l 163 71 l 161 71 l 161 72 l 162 73 l 162 74 q 158 71 159 74 l 157 71 l 155 71 l 155 71 q 153 68 155 71 l 153 68 q 154 68 154 68 q 154 67 154 68 l 153 66 l 153 66 l 153 67 q 151 66 153 66 l 150 64 l 151 63 q 149 62 149 63 l 148 62 q 142 60 144 62 l 143 59 l 143 58 l 144 57 l 143 56 q 142 58 142 57 l 142 58 l 142 58 l 142 58 l 142 58 q 141 60 141 58 l 142 60 q 140 62 140 60 l 140 62 q 138 60 140 60 l 138 60 q 140 59 140 60 l 140 59 q 138 58 140 58 l 138 58 q 136 56 136 58 q 134 55 134 56 q 132 54 134 54 q 136 50 132 50 q 140 40 138 41 q 142 39 140 39 l 142 39 l 142 39 l 140 38 l 140 37 l 140 36 l 141 36 l 142 37 l 143 36 l 143 36 l 142 36 q 147 33 142 33 q 148 34 147 34 l 148 35 l 149 35 l 149 35 l 149 35 q 150 36 149 35 l 151 36 q 152 35 152 35 l 151 33 q 153 31 153 32 l 153 30 l 154 28 l 154 27 l 153 26 l 153 26 l 154 25 l 154 24 l 153 24 l 153 24 l 152 25 l 152 26 l 152 26 q 145 28 145 27 l 144 28 l 144 27 q 146 26 146 27 l 146 26 l 146 26 l 144 26 l 144 26 l 143 26 l 143 25 l 143 25 q 146 24 143 24 l 146 24 l 146 23 q 143 22 144 23 l 140 20 l 138 22 l 138 22 l 138 20 l 138 20 l 138 20 l 139 21 l 139 20 l 138 19 l 138 18 l 139 18 q 138 14 138 16 l 138 14 l 138 14 l 138 12 l 138 12 l 138 11 l 138 10 l 137 10 q 136 13 136 10 l 136 13 l 136 9 q 136 9 136 9 l 135 9 l 134 11 l 135 12 l 134 12 l 135 13 l 135 14 l 134 14 q 133 12 133 14 q 132 11 132 12 l 131 9 l 130 9 q 130 10 130 9 l 130 10 l 130 9 q 130 8 130 8 l 130 7 l 130 7 l 130 7 l 130 6 l 130 5 q 129 6 129 5 l 128 7 l 128 8 l 128 8 l 128 8 q 127 7 127 8 q 126 6 126 7 l 125 7 l 125 7 l 125 7 l 125 7 q 127 2 126 3 l 127 1 l 127 1 l 126 1 l 125 1 l 125 1 l 125 1 l 125 1 l 125 1 l 125 1 l 125 1 l 124 1 q 123 3 124 2 q 121 5 123 4 l 120 7 l 120 7 l 120 8 l 119 8 l 119 7 q 117 9 117 7 l 115 8 q 111 12 114 8 l 111 12 q 108 10 110 10 l 108 10 l 108 9 l 109 9 l 109 9 l 109 9 l 108 9 l 108 9 q 109 7 109 9 l 108 7 l 109 7 l 109 7 l 109 7 l 109 7 l 109 6 l 109 7 l 112 7 l 113 5 l 112 5 l 111 5 q 111 5 111 5 q 106 4 110 4 l 106 4 l 106 5 l 106 5 l 106 4 l 106 5 l 104 4 l 104 5 l 103 4 l 102 4 l 102 4 l 102 3 l 102 3 l 102 3 l 103 3 l 103 3 q 100 2 102 2 q 101 3 100 3 l 101 3 l 100 3 l 98 2 q 97 2 98 2 l 97 3 l 94 2 l 94 2 l 95 1 l 95 1 l 94 1 l 92 1 l 92 1 l 92 1 q 91 1 92 1 l 91 1 l 89 2 q 86 1 87 2 l 86 1 q 83 0 84 0 l 82 0 l 82 -1 l 82 -1 l 82 -1 l 82 -1 l 82 -1 l 81 -1 l 74 -3 l 74 -4 q 77 -5 76 -4 l 77 -5 l 77 -5 l 76 -5 l 76 -6 l 77 -6 l 77 -5 l 77 -5 l 77 -6 l 77 -5 l 77 -5 l 78 -6 l 79 -6 l 79 -5 l 78 -5 l 78 -5 q 81 -3 81 -5 l 83 -2 q 84 -3 83 -3 l 84 -3 l 84 -3 q 87 -2 87 -2 l 89 -2 l 89 -2 q 87 -3 89 -3 l 87 -3 l 87 -3 q 94 -1 91 -3 l 94 -1 l 94 -1 q 92 -3 94 -3 l 91 -3 q 88 -5 88 -5 l 89 -5 l 89 -6 l 88 -6 l 87 -5 l 87 -6 q 87 -6 87 -6 l 87 -7 l 87 -7 l 90 -7 l 90 -7 q 92 -7 91 -7 q 94 -5 92 -5 q 97 -4 94 -5 q 98 -5 97 -5 l 100 -5 l 100 -5 l 100 -5 q 102 -4 100 -4 l 102 -5 l 99 -7 l 99 -7 l 102 -7 l 101 -7 l 101 -7 l 102 -6 l 104 -7 l 107 -4 q 106 -3 106 -4 l 106 -3 l 106 -3 l 106 -4 l 106 -4 l 106 -4 q 104 -3 106 -3 l 104 -3 l 104 -2 l 104 -2 l 104 -2 l 104 -1 l 105 -2 l 105 -1 l 106 -1 q 109 -4 108 -4 l 109 -3 l 109 -4 l 109 -5 l 109 -5 l 111 -5 l 111 -5 l 113 -7 l 113 -8 q 113 -9 113 -9 l 113 -9 l 113 -9 l 113 -10 l 113 -10 l 113 -10 l 113 -11 l 115 -9 l 113 -9 l 113 -8 l 114 -8 l 115 -9 l 115 -7 l 116 -7 l 117 -7 q 117 -7 117 -7 l 118 -7 l 117 -9 l 118 -10 l 117 -12 l 118 -12 l 118 -13 l 118 -13 l 119 -16 l 119 -16 l 118 -16 q 117 -14 117 -16 l 117 -14 l 117 -14 l 116 -13 q 113 -14 115 -14 l 113 -16 l 113 -17 l 113 -17 l 115 -16 l 116 -17 q 113 -20 114 -19 l 115 -21 l 115 -21 l 114 -21 l 114 -22 q 115 -22 115 -22 l 115 -24 q 115 -24 115 -24 l 117 -24 l 118 -25 l 118 -26 q 119 -27 119 -26 q 119 -28 119 -27 l 119 -30 l 119 -31 l 119 -31 l 92 -31 l 91 -30 l 89 -31 q 87 -28 88 -28 l 83 -26 l 83 -26 l 81 -26 l 81 -24 l 81 -24 q 83 -22 81 -23 l 84 -20 l 83 -20 l 83 -19 l 83 -18 q 81 -16 83 -18 l 81 -14 q 80 -13 81 -13 l 79 -13 l 77 -15 q 73 -13 74 -15 l 73 -12 l 73 -12 l 71 -13 l 71 -12 l 72 -11 l 74 -11 l 75 -9 l 73 -9 l 73 -9 l 68 -11 l 68 -10 l 68 -11 l 68 -11 l 68 -10 l 67 -11 l 66 -11 q 65 -10 66 -10 q 64 -11 65 -11 q 66 -14 66 -13 q 66 -16 66 -16 l 66 -16 l 66 -16 l 66 -19 l 66 -19 l 66 -19 l 66 -19 l 66 -19 l 65 -19 q 64 -18 65 -19 q 63 -16 63 -17 l 63 -16 l 62 -16 l 61 -14 l 61 -13 q 58 -10 59 -10 q 56 -9 57 -9 l 55 -8 l 54 -8 l 54 -9 l 54 -9 q 51 -5 54 -7 l 50 -5 l 50 -4 l 50 -4 l 50 -5 l 48 -2 l 53 2 l 54 1 l 55 1 l 55 1 q 54 2 54 1 q 56 5 56 3 l 56 6 l 56 9 l 56 10 l 56 10 l 56 13 l 56 14 q 54 18 54 17 l 54 18 l 54 18 l 53 18 l 53 18 l 53 19 l 55 20 l 56 20 q 57 21 56 20 l 58 20 l 58 20 q 61 21 58 21 l 62 21 q 65 23 62 22 q 64 24 65 24 l 64 24 q 65 24 65 24 l 65 28 q 64 29 64 28 l 64 29 l 64 28 l 64 28 l 64 29 q 62 31 62 29 l 62 31 l 62 31 l 63 31 l 63 31 q 64 32 63 32 l 64 32 l 64 30 l 64 30 l 64 31 l 64 32 l 65 33 l 64 33 l 65 34 l 65 35 l 65 35 l 65 35 l 65 35 l 65 35 l 65 37 l 60 36 l 60 35 l 60 35 l 61 35 l 60 34 l 59 34 l 60 35 l 59 35 q 58 33 58 35 l 58 33 l 58 33 l 59 33 l 59 33 l 58 32 l 58 32 l 59 32 q 58 31 59 31 l 58 31 l 58 31 l 58 31 l 58 31 l 58 31 l 58 31 l 58 31 q 57 29 57 31 l 58 28 l 57 27 l 57 26 l 57 26 l 57 26 l 56 26 q 55 26 55 26 l 55 25 l 57 25 l 57 24 l 56 24 l 56 24 l 56 24 q 55 23 56 23 q 54 22 55 22 l 54 22 q 53 23 54 22 q 54 24 54 24 l 53 25 q 52 24 53 24 l 53 24 l 52 22 l 52 22 l 52 22 l 52 24 l 52 24 q 50 29 50 26 l 50 29 l 50 31 l 50 32 l 50 34 l 50 34 l 50 34 l 49 34 l 49 34 l 48 34 l 48 29 l 47 29 l 47 29 l 47 30 q 47 31 47 31 q 43 33 45 33 q 39 38 41 33 q 33 47 33 43 l 33 47 l 33 48 q 30 50 33 49 l 28 51 l 29 51 l 29 51 l 28 51 l 28 50 l 28 50 q 26 52 26 51 l 26 52 l 25 52 q 21 55 22 54 q 20 57 20 55 l 18 58 l 18 57 q 16 58 18 58 l 16 58 l 16 58 q 10 62 14 58 q 5 66 6 64 q -1 73 3 68 q -12 81 -4 73 q -14 83 -12 82 q -17 86 -14 84 l -18 86 q -26 90 -22 87 l -34 94 q -40 100 -40 100 l -40 101 q -41 103 -41 101 q -37 110 -41 107 l -37 110 l -35 111 l -34 111 l -31 111 l -31 111 q -17 103 -22 109 q -9 96 -14 100 q -7 94 -8 96 l 0 91 q 9 84 9 86 q 16 81 9 83 q 19 78 18 78 l 20 78 l 19 77 l 20 77 l 20 77 l 20 77 q 21 77 21 77 l 22 77 l 22 77 l 22 76 l 22 76 l 22 75 l 22 75 q 22 77 22 77 q 26 73 24 74 l 26 73 l 27 73 l 28 73 l 27 71 l 28 71 l 28 71 l 28 71 q 29 74 28 74 q 37 71 36 72 l 38 70 l 39 70 q 50 78 50 75 q 47 81 50 79 l 46 83 l 46 84 q 40 89 41 87 q 41 92 40 90 l 42 92 q 43 93 42 93 l 43 93 l 43 94 l 42 93 l 41 94 l 39 92 q 38 94 38 93 q 36 92 36 94 l 35 93 l 35 93 l 35 92 l 34 92 l 34 93 l 34 95 l 34 96 l 33 96 l 33 95 l 33 95 l 32 95 l 31 95 l 31 96 l 31 96 l 31 95 l 31 95 l 30 96 l 31 97 l 29 96 q 22 104 24 101 q 12 115 20 105 q 9 117 11 116 l 10 117 q 5 122 5 120 l 5 122 l 5 121 l 5 122 l 5 122 l 5 122 l 5 123 q 2 126 4 123 q -1 130 1 126 l -3 131 q -5 132 -3 132 q -14 142 -13 139 q -15 148 -15 145 l -15 150 q -12 155 -13 155 q -10 156 -12 156 l -9 156 l -9 156 l -7 157 q 3 149 -5 156 q 7 144 3 147 l 8 142 q 9 141 9 142 l 9 140 l 13 137 q 14 134 14 136 l 14 134 q 20 132 15 134 q 23 128 21 132 q 31 120 25 125 q 34 117 33 119 l 34 117 l 34 116 l 34 116 q 39 111 38 113 l 39 110 l 40 111 l 41 111 q 41 109 41 109 l 41 108 l 41 108 l 42 109 l 43 108 l 42 108 l 42 106 l 42 106 q 41 104 41 106 l 41 104 l 41 104 q 41 104 41 104 l 42 104 l 42 104 l 42 104 l 43 105 l 43 105 l 43 106 l 43 106 q 44 104 44 106 l 43 104 l 43 104 l 43 104 l 43 104 l 45 104 l 44 104 l 44 104 l 45 104 l 46 104 l 46 104 l 46 103 l 47 104 l 47 104 l 47 103 l 47 103 l 47 102 q 50 101 49 102 l 50 101 l 49 101 l 49 101 l 50 101 l 50 101 l 50 99 l 51 100 l 51 100 l 52 99 l 52 98 l 52 98 l 52 98 l 52 98 l 52 98 l 52 98 l 53 98 l 53 98 q 56 95 53 97 l 56 94 l 56 94 l 56 94 l 56 94 l 56 94 l 56 94 l 56 94 l 56 94 l 56 94 q 57 93 57 94 q 56 91 56 91 l 56 90 q 57 90 56 90 l 58 91 l 57 92 l 57 92 l 57 92 l 61 92 l 61 91 l 61 91 l 64 92 l 65 91 l 65 92 l 66 92 l 66 91 l 66 92 l 68 92 q 72 95 70 92 q 66 102 72 96 q 62 111 63 106 l 63 111 q 61 114 63 112 q 60 115 61 115 l 60 116 l 60 117 l 56 122 q 51 130 52 128 l 43 143 q 35 151 39 150 q 27 161 27 159 q 24 166 27 163 l 24 168 q 26 173 26 170 q 32 177 30 177 l 34 178 m 28 172 l 28 171 l 27 170 q 37 166 37 168 l 37 164 l 37 164 l 37 163 l 37 162 l 37 162 q 39 163 38 163 q 41 165 41 163 l 41 168 l 41 170 q 35 171 36 171 l 34 171 l 28 172 m 37 169 l 38 168 l 38 168 l 37 168 l 37 168 l 37 168 l 37 169 m 102 165 q 104 161 104 163 l 104 161 l 102 161 q 101 165 102 161 l 102 165 l 102 165 m 45 161 q 45 161 45 161 l 45 160 l 45 160 l 45 159 q 45 157 45 159 l 45 156 l 47 156 l 47 157 l 46 157 l 47 159 l 47 159 q 45 161 45 161 l 45 161 m 37 160 l 37 159 l 37 160 l 37 160 l 37 160 m 98 157 q 97 156 98 156 l 97 156 l 98 156 l 98 156 l 98 157 l 98 157 m 37 157 l 37 155 l 37 155 l 37 155 l 37 155 l 37 156 q 37 157 37 156 l 37 157 m 38 155 l 37 154 l 38 154 l 39 154 l 39 155 l 38 155 l 38 155 m -3 149 l -3 149 l -2 149 l -1 149 l -1 149 l -3 149 m -1 147 l -1 144 l -2 144 l -2 144 l -3 144 l -3 144 l -3 144 l -3 144 l -3 144 q -3 142 -3 144 q 0 141 -1 142 l -1 140 l 0 140 l 0 140 q -1 140 0 140 q -2 140 -2 140 l -2 140 l -3 140 l -3 140 l -3 140 l -3 140 l -4 141 l -5 141 l -5 140 l -4 138 l -2 139 l -1 138 q -1 139 -1 139 l 0 139 q 2 140 0 140 l 1 140 l 1 140 l 2 140 l 2 140 l 3 140 q 3 142 3 142 l 3 142 l 3 142 l 3 143 l 3 144 l 3 144 l 3 144 l 3 144 l 3 144 l 3 145 l 0 147 l -1 148 l -1 147 m 53 147 l 53 146 q 55 144 53 144 l 55 144 l 56 144 l 56 144 q 54 146 55 144 l 54 146 l 54 147 l 53 147 m 1 144 l 1 144 l 1 144 l 1 144 l 1 144 l 1 144 l 1 144 m 13 134 l 13 133 l 14 132 l 14 132 l 14 133 l 14 134 l 13 134 m 12 130 l 13 130 l 13 130 l 13 130 l 13 131 l 12 130 m 12 130 l 12 129 l 13 128 l 12 128 l 12 129 l 12 129 q 12 128 12 129 l 13 127 l 13 128 l 14 128 l 14 128 l 13 127 l 13 127 l 12 127 l 12 127 q 11 126 12 126 l 12 125 l 12 125 l 12 125 l 12 125 l 12 123 l 12 123 l 13 124 l 14 123 l 14 123 l 13 123 q 12 122 13 122 l 12 121 l 13 122 l 14 122 q 12 121 14 121 l 12 121 l 13 121 q 14 122 14 122 l 14 121 l 15 121 l 15 122 l 14 122 l 15 123 l 15 123 l 15 122 q 17 123 16 122 l 18 123 l 18 123 l 18 123 l 18 123 l 18 123 q 15 127 18 125 l 14 129 l 15 129 l 15 130 l 12 130 m 65 128 l 65 127 l 65 127 l 65 128 l 65 128 m 6 121 l 6 121 l 7 121 l 7 121 l 6 121 m 74 121 l 74 119 q 75 121 75 119 l 74 121 m 73 119 l 73 119 l 73 119 l 73 119 l 73 119 m 77 119 l 77 119 l 79 119 l 79 119 l 77 119 m 75 117 l 77 117 q 77 118 77 118 l 77 118 l 77 118 l 75 117 m 37 106 l 37 106 l 37 106 l 37 106 l 38 106 l 37 106 l 37 106 m 35 106 l 35 106 l 35 105 l 35 105 l 35 105 l 35 105 l 35 106 l 37 106 l 35 106 m 39 106 l 39 106 l 39 106 l 39 106 l 39 106 m 41 106 l 40 105 l 40 105 l 41 105 l 41 106 m 45 102 l 45 102 l 45 102 l 45 102 l 45 102 m -23 101 l -23 100 q -21 99 -22 99 l -20 99 l -20 98 l -20 98 l -20 100 q -22 102 -22 101 q -23 101 -23 101 m 43 101 l 43 100 l 43 100 l 43 100 l 43 100 l 43 101 m 39 100 l 40 100 l 41 100 l 40 100 l 39 100 m 49 99 l 49 99 l 50 100 l 50 100 l 49 99 m 45 98 l 45 98 l 43 98 l 44 96 l 43 95 l 45 94 l 45 94 q 45 95 45 95 l 44 95 l 44 96 q 45 96 45 96 l 46 96 l 45 97 l 46 97 l 47 96 l 47 97 q 46 98 47 98 l 45 98 l 45 98 l 46 98 l 46 98 l 45 99 l 45 98 m 33 98 l 33 98 l 33 97 l 33 97 l 33 98 l 33 98 m 35 97 l 35 97 l 35 98 l 35 97 m 163 98 l 163 98 l 162 97 l 162 98 l 162 98 l 162 98 l 163 98 m 36 97 l 35 96 l 35 96 l 35 96 l 37 97 l 36 97 m 39 96 l 39 96 l 41 96 l 41 97 l 39 96 m 45 95 l 45 94 l 46 94 l 46 94 l 46 95 l 45 95 m 47 95 l 49 94 l 49 94 l 49 94 l 48 95 l 47 95 m 33 94 l 34 94 l 33 94 l 33 94 l 33 94 l 33 94 m 45 92 l 44 91 l 45 91 l 45 92 l 45 92 l 45 92 m 49 92 l 49 91 l 50 91 l 50 92 l 49 92 m 47 90 l 47 89 l 49 89 l 49 90 l 48 90 l 47 90 l 47 90 m 54 90 q 48 85 53 89 l 48 85 l 56 89 q 54 90 56 90 m 125 90 l 125 90 l 125 89 l 125 89 l 125 90 l 125 90 m 154 89 l 155 89 q 157 89 157 89 l 158 89 l 158 89 l 157 90 l 157 90 q 154 89 154 89 m 70 83 l 69 83 l 68 83 q 68 82 68 83 q 70 81 70 82 l 70 81 l 69 80 q 68 81 69 81 q 66 81 68 81 l 67 80 l 67 80 q 66 79 66 79 q 68 77 66 77 l 68 77 q 68 77 68 77 l 68 77 q 68 79 68 79 l 68 79 l 68 79 l 68 79 l 68 79 l 69 79 q 71 77 69 78 l 71 77 l 71 77 l 72 77 l 73 77 l 73 77 q 73 77 73 77 l 72 77 l 72 78 l 74 79 l 74 78 l 75 78 l 76 80 l 76 81 l 75 80 q 73 82 73 81 q 72 83 72 82 l 70 83 m 181 77 l 181 77 l 182 77 l 183 79 l 182 79 q 182 77 182 79 l 181 77 m 182 78 l 183 77 l 183 77 l 182 77 l 184 77 l 184 78 q 183 79 183 78 l 182 78 m 75 77 q 76 77 75 77 l 76 77 l 75 75 l 75 75 q 75 77 75 75 l 74 77 l 75 76 l 73 76 l 73 76 l 74 75 l 75 75 l 75 75 l 76 75 l 76 75 l 75 74 l 75 74 l 75 75 l 75 75 l 75 75 l 75 75 l 75 75 l 74 74 l 74 74 l 74 74 l 74 73 l 75 72 l 75 73 l 76 73 l 76 72 l 76 71 l 77 71 l 77 73 l 78 72 q 77 71 78 71 l 77 71 q 78 70 77 70 l 78 70 l 78 70 l 79 70 l 79 69 l 78 69 l 78 68 q 80 66 80 67 l 81 66 l 81 67 l 81 68 l 81 67 l 81 67 l 81 68 q 79 70 81 68 l 81 71 l 81 71 l 81 71 l 80 71 l 80 71 l 79 71 l 79 71 l 79 71 l 79 71 q 78 73 79 71 l 78 73 l 79 73 l 79 73 l 79 73 l 79 73 l 78 73 l 78 73 l 78 74 q 79 75 79 74 l 79 75 l 79 75 q 78 74 79 74 l 77 74 l 77 75 l 78 75 l 76 77 l 75 77 m 185 77 l 185 76 l 185 76 l 186 76 l 186 77 l 185 77 m 187 77 l 187 77 l 187 77 l 187 75 l 187 75 q 188 77 188 75 l 187 77 m 189 76 l 189 75 l 189 75 l 189 75 l 190 75 q 191 74 190 74 l 191 75 l 192 74 l 192 74 l 193 74 l 193 73 l 193 73 l 193 73 l 194 73 l 194 73 l 194 74 q 193 75 194 75 l 192 75 q 190 75 192 75 l 190 75 l 190 75 l 190 76 l 190 76 l 189 76 m 190 75 l 191 75 l 191 75 l 190 75 l 190 75 m 73 74 l 73 74 l 73 74 l 73 75 l 73 74 m 76 75 l 76 75 l 77 74 l 76 73 l 75 73 l 75 73 l 76 75 m 79 73 l 79 72 l 79 72 l 79 72 l 79 71 l 80 71 l 80 72 l 79 72 l 80 73 l 79 73 m 24 69 l 24 69 l 25 70 l 25 70 l 24 69 m 76 69 l 77 69 l 77 70 l 76 69 m 80 69 l 80 69 l 80 68 l 80 68 l 79 68 l 80 69 m 24 68 l 24 67 l 24 67 l 24 68 l 24 68 l 24 68 m 18 66 l 18 66 l 18 65 l 19 66 l 19 66 l 18 66 m 29 64 l 28 64 l 29 63 l 28 63 l 28 62 l 29 62 l 29 62 l 28 61 l 27 62 q 28 60 27 60 l 28 59 l 28 59 q 31 61 28 61 l 31 63 l 30 63 l 29 62 l 29 63 l 30 64 l 29 64 m 28 64 l 28 63 l 28 63 l 28 64 l 28 64 m 24 62 l 24 61 l 25 61 l 25 62 l 25 62 l 24 62 m 42 60 l 41 56 q 42 55 41 56 l 43 55 l 43 57 l 43 58 l 42 60 m 23 56 l 23 56 l 24 57 l 24 58 q 23 56 23 58 m 59 58 l 59 56 l 60 56 l 60 58 l 59 58 m 64 55 l 64 55 l 64 55 l 64 56 l 64 55 m 41 55 l 41 54 l 41 54 l 41 55 l 41 55 m 58 55 l 60 54 l 60 54 l 60 54 l 60 54 l 60 55 l 60 55 l 60 55 l 58 55 m 144 55 l 144 55 l 144 54 l 144 54 l 143 54 l 144 55 m 42 54 q 41 53 42 53 l 40 52 l 41 52 l 41 52 l 41 52 l 42 52 l 42 53 l 42 53 l 42 54 l 42 54 l 42 54 m 46 54 l 46 53 l 46 53 l 47 54 l 47 54 l 47 54 l 46 54 m 59 50 l 60 50 l 60 50 l 60 50 l 60 51 l 60 51 l 60 52 l 60 52 l 61 52 l 61 52 l 62 51 l 63 51 l 63 50 l 63 50 l 63 50 q 65 49 64 50 l 65 48 l 66 48 l 66 50 l 66 50 q 66 49 66 49 l 68 49 l 67 48 l 67 48 l 68 48 q 68 48 68 48 l 67 50 l 66 50 q 65 51 66 50 l 65 50 q 64 50 64 50 l 64 51 q 62 52 62 52 l 62 52 l 62 52 l 62 52 l 62 52 l 63 52 l 63 52 l 63 53 l 62 54 l 61 54 q 59 50 60 54 m 54 54 l 55 52 q 53 51 54 51 q 54 50 54 50 l 54 48 l 54 48 l 54 49 l 55 49 l 56 48 q 57 49 56 49 l 57 50 l 57 50 l 57 50 q 59 48 58 48 l 59 48 l 59 48 q 58 49 58 48 l 59 50 l 58 50 l 58 52 l 59 54 l 58 54 l 58 54 l 57 54 l 56 53 l 56 53 l 55 54 l 54 54 m 37 52 l 38 52 l 38 52 q 39 52 38 52 q 38 53 39 53 l 37 52 m 45 52 l 45 52 l 46 52 l 46 53 l 45 52 m 47 53 l 46 50 l 47 50 q 47 48 47 50 l 50 49 l 50 49 l 47 50 l 48 50 q 47 51 47 50 l 48 53 l 47 53 m 48 53 l 48 52 l 49 52 l 48 52 l 49 52 l 49 51 l 48 50 l 49 51 l 50 50 l 49 50 l 49 50 l 50 50 l 50 50 q 51 51 51 50 q 49 53 51 52 l 48 53 m 61 53 l 61 52 l 60 52 l 60 52 l 61 53 m 144 53 l 145 53 l 145 52 l 144 52 l 144 53 m 36 51 l 36 50 l 37 50 l 37 52 q 36 51 37 52 m 52 52 l 52 52 l 52 52 l 52 52 l 53 52 l 53 52 l 52 52 m 33 52 l 33 51 l 33 50 l 33 50 l 34 52 l 34 52 l 33 52 m 56 52 l 57 52 l 57 51 l 56 52 l 56 52 m 144 52 l 145 52 l 145 51 l 144 51 l 144 51 l 144 51 l 144 52 m 145 50 l 146 50 l 146 50 l 145 50 l 144 50 l 145 50 m 146 50 l 146 49 l 145 48 l 145 48 l 145 49 l 146 50 m 47 48 l 47 48 l 47 48 l 47 47 l 46 47 l 46 47 q 47 47 47 47 l 47 47 l 47 48 l 47 48 m 66 48 l 66 48 l 66 48 l 66 48 l 66 48 m 49 47 l 48 47 l 48 47 l 49 47 l 49 47 l 49 47 l 49 47 m 53 47 q 50 46 53 47 l 50 47 l 49 47 l 49 46 l 49 46 l 49 47 l 48 47 l 47 45 l 47 45 l 47 44 l 47 44 l 48 44 l 47 44 q 49 43 47 43 l 49 43 l 50 43 q 50 44 50 43 q 51 43 51 44 l 52 43 l 52 43 l 53 44 q 54 43 54 44 l 55 43 l 56 43 l 55 44 l 56 44 l 55 44 l 55 45 l 56 45 l 55 45 l 54 45 q 55 47 54 47 l 55 47 l 54 47 l 54 47 l 54 47 l 53 47 l 53 47 m 56 43 l 56 43 q 57 46 57 43 l 58 46 l 58 47 q 56 43 56 47 l 56 43 m 35 46 l 35 46 l 35 46 l 35 44 l 35 43 l 35 43 l 35 44 l 35 44 q 36 46 35 45 l 36 47 l 35 46 m 58 46 l 59 45 l 58 43 l 60 43 l 59 44 l 59 45 l 60 47 l 58 46 m 14 47 l 14 45 l 14 45 l 13 45 l 13 46 l 14 47 m 50 46 l 50 45 l 50 45 l 50 45 q 50 46 50 45 m 38 45 l 38 44 l 38 43 l 38 43 l 38 45 l 38 45 l 38 45 m 53 45 l 53 45 l 53 45 l 52 45 l 52 45 l 52 45 l 53 45 m 56 43 l 56 43 l 57 43 l 57 43 l 56 43 m 47 43 l 47 41 l 47 41 l 47 42 l 47 42 l 47 43 l 47 43 m 81 39 l 81 37 l 81 37 q 83 39 82 39 l 83 39 l 82 39 l 81 39 m 91 39 l 90 39 l 90 38 l 92 38 l 91 39 m 75 38 l 75 38 l 75 37 l 75 37 l 75 37 q 77 35 77 36 q 78 33 77 33 l 79 33 l 79 36 l 79 37 q 78 38 78 37 l 77 38 l 76 38 l 75 38 m 84 37 l 83 37 l 83 37 l 82 36 l 82 35 l 82 35 l 82 35 q 81 37 81 37 l 81 34 l 81 33 l 83 31 l 83 31 l 83 31 l 83 30 l 84 30 l 84 31 l 85 31 l 85 30 l 85 30 l 85 31 l 86 31 l 85 31 l 85 32 l 86 32 l 86 31 l 87 31 l 87 32 l 87 32 l 87 31 l 87 31 q 88 36 88 33 l 88 37 l 87 37 l 87 37 l 87 36 l 87 36 l 87 36 l 87 35 l 87 35 l 87 35 l 87 37 q 85 37 85 37 l 85 37 l 85 37 l 84 37 l 84 37 m 90 37 l 90 36 l 90 35 l 90 35 l 90 35 l 90 33 l 90 33 l 90 33 l 92 34 l 92 34 l 92 35 l 92 36 l 92 36 l 91 37 l 91 37 l 91 37 l 91 37 l 90 37 m 68 36 l 68 36 l 68 35 q 69 34 68 35 l 71 34 q 71 36 71 35 l 71 37 l 71 37 q 68 36 68 37 m 74 36 q 73 35 74 35 l 73 34 l 73 31 l 73 27 l 73 27 l 73 28 l 74 28 q 73 26 74 26 l 73 27 l 73 27 l 73 26 l 73 25 l 73 25 l 73 25 l 74 25 l 77 25 l 77 25 l 78 26 l 77 26 l 78 28 l 77 29 l 79 30 l 78 30 l 78 31 l 79 31 l 79 32 l 77 31 l 77 31 q 77 32 77 32 l 76 32 l 77 35 l 76 35 l 76 35 q 75 35 76 35 l 75 35 l 75 35 l 75 36 l 75 36 l 74 36 m 16 36 l 16 35 l 16 35 l 16 35 l 15 35 l 15 35 l 15 35 l 15 36 l 16 36 m 94 35 q 92 33 94 33 l 92 33 l 94 33 l 94 33 l 94 33 l 94 33 l 95 33 l 95 33 l 94 35 l 94 35 m 86 35 l 87 35 l 87 34 l 87 33 l 87 33 l 86 34 l 86 35 m 81 34 l 82 34 l 82 33 l 81 33 l 81 34 m 64 34 l 64 33 l 64 33 l 64 33 l 63 33 l 63 33 l 64 34 m 66 33 l 66 33 l 67 32 l 66 31 l 66 30 q 69 29 67 29 l 68 31 l 69 31 l 69 31 l 69 31 l 70 31 l 69 30 l 70 29 l 70 29 l 71 30 l 71 31 q 68 33 71 33 l 67 33 l 66 33 m 87 33 l 87 32 l 87 32 l 87 33 l 87 33 m 60 31 l 61 31 l 61 31 l 60 31 l 60 31 m 81 31 l 81 29 l 81 29 l 81 30 l 81 31 m 58 30 l 59 29 l 59 28 l 58 28 l 58 29 l 58 30 m 63 28 l 64 28 l 64 28 l 64 27 l 64 26 l 63 26 l 63 26 l 63 28 l 63 28 l 63 28 m 66 27 l 66 26 l 66 25 q 65 23 66 23 l 65 22 l 66 22 l 66 22 l 66 22 l 67 22 l 66 22 l 66 23 l 68 23 l 68 23 l 68 24 l 71 23 l 71 24 q 70 24 70 24 l 69 24 l 69 24 l 69 24 l 68 24 l 69 25 q 67 26 68 25 l 67 27 l 67 27 l 66 27 m 94 26 l 94 26 l 94 26 l 94 25 l 94 24 l 94 24 l 94 25 l 93 25 l 93 24 q 96 23 96 24 l 96 24 l 97 24 l 97 23 l 97 23 l 98 22 l 98 23 l 94 26 m 76 26 l 77 26 l 77 25 l 76 26 l 76 26 m 81 24 l 81 24 l 81 24 l 81 24 l 82 24 q 83 24 82 24 l 83 25 l 83 25 q 81 24 81 24 m 84 25 l 85 25 l 85 25 q 82 24 83 24 l 82 22 l 82 22 l 83 22 l 83 22 l 83 22 l 83 22 l 84 22 l 85 25 l 84 25 m 104 24 l 104 23 l 104 23 l 104 24 l 104 24 m 85 22 l 86 22 q 87 24 87 23 q 85 22 85 24 m 153 24 q 155 20 154 24 l 154 20 l 153 20 l 153 23 l 153 24 l 153 24 m 68 22 l 68 21 l 71 22 l 71 22 l 71 22 q 68 22 69 22 m 103 22 l 104 22 l 103 22 l 103 21 l 104 20 l 103 20 l 102 21 l 102 21 l 102 20 l 104 19 l 104 19 l 104 20 l 104 20 l 104 22 l 104 22 l 103 22 m 85 21 l 85 20 l 85 20 l 85 22 l 85 21 m 66 21 l 66 20 l 68 21 l 68 21 l 67 21 l 66 21 m 59 20 l 60 19 l 60 19 q 60 20 60 20 l 61 20 l 62 20 q 64 20 63 20 l 64 21 l 62 21 l 59 20 m 104 20 l 105 19 l 104 19 l 104 18 l 105 18 l 105 19 l 105 19 l 106 19 l 104 20 l 104 20 m 85 20 q 85 20 85 20 l 85 19 l 85 19 l 86 20 l 86 20 l 85 20 m 55 18 l 56 18 l 56 18 q 58 19 56 19 l 58 20 l 58 20 q 55 18 55 19 m 77 15 l 77 15 l 79 14 l 79 14 q 80 15 80 14 l 79 16 l 81 17 q 80 20 81 20 l 80 20 l 77 15 m 86 19 l 86 18 q 87 18 87 18 l 87 17 l 87 17 l 88 18 l 87 19 l 86 19 m 130 18 l 130 17 l 132 18 l 132 18 l 131 18 l 131 19 l 130 18 m 85 18 l 85 18 l 87 17 l 87 17 l 87 17 q 85 18 87 18 m 79 18 l 80 18 l 80 17 l 79 17 l 79 18 l 79 18 m 8 16 l 8 16 l 9 16 l 8 16 l 8 16 l 8 16 m 106 16 l 107 16 l 107 15 l 108 16 l 108 16 l 108 16 l 106 16 m 0 16 q 1 14 0 14 l 1 14 l 1 13 l 2 13 l 2 14 l 3 14 l 3 13 l 3 13 l 3 14 l 4 14 l 4 14 l 4 14 l 5 14 l 4 14 l 4 13 l 5 13 l 6 14 l 6 14 l 7 14 l 8 14 l 8 12 l 9 12 q 9 13 9 13 l 10 12 l 11 12 q 11 13 11 13 l 11 12 l 12 12 l 12 13 l 11 13 l 12 13 l 12 13 l 13 13 l 14 12 l 14 12 l 14 13 l 14 13 l 14 13 l 14 12 l 14 12 q 15 12 15 12 l 15 12 l 15 12 l 17 12 l 20 9 l 20 7 l 22 7 l 22 5 l 22 5 l 24 7 l 24 7 l 25 6 l 26 6 l 26 7 l 27 6 l 27 6 l 28 5 l 29 6 q 31 5 31 6 l 31 5 l 31 5 q 33 2 33 3 l 34 2 q 34 3 34 3 q 35 2 35 2 l 35 1 l 35 1 l 36 1 l 36 1 l 36 1 l 37 1 q 39 0 39 1 l 39 -1 l 38 -3 l 36 -1 q 35 -3 36 -3 l 35 -3 l 35 -4 l 35 -4 l 37 -3 l 37 -4 q 35 -5 35 -5 l 35 -5 l 34 -5 l 34 -5 l 35 -5 l 33 -6 l 33 -6 l 33 -6 l 33 -6 l 33 -6 l 33 -3 l 33 -3 l 33 -3 q 32 -5 33 -5 l 32 -5 l 31 -5 l 31 -5 l 32 -6 q 31 -7 31 -6 l 31 -7 l 31 -7 l 31 -7 l 31 -7 l 31 -6 l 31 -6 l 31 -6 l 29 -7 l 29 -7 l 28 -7 l 28 -7 l 28 -7 l 28 -7 l 28 -7 q 28 -6 28 -6 l 29 -6 l 30 -6 l 29 -6 l 29 -5 q 31 -3 30 -5 q 30 -3 30 -3 l 30 -3 l 30 -3 l 29 -3 l 29 -3 l 30 -2 l 30 -2 q 28 -3 29 -2 l 28 -3 l 28 -2 l 28 -2 l 28 -2 l 28 -1 q 28 -1 28 -1 l 28 -1 l 28 -1 l 28 0 l 28 0 l 27 -2 l 28 -3 l 27 -3 l 27 -2 l 27 -2 l 27 -4 l 26 -3 l 26 -5 l 26 -6 l 25 -6 l 24 -5 l 24 -5 l 25 -6 l 25 -6 l 25 -5 l 26 -5 l 25 -5 l 25 -5 l 26 -1 l 26 -1 l 26 -1 l 25 -3 l 24 -3 l 24 -3 q 24 -3 24 -3 l 24 -4 l 24 -4 l 24 -5 l 24 -5 l 24 -5 l 24 -5 l 24 -4 l 24 -3 l 24 -2 l 24 -2 l 24 -2 q 22 -3 24 -3 l 22 -3 l 22 -3 l 22 -3 l 20 -3 l 21 -2 q 20 -1 20 -2 l 19 -1 l 19 -2 l 19 -2 l 20 -3 l 19 -3 l 20 -3 l 18 -5 l 18 -5 l 18 -4 l 18 -5 l 17 -5 l 17 -4 l 16 -5 l 16 -5 l 14 -4 q 12 -5 14 -5 q 12 -6 12 -6 l 10 -5 l 8 -5 q 7 -5 8 -5 l 7 -4 l 7 -4 l 5 -4 l 5 -3 l 4 -4 q 0 -3 2 -4 l 0 -3 l -1 -3 l -3 -2 l -3 -2 l -3 -2 q -10 2 -10 1 l -10 4 q -12 7 -11 4 l -12 7 l -12 5 l -13 5 l -14 6 l -14 7 q -8 9 -11 9 q -7 10 -8 10 l -7 10 q -5 12 -6 10 l -5 12 l -5 12 l -4 12 l -4 12 q -3 12 -4 12 l -3 15 q 0 16 -2 16 m 79 14 l 77 12 l 77 12 l 77 12 l 77 12 q 79 13 79 12 l 79 14 l 79 14 m 5 12 l 5 12 l 6 12 l 6 12 l 5 12 m 28 12 l 28 12 l 29 12 l 29 12 l 28 11 l 28 11 l 28 12 l 28 12 l 28 12 m 76 11 l 76 10 l 77 10 l 77 11 l 76 11 m 4 9 l 5 5 l 5 5 l 5 5 l 5 5 l 6 5 q 8 4 6 4 q 9 3 8 3 l 10 1 l 10 2 l 11 2 l 11 1 l 11 2 l 12 1 l 12 1 q 14 0 14 1 l 14 0 l 15 1 l 15 1 q 17 0 15 1 l 17 1 q 14 3 14 2 l 14 3 l 14 2 q 11 4 11 3 l 9 3 q 7 7 7 5 l 7 7 l 7 7 l 7 6 l 7 6 l 7 6 l 7 6 l 7 6 q 5 7 5 6 q 4 9 5 9 m 105 9 l 106 8 l 106 8 l 105 9 l 105 9 m 89 7 l 88 7 l 87 7 l 87 7 l 87 6 l 89 6 l 90 7 l 90 6 q 92 7 91 7 q 90 9 92 8 q 89 7 89 7 m 73 8 l 74 7 l 75 7 l 75 8 l 75 8 l 74 8 l 74 8 l 73 8 m 107 8 l 107 7 l 107 7 l 106 8 l 106 7 l 106 7 l 108 7 l 107 8 m 103 8 l 103 7 l 104 7 l 104 7 q 103 8 104 7 m 73 7 l 71 6 q 73 5 71 5 l 73 5 l 73 6 l 73 7 l 73 7 l 73 7 m 134 7 l 135 7 l 136 7 l 137 5 l 136 4 l 136 3 l 136 0 l 135 0 l 135 1 l 134 0 l 134 0 l 134 1 l 134 0 l 134 0 l 134 0 q 132 -2 134 -1 l 131 -1 l 132 0 l 132 0 l 132 0 l 132 0 l 134 1 l 134 1 q 135 2 135 1 l 136 2 l 135 5 l 136 5 l 135 5 l 135 5 l 136 5 l 136 5 l 136 6 l 136 6 l 135 5 l 135 5 q 134 7 134 7 m 113 7 l 113 6 l 113 6 l 112 6 l 113 7 m 92 6 l 92 5 l 92 5 l 92 6 l 92 6 m 87 6 l 87 5 l 87 5 l 87 6 l 87 6 m 9 5 l 9 5 l 10 5 l 10 5 l 9 5 l 9 5 m -13 5 l -12 5 l -12 5 l -12 4 l -13 4 l -13 5 m 61 3 l 61 4 l 60 3 l 58 3 l 58 3 l 59 3 l 59 3 l 60 3 l 61 3 l 61 3 l 62 3 l 64 4 l 64 4 l 61 3 m -3 4 l -3 3 l -3 3 l -1 3 l -1 3 l -3 4 m 0 3 l 0 2 l 0 2 l 0 3 l 0 3 m -3 3 l -3 1 l -3 1 q -3 3 -3 1 l -3 3 l -3 3 m 6 2 l 6 1 l 7 1 l 7 1 l 6 0 q 8 1 8 0 q 7 2 7 1 l 6 2 m 2 2 l 2 1 q 3 1 3 1 l 3 1 q 4 2 3 1 l 3 2 l 3 1 l 3 1 l 3 2 l 2 2 m 8 2 l 8 1 l 9 1 l 9 2 l 8 2 m 102 2 l 102 2 q 102 1 102 2 l 102 2 l 102 2 m 0 1 l 0 1 l 0 0 l 0 0 l 0 0 l -1 0 l -1 0 l 0 -1 q 1 0 1 -1 l 1 1 l 1 0 l 1 0 l 1 1 l 1 1 l 1 1 l 1 1 l 0 1 l 0 1 l 0 1 m 34 1 l 34 1 l 35 1 l 34 1 l 34 1 m 100 1 l 100 1 l 101 1 l 101 1 l 101 1 l 100 1 l 100 1 m -3 -1 l -3 -1 l -3 -1 q -2 0 -3 0 l -2 1 l -3 1 q -3 -1 -3 1 m 8 1 l 8 1 l 9 -1 l 9 -1 l 9 0 l 9 1 l 9 1 l 8 1 m 82 1 l 82 1 l 82 1 l 83 1 l 83 1 l 83 1 l 82 1 m 33 1 l 33 -1 l 33 -1 l 33 0 q 33 1 33 0 l 33 1 m 37 1 l 36 -1 l 37 -1 l 37 0 l 37 0 l 37 -1 l 37 -1 l 37 -1 l 37 -1 l 37 -1 l 38 0 l 37 1 m 4 0 l 4 -1 l 5 -1 l 5 0 l 5 0 l 4 0 m 3 0 l 3 -1 l 3 -1 l 3 0 l 3 0 m 25 0 l 25 -1 l 26 -1 l 25 -2 l 25 -2 l 26 -2 l 26 0 l 26 0 l 26 -1 l 25 -1 l 25 0 m 79 -1 l 79 -1 l 80 -1 l 80 0 l 79 0 l 79 -1 m 93 0 l 94 0 l 93 -1 l 93 -1 l 93 0 m 77 -1 q 76 -1 77 -1 l 75 -1 l 75 -1 l 76 -1 l 76 -2 l 77 -1 q 77 -1 77 -1 l 77 -1 l 77 -1 m 92 -1 l 92 -1 q 90 -2 92 -1 l 89 -1 l 92 -1 m 104 -1 l 104 -1 l 104 -1 l 104 -1 l 104 -1 l 104 -1 l 104 -1 m 22 -1 l 22 -2 l 23 -1 l 23 -1 l 22 -1 m 40 -1 l 41 -2 l 41 -2 l 40 -2 l 40 -1 m 60 -1 l 60 -2 l 60 -2 l 60 -2 l 60 -2 q 58 -3 59 -3 l 59 -3 l 59 -4 l 58 -5 l 58 -5 l 58 -4 l 58 -5 l 57 -5 l 57 -4 l 56 -5 l 56 -5 l 56 -5 l 57 -5 l 58 -5 q 59 -4 58 -4 l 60 -5 l 58 -5 l 59 -6 q 60 -3 60 -6 l 61 -3 l 62 -4 l 63 -3 l 63 -3 l 63 -3 l 63 -2 l 63 -2 l 62 -1 l 62 -2 l 62 -2 l 60 -1 m 75 -1 l 75 -2 l 75 -2 l 75 -2 l 75 -1 l 75 -1 m 73 -2 l 71 -3 l 71 -3 l 71 -3 l 71 -3 q 73 -2 73 -3 l 73 -2 l 73 -2 m 46 -2 l 46 -2 l 46 -2 l 47 -2 q 47 -3 47 -2 l 47 -3 l 47 -3 l 47 -3 l 47 -3 l 47 -4 l 47 -4 l 47 -4 l 46 -4 l 46 -4 l 46 -4 l 46 -3 l 46 -3 l 45 -2 l 46 -2 l 46 -2 m 95 -2 l 95 -2 l 95 -3 l 94 -3 l 95 -2 m 20 -3 l 20 -3 l 20 -3 l 20 -3 l 20 -3 m 52 -3 l 52 -5 l 52 -5 l 53 -3 l 52 -3 l 52 -3 m 42 -3 l 43 -3 l 43 -5 l 42 -5 l 42 -3 m 22 -3 q 23 -4 22 -4 l 23 -5 l 23 -5 l 20 -6 l 20 -5 l 20 -5 l 20 -5 l 21 -5 l 22 -5 l 22 -4 l 22 -3 l 22 -3 m 82 -5 l 83 -5 l 83 -5 l 83 -4 l 83 -4 l 82 -5 m 28 -5 l 28 -5 l 28 -5 l 28 -5 l 28 -5 m 85 -6 l 85 -6 q 87 -5 87 -5 l 85 -5 q 85 -6 85 -5 m 108 -5 l 108 -5 l 109 -6 l 109 -5 l 108 -5 m 36 -5 l 36 -5 l 35 -6 l 35 -5 l 35 -5 l 36 -5 m 53 -5 l 53 -6 l 54 -5 l 54 -5 l 53 -5 m 92 -5 l 92 -5 l 91 -6 l 91 -5 l 91 -5 l 91 -5 l 92 -5 m 56 -5 l 56 -6 l 56 -6 l 58 -6 l 58 -5 l 56 -5 m 54 -6 l 54 -7 l 54 -7 l 54 -7 l 55 -6 l 54 -6 l 54 -6 m 79 -6 l 79 -7 l 79 -7 l 79 -6 l 79 -6 l 79 -6 m 96 -6 l 96 -7 l 96 -7 l 96 -7 q 98 -6 98 -7 l 97 -7 l 97 -7 l 96 -6 l 96 -6 m 33 -6 l 34 -6 l 34 -7 l 33 -7 l 33 -6 m 55 -7 l 55 -7 l 56 -7 l 56 -7 l 55 -7 m 63 -9 l 63 -9 l 64 -9 l 64 -9 l 63 -9 m 110 -9 l 109 -9 l 109 -10 q 111 -12 111 -10 l 111 -11 l 112 -11 l 113 -12 l 113 -11 q 110 -9 113 -10 m 76 -12 l 77 -12 l 78 -12 l 78 -12 l 79 -12 l 79 -10 l 78 -10 q 76 -12 76 -11 m 85 -15 q 83 -16 85 -16 l 84 -17 l 84 -17 l 83 -17 l 83 -18 l 84 -18 q 85 -16 85 -18 l 86 -16 l 86 -16 l 85 -15 m 2 -18 l 3 -18 l 3 -19 l 2 -19 l 2 -19 l 1 -19 l 1 -18 l 2 -18 l 2 -18 z "},"/":{"ha":415,"x_min":0,"x_max":412,"o":"m 258 890 l 260 890 l 269 884 l 271 884 l 279 890 l 301 890 l 307 884 l 401 890 l 407 890 l 410 887 l 412 887 q 385 814 397 827 l 388 800 q 355 713 366 713 l 355 708 l 361 708 l 361 705 q 353 694 357 694 l 355 692 l 355 689 q 331 597 345 665 l 266 377 q 247 336 260 372 l 236 323 l 239 307 q 212 201 231 252 l 198 146 l 190 144 l 190 138 l 195 130 q 176 98 195 113 l 179 87 q 165 46 168 65 q 152 0 158 0 l 119 0 l 109 3 l 98 0 l 95 0 l 84 3 l 65 0 l 0 0 l 0 3 q 33 106 23 97 l 30 109 l 30 111 q 49 171 38 148 l 46 182 q 54 201 51 182 l 57 198 l 65 198 l 60 206 l 65 212 l 60 220 q 79 277 71 237 q 106 382 93 300 l 138 472 q 163 548 152 538 l 160 570 l 203 705 q 220 741 203 741 l 220 743 l 214 751 q 228 776 214 776 l 225 779 l 225 787 q 258 890 250 890 z "},":":{"ha":181,"x_min":0,"x_max":166,"o":"m 5 716 l 95 713 l 127 716 l 130 713 l 133 713 l 144 716 l 157 716 l 163 711 l 163 608 l 160 591 l 163 578 l 163 570 l 160 567 l 163 564 l 163 562 l 160 559 l 163 556 l 163 553 l 160 543 l 117 543 l 43 545 l 3 543 l 0 545 l 0 570 l 3 572 l 0 575 l 0 591 l 5 613 l 0 648 l 5 656 l 3 659 l 3 667 l 5 670 l 5 673 l 0 678 l 0 711 l 5 716 m 9 370 l 98 368 l 131 370 l 134 368 l 136 368 l 147 370 l 161 370 l 166 365 l 166 262 l 163 245 l 166 232 l 166 224 l 163 221 l 166 218 l 166 216 l 163 213 l 166 210 l 166 208 l 163 197 l 120 197 l 47 199 l 6 197 l 3 199 l 3 224 l 6 227 l 3 229 l 3 245 l 9 267 l 3 302 l 9 311 l 6 313 l 6 321 l 9 324 l 9 327 l 3 332 l 3 365 l 9 370 z "},";":{"ha":173,"x_min":5,"x_max":168,"o":"m 86 361 l 102 356 l 102 361 l 132 361 l 138 356 l 138 329 q 64 182 138 207 l 45 180 l 43 180 l 43 215 q 67 250 67 234 q 51 261 51 250 l 43 267 l 45 286 l 45 310 l 64 356 l 86 361 m 11 692 l 100 690 l 133 692 l 136 690 l 138 690 l 149 692 l 163 692 l 168 687 l 168 584 l 165 568 l 168 554 l 168 546 l 165 543 l 168 541 l 168 538 l 165 535 l 168 532 l 168 530 l 165 519 l 122 519 l 49 522 l 8 519 l 5 522 l 5 546 l 8 549 l 5 551 l 5 568 l 11 589 l 5 625 l 11 633 l 8 635 l 8 644 l 11 646 l 11 649 l 5 654 l 5 687 l 11 692 z "},"<":{"ha":517,"x_min":-3,"x_max":504,"o":"m 504 664 l 504 637 l 501 593 l 504 591 l 504 588 l 496 564 q 504 558 504 564 l 504 539 q 433 504 504 533 l 412 504 l 319 466 q 211 414 270 437 q 203 406 211 406 l 203 401 q 406 314 369 337 q 504 271 450 302 l 504 254 l 501 252 l 504 243 l 501 241 l 504 227 l 504 195 l 501 192 l 504 189 l 504 173 l 501 170 l 504 168 l 504 151 l 498 146 q 292 230 363 205 q 40 336 217 254 q -3 360 22 338 l -3 447 q 43 469 -1 454 l 138 512 q 195 534 170 534 q 284 574 202 543 q 387 612 323 593 q 504 664 407 626 z "},"=":{"ha":544,"x_min":7,"x_max":533,"o":"m 42 540 q 91 532 68 532 l 104 532 l 110 537 l 189 532 l 218 537 l 275 534 l 359 537 l 370 537 l 476 534 l 509 537 l 511 534 l 511 496 l 514 439 l 511 437 l 511 434 l 514 418 l 514 412 l 509 407 l 463 410 l 444 407 l 425 410 l 395 407 l 389 407 l 389 410 l 349 407 l 275 407 l 210 412 l 205 407 l 104 410 l 77 410 l 45 412 l 39 407 l 15 407 l 12 410 l 9 410 l 12 412 l 12 415 l 7 448 l 7 502 l 9 518 l 7 521 l 9 529 q 42 540 17 537 m 403 353 l 479 353 q 533 339 533 351 l 533 301 l 528 260 l 533 260 l 533 228 l 528 222 l 511 222 l 479 228 l 479 222 l 449 222 l 441 228 l 435 222 l 427 222 l 406 231 l 392 228 l 373 231 q 354 222 363 231 l 216 228 l 183 209 l 159 209 l 151 203 l 12 203 q 7 212 7 203 l 7 217 l 9 217 l 7 236 l 7 288 q 18 334 7 334 l 289 334 l 332 331 q 403 353 374 331 m 368 228 l 384 228 l 384 222 l 368 222 l 368 228 z "},">":{"ha":520,"x_min":0,"x_max":507,"o":"m 0 637 l 133 580 l 241 539 l 320 504 q 382 477 337 504 l 488 431 q 507 420 500 431 l 507 333 q 445 300 482 313 q 193 197 290 227 l 5 119 l 0 124 l 0 138 l 3 140 l 0 143 l 0 159 l 3 162 l 0 165 l 0 200 l 3 211 l 0 222 l 3 222 l 0 224 l 0 243 q 114 295 59 275 q 301 374 134 309 l 301 379 q 288 393 294 379 q 165 447 270 393 l 92 477 l 76 477 q 8 504 64 477 l 0 512 l 0 531 q 8 536 0 536 l 0 561 l 3 564 l 0 610 l 0 637 z "},"?":{"ha":459,"x_min":0,"x_max":453,"o":"m 193 922 l 203 922 q 366 871 347 922 q 448 686 419 817 l 453 605 q 407 412 453 492 l 410 410 l 410 407 q 339 312 394 367 l 336 315 l 334 315 q 307 293 334 307 q 298 285 307 285 l 298 282 l 307 282 l 307 258 l 304 255 l 307 252 l 307 250 l 301 241 l 304 239 l 304 236 l 296 214 l 282 220 l 277 214 l 239 214 l 220 220 l 214 214 l 198 217 l 171 214 l 168 214 l 165 217 l 163 214 l 160 214 l 122 220 l 109 217 l 111 233 l 106 250 l 106 301 l 109 304 l 106 307 l 106 323 q 114 380 106 380 l 106 399 l 111 431 l 106 437 l 106 445 l 111 450 l 138 450 l 152 448 l 168 450 l 203 450 l 212 445 q 239 450 216 450 q 258 570 258 477 l 263 575 l 263 578 q 255 583 255 578 l 258 594 l 255 613 l 255 646 l 258 656 l 255 667 l 255 673 l 258 689 l 255 703 l 258 703 l 255 705 l 255 724 q 266 773 255 765 q 239 795 252 773 l 222 798 q 184 757 191 798 l 184 738 q 179 703 184 715 l 184 692 q 176 651 182 656 l 182 646 l 182 635 l 176 629 l 122 629 l 109 632 l 92 629 l 60 629 l 46 640 q 41 629 46 629 l 11 629 l 5 635 l 5 643 l 11 643 l 0 656 q 111 906 0 812 q 193 922 163 922 m 195 437 l 198 437 l 203 442 l 201 442 l 195 437 m 241 266 l 241 263 l 252 263 l 260 266 l 260 269 l 241 266 m 201 263 l 201 260 l 233 260 l 233 263 l 201 263 m 163 171 l 171 165 l 244 171 l 301 171 l 307 165 l 307 149 l 301 127 q 307 62 307 103 l 307 57 l 301 49 l 307 43 l 301 27 q 307 19 307 27 l 304 0 l 296 5 l 288 0 l 263 0 l 255 5 l 247 0 l 222 3 l 214 0 l 209 5 l 198 3 l 195 5 l 193 5 l 182 3 l 174 5 l 165 3 l 160 8 l 155 0 l 111 5 l 111 0 l 106 5 l 106 8 l 109 38 l 106 41 l 106 43 l 111 57 l 109 60 l 109 62 l 111 65 l 111 68 l 109 71 l 106 71 l 109 95 l 106 114 l 109 127 l 106 144 l 111 155 l 109 168 l 111 171 l 163 171 z "},"@":{"ha":777,"x_min":-1,"x_max":1136,"o":"m 538 680 l 538 679 l 538 679 l 539 680 l 539 680 l 539 680 l 538 680 m 206 521 q 203 518 205 518 l 203 518 l 205 517 l 204 517 l 204 517 l 205 517 l 205 517 q 203 515 203 517 l 203 515 q 205 512 203 514 l 205 512 l 205 512 l 203 513 q 199 509 201 513 q 197 507 199 509 l 197 507 l 196 508 l 196 511 l 197 513 l 197 513 l 197 513 q 193 511 193 513 q 190 509 192 509 l 189 510 l 189 510 l 190 511 l 190 512 q 184 507 184 509 l 183 507 l 183 508 q 185 513 184 509 l 186 513 l 187 513 l 188 515 l 187 515 l 187 515 l 186 514 l 185 515 l 184 515 l 185 514 l 185 513 q 184 513 184 513 l 184 513 l 183 513 l 178 508 l 176 508 l 175 509 l 173 508 q 172 509 172 508 l 169 510 l 169 510 l 169 509 q 165 511 165 511 q 163 510 163 511 l 164 509 l 163 510 l 161 509 l 161 510 l 161 511 q 159 510 159 510 q 157 508 159 508 l 157 508 l 157 507 l 157 507 q 157 506 157 507 l 155 505 l 156 505 l 156 505 l 155 504 l 155 504 l 156 503 l 156 503 l 156 503 l 155 499 l 156 498 q 154 495 155 498 l 155 495 l 154 493 q 155 492 155 493 l 153 492 l 153 491 l 153 491 l 153 490 l 155 487 l 155 487 l 155 487 l 155 486 l 155 486 l 156 487 l 155 488 l 155 489 l 155 489 l 155 490 q 157 491 155 491 l 156 491 l 156 492 l 157 492 q 158 489 157 489 l 158 489 l 158 488 l 158 488 l 158 488 q 157 487 157 488 l 158 487 l 158 486 q 157 485 157 485 l 156 486 l 155 486 l 155 485 q 154 484 155 485 q 155 483 155 484 q 153 478 154 483 l 153 477 l 154 477 q 157 479 156 479 l 157 479 l 157 479 l 157 479 l 159 482 q 160 483 159 483 l 161 483 q 162 479 161 483 q 161 478 161 479 l 163 477 l 168 478 q 171 475 168 478 q 178 471 177 473 q 180 469 179 471 q 182 463 182 466 l 181 458 l 182 458 l 180 452 l 181 446 l 181 446 l 181 446 l 181 446 l 180 445 l 181 445 l 181 444 l 181 444 l 181 443 l 181 443 l 181 442 l 181 441 l 181 441 l 180 441 q 184 437 180 437 l 185 437 l 186 437 l 190 439 l 191 439 l 191 440 l 191 440 q 197 437 191 439 l 199 440 l 195 443 q 194 442 194 443 l 193 442 l 193 442 l 192 442 l 191 442 l 191 443 l 193 444 l 193 445 l 192 445 l 191 446 l 193 458 l 193 458 l 193 458 l 193 458 l 194 459 q 196 454 195 459 l 196 452 q 197 452 197 452 l 197 452 l 198 450 l 198 450 l 199 450 q 202 448 199 449 q 201 448 202 448 l 201 447 l 201 448 l 202 448 l 202 447 l 201 447 l 201 446 l 203 446 l 203 446 l 202 446 l 202 446 l 201 446 l 201 446 q 201 444 201 444 l 201 444 l 201 443 l 201 442 l 201 441 l 202 441 q 203 443 203 443 l 204 443 l 204 443 l 205 443 l 205 442 l 205 442 l 205 441 l 205 441 l 205 441 q 203 439 205 439 l 203 439 l 201 439 l 203 437 l 203 437 l 202 437 l 202 436 l 203 436 l 203 435 l 202 435 l 202 435 l 202 435 q 199 432 201 432 l 199 431 l 199 431 l 198 431 l 197 431 l 197 430 l 197 429 q 198 427 198 429 q 199 426 199 427 l 199 426 l 198 425 q 195 427 198 426 q 194 425 195 426 l 193 425 l 193 427 l 193 427 l 193 427 l 189 429 l 187 428 l 186 428 l 186 428 l 184 427 l 185 426 l 186 427 q 184 425 186 426 l 184 425 l 184 425 l 184 424 l 184 424 l 184 425 l 184 425 l 183 424 l 184 422 l 184 421 l 184 421 l 185 421 l 185 422 l 186 422 l 186 421 l 186 421 l 186 420 l 188 420 l 188 420 q 190 421 189 420 l 191 420 l 191 421 l 191 421 l 197 419 l 198 419 l 199 420 l 199 420 l 199 419 l 199 419 l 201 418 l 201 418 l 201 418 l 202 418 l 202 418 l 206 418 l 206 420 l 205 420 l 205 420 l 208 420 l 208 420 l 208 420 l 208 420 l 208 421 l 210 421 l 210 422 q 206 423 210 422 l 206 423 l 206 422 q 208 421 208 422 l 208 421 l 207 421 l 206 422 l 205 421 l 205 421 l 205 422 q 206 424 205 424 l 207 424 l 207 423 l 208 423 q 210 424 210 423 l 213 423 q 214 426 213 426 l 215 426 l 214 426 l 214 425 l 216 425 l 218 428 l 218 428 l 217 428 q 216 427 216 427 l 216 429 q 212 430 212 429 l 213 431 l 214 430 q 215 431 215 430 q 214 433 214 431 l 214 433 l 216 433 l 218 433 l 218 435 l 218 436 l 218 437 l 218 437 q 216 438 216 437 l 218 438 l 219 438 l 219 439 l 219 439 l 219 440 l 219 441 l 219 441 l 219 442 l 219 442 l 220 441 l 220 442 l 220 444 l 220 444 l 220 444 l 220 445 l 220 446 l 220 446 l 220 446 l 221 446 q 222 446 221 446 l 222 444 q 224 443 224 443 l 224 442 l 224 442 l 223 443 l 222 443 l 225 439 l 227 439 l 229 439 l 229 440 q 227 441 229 441 l 227 441 l 227 441 l 226 441 l 225 441 l 227 441 l 224 444 l 225 444 l 224 445 l 225 446 l 228 445 l 228 446 l 227 446 l 227 446 l 228 447 l 227 447 l 227 448 q 233 454 229 449 q 231 455 232 455 l 231 454 l 230 456 l 230 456 l 230 456 l 230 457 q 231 458 230 458 l 230 460 l 230 460 l 231 460 l 231 460 l 231 460 l 231 460 q 230 462 231 460 l 230 463 l 231 463 l 231 463 l 231 463 l 231 463 l 232 463 l 231 465 l 233 465 q 231 466 233 466 q 230 469 231 468 q 227 468 230 468 l 227 467 l 227 467 l 227 467 l 226 467 l 226 467 l 222 468 q 222 467 222 467 l 222 467 l 221 466 l 220 467 l 220 465 l 219 465 q 217 468 218 465 l 216 469 l 216 468 q 212 463 214 463 q 206 469 207 463 q 201 465 204 469 l 200 465 l 200 465 l 200 466 l 200 466 l 199 467 q 195 465 197 467 l 195 465 l 195 465 q 194 464 195 464 l 194 463 l 194 463 l 193 460 l 193 461 l 193 461 l 193 461 l 193 462 l 193 462 l 193 462 l 192 463 l 193 463 l 193 463 l 191 465 l 192 465 l 191 467 q 190 465 191 465 l 190 465 l 190 465 q 192 469 191 468 l 191 470 l 192 471 l 191 473 q 190 476 190 475 l 190 477 l 190 477 l 191 476 l 193 476 l 195 475 l 196 475 q 201 476 201 475 l 203 476 q 207 479 205 476 l 209 479 l 209 479 l 210 479 q 213 479 211 479 l 213 479 l 214 479 l 215 480 q 218 479 216 479 q 220 480 218 479 l 220 481 q 218 484 218 483 l 218 485 l 218 486 l 220 485 l 221 485 l 221 486 l 220 486 l 220 487 l 221 487 l 222 485 l 222 485 l 221 484 q 222 481 222 484 l 222 479 l 222 479 l 220 478 q 224 476 222 477 l 224 477 l 224 477 l 224 480 l 222 486 l 223 487 l 222 488 l 223 488 l 223 488 l 222 488 l 222 488 l 220 490 l 220 490 l 219 490 l 219 490 l 220 492 l 221 492 q 222 490 222 491 l 222 490 l 223 490 l 222 492 l 222 492 l 222 492 l 219 496 l 221 497 l 220 497 l 220 498 q 222 499 220 498 l 222 502 l 222 503 l 222 503 l 222 503 l 222 503 l 222 504 q 220 507 220 505 l 218 507 q 216 505 216 507 l 216 505 l 215 505 q 214 507 214 505 l 216 507 l 216 507 l 214 508 l 213 508 q 212 507 213 507 l 212 507 l 211 507 l 210 507 l 210 508 l 210 510 q 210 510 210 510 l 210 511 l 211 511 l 211 511 l 212 511 l 212 511 l 212 513 l 212 513 q 210 514 210 513 l 212 515 l 212 515 l 212 515 l 212 516 q 212 517 212 517 q 211 515 211 517 l 210 515 l 210 515 q 208 517 210 517 q 206 518 206 517 l 206 519 q 208 519 206 519 q 206 521 208 521 m 539 669 l 540 669 l 540 668 l 539 668 l 539 669 m 558 658 l 557 655 l 558 655 l 559 656 l 559 654 l 559 654 q 560 656 560 654 q 558 659 559 659 l 558 658 m 556 651 l 556 650 l 556 650 l 557 649 l 557 649 l 558 650 q 557 651 557 651 l 556 651 m 561 651 l 561 650 l 561 650 l 561 650 l 561 650 q 562 648 562 650 l 562 648 l 562 649 q 562 651 562 649 l 561 651 m 557 648 q 558 646 557 646 l 558 648 l 557 648 m 483 645 l 484 645 l 484 645 l 484 646 l 483 645 m 557 646 l 557 644 q 559 642 559 643 l 559 644 l 557 646 m 521 640 l 522 639 l 521 638 l 520 639 l 521 640 m 504 637 q 505 635 505 635 l 505 634 l 505 634 l 503 635 q 504 637 504 637 m 558 636 l 558 636 l 559 632 l 560 632 l 559 635 l 559 635 q 559 636 559 635 l 558 636 m 517 635 q 519 633 518 633 l 519 632 l 518 631 l 517 631 l 517 632 l 517 635 m 511 633 l 512 632 l 512 631 q 510 630 511 630 l 509 631 l 509 632 q 511 633 510 633 m 559 631 l 559 630 l 559 629 l 559 629 l 560 630 l 560 631 l 559 631 m 555 630 l 555 629 q 557 627 557 629 l 557 627 l 557 627 q 558 628 558 627 l 558 629 l 559 629 l 559 628 l 560 629 l 559 629 l 559 629 l 559 629 l 559 629 l 559 629 l 559 630 l 557 630 l 555 630 m 564 629 l 564 629 l 564 627 l 564 626 l 566 626 l 566 625 l 565 624 l 565 624 q 566 621 566 621 l 567 621 l 566 625 l 566 625 q 566 627 566 625 l 564 629 m 559 627 l 559 626 l 559 626 q 561 627 560 626 l 560 627 l 559 627 m 542 625 l 542 625 q 543 624 542 624 l 543 625 q 542 625 543 625 m 544 625 l 544 625 l 545 624 l 545 624 l 545 625 l 544 625 m 500 623 l 500 623 q 501 622 500 623 l 501 623 l 500 623 l 500 623 m 495 623 l 494 621 l 495 620 l 495 619 l 494 618 l 494 618 l 492 620 l 492 618 l 496 616 l 496 617 l 497 617 q 498 616 498 617 l 499 616 l 500 616 l 500 616 l 501 615 l 501 616 l 502 616 l 503 615 l 501 614 q 500 615 501 615 l 498 615 l 498 615 q 496 614 498 614 l 496 614 l 496 614 l 498 614 l 498 614 l 498 614 q 496 612 498 612 l 498 609 l 498 609 l 496 610 l 496 610 l 496 609 l 496 609 l 496 609 q 494 608 496 608 l 494 608 l 493 610 l 493 610 l 492 610 q 490 608 492 608 q 493 606 490 608 l 493 605 l 492 605 l 492 604 q 493 603 493 604 l 496 601 l 496 602 l 494 604 l 495 605 q 500 603 495 604 l 500 603 l 502 603 l 503 602 q 500 602 500 602 l 504 602 l 504 602 l 503 602 l 503 603 l 504 603 l 504 604 l 503 604 l 504 606 l 505 605 q 507 606 507 605 l 506 607 l 507 607 l 503 608 l 503 608 q 504 610 504 608 l 504 610 l 505 610 l 505 610 l 505 608 l 505 608 l 507 610 l 507 610 l 507 610 l 508 610 l 508 610 q 509 613 508 612 l 509 614 l 511 616 l 511 617 q 511 619 511 617 l 510 621 l 509 621 l 506 623 l 506 623 q 505 621 505 623 q 500 617 503 617 q 496 623 496 619 l 496 623 l 496 623 l 495 623 m 484 621 l 484 620 l 484 620 l 484 619 l 484 619 l 485 620 l 485 621 l 484 621 l 484 621 m 507 620 l 509 620 l 509 619 l 508 618 l 507 619 l 507 620 m 520 620 l 520 619 l 520 619 q 519 617 520 617 l 518 618 l 517 617 l 517 618 l 517 618 l 520 620 m 565 619 l 565 618 l 566 618 l 566 619 l 565 619 m 551 618 l 551 617 l 551 617 l 551 616 l 551 616 l 551 618 m 495 616 l 495 616 l 496 615 l 496 615 l 496 615 l 496 616 l 495 616 m 500 615 l 500 615 l 500 614 l 500 614 l 500 614 l 500 615 m 490 610 l 490 609 l 491 608 l 491 610 l 490 610 m 498 609 l 499 608 l 499 608 l 498 608 l 498 608 l 498 608 l 497 608 l 497 608 l 498 609 m 498 607 l 499 607 l 499 606 l 498 606 l 498 607 m 557 606 l 559 606 l 559 606 l 558 605 l 557 606 l 557 606 m 531 605 l 531 605 l 532 604 l 532 604 l 532 605 l 532 605 l 531 605 m 555 604 l 557 602 l 556 602 l 555 602 l 555 603 l 555 604 m 533 603 l 533 602 l 534 602 l 534 602 l 533 603 l 533 603 m 565 602 q 566 602 566 602 l 566 602 l 567 601 l 567 601 l 567 602 l 566 602 q 568 602 566 602 l 566 603 l 566 603 l 565 602 m 536 602 l 538 602 l 538 602 l 536 600 l 536 600 l 536 602 m 562 602 l 562 600 l 562 600 l 562 600 l 563 600 l 563 601 l 562 602 m 565 597 l 565 597 l 566 596 l 566 596 l 565 597 l 565 597 m 555 595 q 553 592 553 593 l 553 592 q 555 594 555 592 l 555 595 m 548 593 q 549 593 548 593 l 549 592 l 548 592 l 547 593 l 547 593 l 548 593 m 554 591 l 554 590 l 555 589 l 555 589 q 559 592 555 590 l 559 593 l 558 593 q 555 591 555 592 l 554 591 m 560 592 l 559 591 l 560 590 l 562 591 l 562 591 l 561 592 l 560 592 m 564 592 l 564 591 q 567 590 564 591 l 567 591 l 566 592 l 564 592 m 540 592 l 541 592 l 541 591 l 541 591 l 541 591 l 540 591 l 540 592 m 559 589 l 559 589 l 559 589 l 562 588 l 562 589 l 562 589 l 559 589 m 543 588 l 543 588 q 541 583 543 587 l 540 583 l 538 584 l 538 584 l 537 584 l 537 584 l 538 585 l 538 585 l 538 585 l 539 585 l 540 586 l 540 587 l 540 587 q 541 588 541 588 l 542 587 l 543 588 m 562 584 l 562 584 l 562 584 l 563 585 l 562 585 l 562 584 m 553 583 l 553 583 l 555 583 l 555 583 l 553 583 m 522 583 l 522 583 l 522 581 l 521 581 l 521 581 l 520 581 l 519 581 l 519 581 l 519 581 l 519 581 l 519 581 l 518 581 l 518 582 l 519 582 l 519 582 l 519 583 l 522 583 m 534 581 l 534 580 l 534 580 l 534 579 l 534 579 l 533 580 l 533 581 l 534 581 m 547 580 l 547 579 l 547 579 l 547 576 l 547 576 l 548 576 l 549 576 l 549 576 l 549 576 l 550 576 l 550 577 q 549 578 549 577 l 549 578 l 548 578 l 548 578 l 549 578 l 549 579 l 548 580 l 547 580 m 520 580 l 522 580 l 521 579 l 520 579 l 520 580 m 520 578 l 520 578 l 519 577 l 519 577 l 519 578 l 520 578 m 542 576 q 541 575 542 575 l 541 574 l 542 574 q 543 575 542 575 l 543 576 l 542 576 m 536 576 l 536 576 l 537 575 l 537 575 l 536 575 l 536 576 m 548 572 l 548 571 l 549 571 l 549 571 l 549 572 l 548 572 m 551 572 l 551 570 l 553 570 l 552 572 l 551 572 m 526 570 l 526 570 q 528 569 526 569 q 529 570 529 569 l 529 570 q 526 570 528 570 m 515 570 l 515 569 l 515 568 l 516 568 l 517 569 l 515 570 l 515 570 m 532 570 q 534 568 532 569 l 535 569 l 535 568 l 536 569 l 536 569 q 533 570 534 569 l 532 570 m 517 569 l 517 568 l 517 568 l 519 567 l 519 567 l 520 567 l 520 567 l 521 566 l 524 566 l 524 567 l 525 566 l 528 568 l 526 569 l 524 568 l 522 569 l 520 568 l 518 569 l 517 569 m 553 569 q 552 567 553 568 q 550 564 552 566 l 551 562 l 550 562 l 550 562 q 555 567 555 566 q 553 569 555 568 m 533 564 q 531 564 533 564 l 530 564 l 529 562 l 530 560 q 534 562 532 560 l 534 562 l 533 564 l 534 564 l 533 564 m 514 562 l 514 562 l 515 562 l 515 562 l 516 562 l 516 562 l 515 563 l 514 562 m 519 563 l 519 562 l 519 562 q 522 562 519 562 l 522 562 l 522 562 l 519 563 m 523 553 l 523 553 l 524 553 l 524 553 l 524 553 l 523 553 m 1123 1041 l 1128 1041 l 1133 1036 l 1123 1036 l 1123 1041 m 1126 1025 l 1133 1023 l 1133 1015 l 1128 1015 l 1128 1013 q 1136 1007 1136 1013 l 1136 994 q 1120 1023 1129 994 l 1123 1025 l 1126 1025 m 1092 1017 l 1094 1017 l 1099 1013 l 1099 1007 l 1094 1002 l 1092 1004 l 1092 1017 m 1031 1010 l 1034 1010 q 1044 986 1039 1010 q 1031 1010 1037 986 m 1110 994 l 1112 981 l 1110 979 l 1107 979 l 1102 991 l 1105 994 l 1110 994 m 604 983 l 619 979 l 625 983 l 625 981 l 617 970 q 602 976 602 972 l 604 983 m 1050 979 l 1050 965 l 1053 939 l 1047 939 l 1042 976 l 1044 979 l 1050 979 m 1123 918 l 1126 918 l 1123 916 l 1123 913 l 1126 905 l 1112 900 l 1115 897 l 1115 892 l 1107 884 l 1102 905 l 1107 911 l 1112 905 l 1115 905 q 1123 918 1117 918 m 427 903 l 429 903 l 437 895 l 437 887 l 431 882 l 427 897 l 427 903 m 520 900 l 523 900 l 526 887 l 520 882 q 528 871 528 882 l 531 874 l 533 874 l 547 863 l 547 859 l 551 859 l 551 863 l 559 863 l 578 848 l 581 850 q 599 835 587 839 l 602 838 l 606 825 l 609 827 l 614 827 q 633 814 620 814 l 648 827 l 651 825 l 651 822 l 637 806 l 637 804 l 643 804 l 646 806 l 648 806 l 651 804 l 648 801 l 648 795 q 753 640 739 702 q 766 616 753 616 l 766 610 l 760 610 l 760 603 l 766 603 l 766 576 l 784 589 l 787 589 l 789 587 l 791 589 l 794 589 q 802 574 802 587 l 802 569 l 797 564 l 791 564 l 789 579 l 776 579 q 768 566 776 566 l 768 564 l 773 558 q 779 566 779 558 l 787 569 l 789 566 l 784 551 l 784 548 l 794 538 l 802 543 l 807 527 l 800 527 l 805 517 l 802 514 l 800 514 l 797 517 l 794 514 l 784 514 l 776 519 l 773 517 l 773 514 l 776 490 l 773 488 l 771 488 l 768 490 l 763 428 l 766 425 l 760 425 l 760 415 l 768 418 l 768 420 l 766 422 l 766 425 l 773 425 l 773 418 l 776 418 q 781 425 776 425 l 787 418 l 787 412 l 776 410 l 779 412 l 779 415 l 776 415 q 750 376 750 401 l 766 368 l 768 368 q 773 378 768 378 l 776 378 q 784 373 776 373 l 784 366 l 787 366 l 797 368 l 815 357 l 841 366 l 846 360 l 846 363 l 844 373 q 849 366 849 373 l 852 363 l 854 363 q 862 381 862 372 l 870 381 l 870 376 q 854 357 865 357 l 854 355 l 859 347 l 859 345 l 854 339 l 852 339 l 844 345 l 839 345 l 839 342 l 852 323 l 852 321 l 849 321 q 839 334 839 326 l 833 334 l 833 332 q 846 313 840 313 l 844 305 l 844 300 l 846 292 l 844 292 l 836 295 l 852 281 l 854 281 l 854 287 l 852 290 l 852 292 l 857 292 l 857 287 l 852 264 l 849 264 l 846 266 l 844 266 l 839 261 l 836 264 l 836 258 l 831 258 l 831 264 q 810 243 823 264 l 810 224 l 805 224 l 805 245 l 800 245 l 805 261 l 802 264 l 800 264 l 794 258 l 791 258 l 787 264 l 787 269 l 789 266 l 797 266 l 789 274 l 787 274 l 787 269 l 771 298 q 766 305 766 298 l 763 305 l 763 298 l 768 281 l 768 279 l 760 279 l 760 292 q 753 279 753 292 l 750 279 l 747 281 l 745 281 l 742 279 l 742 281 l 732 277 q 721 298 721 277 q 692 277 709 282 l 674 256 l 677 253 l 671 253 l 671 258 l 669 258 q 630 227 669 247 l 627 219 l 619 222 l 622 219 l 622 216 l 619 214 l 617 214 l 614 216 q 606 206 614 206 l 604 209 q 559 185 604 199 l 544 180 l 541 182 l 538 182 l 536 180 l 533 180 l 531 182 l 528 182 l 507 178 q 489 185 489 178 q 465 117 471 185 q 455 78 455 99 l 458 78 q 479 96 479 78 q 505 123 479 109 l 507 123 l 507 120 q 489 110 507 110 l 489 104 q 499 99 499 104 q 486 83 490 94 l 489 83 q 549 102 534 94 l 557 99 q 593 120 557 109 l 596 117 q 637 151 596 127 l 656 164 l 659 162 l 661 162 l 690 175 l 690 180 l 695 175 l 692 172 l 708 167 l 713 172 q 719 164 719 172 l 721 164 q 726 172 721 172 l 734 172 q 750 164 750 171 q 716 115 750 140 l 713 112 l 713 83 l 708 83 l 705 104 q 674 86 690 90 q 578 31 653 60 l 570 34 l 570 28 l 554 28 q 431 0 550 12 l 427 5 l 424 5 l 424 0 l 382 0 q 244 28 322 0 l 244 37 l 233 34 q 147 89 216 34 l 144 96 l 150 102 l 144 102 q 140 94 144 94 q 92 151 92 132 q 69 178 86 151 q 17 281 54 178 q -1 386 -1 364 l 4 397 l -1 401 l -1 452 q 132 775 -1 633 l 150 788 q 155 795 155 788 q 184 811 166 811 q 262 859 184 826 q 385 879 338 879 l 442 879 q 473 871 465 879 q 484 890 479 871 l 492 890 l 492 871 l 494 871 q 520 900 498 900 m 617 856 l 619 853 l 619 850 l 617 848 l 612 848 l 612 850 l 617 856 m 633 843 l 622 832 l 619 832 l 619 835 q 633 843 619 841 m 27 822 l 27 814 l 17 811 l 27 822 m 353 804 l 353 793 l 356 793 l 356 804 l 353 804 m 369 804 l 369 801 l 372 793 l 374 793 l 374 801 l 372 804 l 369 804 m 340 801 l 340 772 l 351 783 l 351 785 l 343 785 l 346 798 l 346 801 l 340 801 m 442 801 q 434 777 436 793 l 442 746 l 445 746 l 445 754 l 439 777 l 448 798 l 445 801 l 442 801 m 325 793 l 332 793 l 332 798 l 330 798 l 325 793 m 385 798 l 382 762 l 385 764 l 387 764 l 385 767 l 385 772 l 390 780 l 390 793 l 385 798 m 309 795 l 309 793 l 314 788 l 317 788 l 317 793 l 314 795 l 309 795 m 291 791 l 291 785 q 233 760 280 785 l 220 760 q 228 743 222 743 l 233 749 q 241 736 239 749 l 239 736 l 228 733 l 218 743 l 215 743 l 215 741 q 233 728 215 737 l 233 720 q 218 709 228 709 l 215 712 l 215 715 l 220 720 q 210 739 220 729 l 197 733 l 194 736 q 178 715 194 715 l 176 712 l 176 705 l 178 702 l 178 699 l 176 696 l 174 696 l 165 699 q 79 517 103 633 l 85 517 q 103 545 85 533 l 98 545 l 98 548 l 103 553 l 109 548 l 111 551 l 119 551 l 116 548 l 116 545 l 119 538 l 124 538 l 124 540 l 121 548 l 124 548 l 132 555 l 140 551 l 140 555 l 165 555 l 165 561 l 168 561 l 171 558 l 174 558 q 220 640 199 617 l 233 634 l 228 642 l 228 650 l 236 652 l 233 660 l 236 663 l 233 665 q 254 678 248 669 l 254 686 q 246 691 254 691 l 254 723 l 252 725 l 252 728 q 262 741 257 740 l 267 741 l 267 736 l 264 733 l 264 730 l 267 730 l 278 736 l 286 728 l 286 736 l 288 733 l 291 733 l 294 736 l 301 725 l 304 739 l 301 746 l 304 746 l 309 751 l 319 746 q 325 754 319 754 l 328 754 l 330 751 l 332 751 l 332 754 l 328 762 l 314 757 l 314 760 l 312 762 l 312 764 l 319 767 l 319 775 q 296 791 313 775 l 291 791 m 363 791 l 361 780 l 366 780 l 366 791 l 363 791 m 502 791 l 502 780 l 510 770 l 510 767 l 507 764 l 507 762 l 515 762 l 515 757 q 494 741 500 757 l 497 733 l 494 733 q 481 707 485 733 l 494 709 l 497 707 l 499 707 l 507 709 l 507 707 q 517 702 507 702 l 523 709 l 538 705 q 559 760 559 719 l 559 764 q 502 791 522 791 m 476 780 l 481 775 l 481 785 l 476 780 m 330 772 l 328 764 l 332 764 l 332 772 l 330 772 m 458 746 l 458 743 l 463 743 l 463 751 l 468 751 l 468 743 l 471 743 l 471 772 q 458 746 465 772 m 273 760 l 278 751 l 267 743 l 257 749 l 249 746 l 241 749 l 241 751 q 273 760 241 758 m 377 754 l 374 751 l 374 746 l 385 746 l 385 751 l 377 754 m 363 746 l 363 741 l 369 736 l 369 746 l 363 746 m 507 749 l 515 749 l 515 743 l 507 743 l 507 749 m 591 741 l 593 686 l 596 689 l 599 689 l 604 681 l 591 671 l 602 671 l 602 665 l 596 665 l 593 668 l 591 668 l 591 663 q 604 652 598 663 l 602 644 l 619 657 l 630 642 l 630 640 l 625 640 l 625 634 l 630 623 l 633 623 l 635 634 l 637 631 l 643 631 l 643 642 l 635 637 l 633 640 l 633 642 l 651 650 l 651 647 l 656 642 q 661 650 656 650 l 661 644 l 653 634 l 667 621 l 664 618 l 664 613 q 671 603 671 613 l 677 603 l 680 613 q 619 718 656 683 q 596 741 619 723 l 591 741 m 460 736 l 458 733 l 458 723 l 465 730 l 460 736 m 434 733 q 424 707 434 719 l 424 705 l 437 691 l 439 691 l 448 718 q 437 733 442 733 l 434 733 m 309 730 l 309 725 l 319 725 l 319 730 l 309 730 m 275 725 l 275 720 l 278 718 l 283 718 l 283 720 l 278 725 l 275 725 m 990 720 l 998 718 l 1013 720 l 1016 718 l 1010 707 l 1013 694 l 1006 689 l 990 712 l 990 720 m 267 715 l 270 707 l 267 689 l 283 696 l 283 699 q 273 715 274 699 l 267 715 m 301 715 l 301 707 l 307 712 l 304 715 l 301 715 m 513 715 l 515 715 l 515 709 l 507 709 l 513 715 m 797 699 q 805 686 803 699 q 800 673 805 673 l 802 671 l 802 663 l 797 663 l 794 673 l 797 699 m 1060 696 q 1065 686 1060 686 l 1065 681 l 1058 678 l 1053 691 l 1060 696 m 922 684 l 924 684 l 930 678 l 930 675 l 922 673 l 922 684 m 954 678 l 956 675 l 956 673 l 954 665 l 948 665 l 948 673 l 954 678 m 1060 678 l 1065 678 l 1068 665 l 1063 665 l 1060 678 m 625 665 l 627 665 l 633 660 l 633 657 l 625 657 l 625 665 m 591 657 l 591 650 l 593 647 l 591 644 l 591 637 l 596 637 l 599 644 q 591 657 595 657 m 852 660 q 875 629 871 629 q 865 610 875 610 l 865 600 l 862 600 l 854 608 l 862 616 l 862 626 l 859 626 q 844 616 859 616 l 844 621 l 849 626 q 833 647 849 647 l 833 642 l 828 642 l 828 644 l 836 652 l 852 647 l 852 650 l 846 657 l 849 660 l 852 660 m 637 655 l 646 655 l 640 650 l 637 650 l 637 655 m 609 647 l 609 634 l 612 634 l 617 640 l 617 644 l 609 647 m 849 644 l 849 642 l 854 637 l 857 637 l 857 642 l 849 644 m 343 634 l 346 631 l 343 629 l 343 618 l 346 618 l 346 623 l 351 623 l 356 597 l 359 597 q 369 640 359 619 l 366 640 l 343 634 m 857 634 l 854 626 l 854 623 l 857 623 l 859 631 l 859 634 l 857 634 m 408 621 l 414 616 l 416 616 l 416 621 l 408 621 m 596 621 l 593 618 l 593 610 l 596 610 q 602 618 596 618 l 602 621 l 596 621 m 635 618 q 625 600 635 607 l 627 600 l 635 603 l 635 600 l 637 589 l 635 589 l 637 582 l 643 582 l 643 587 l 640 613 l 643 616 l 635 618 m 309 616 l 304 610 l 304 608 q 314 589 307 589 l 314 592 l 309 608 l 312 610 l 312 616 l 309 616 m 372 616 l 372 587 l 374 587 l 377 616 l 372 616 m 825 613 l 828 610 l 828 608 q 810 585 810 589 l 805 585 l 805 597 q 825 613 812 597 m 403 608 l 395 585 l 400 572 l 408 572 l 414 582 l 414 585 l 411 582 l 406 582 l 406 585 l 411 603 l 403 608 m 596 600 l 596 597 l 602 592 l 604 595 l 604 600 l 596 600 m 614 600 l 614 592 l 619 592 l 619 600 l 614 600 m 669 597 l 667 595 l 667 592 l 669 585 l 664 585 l 664 592 l 659 592 l 661 589 l 661 579 l 659 576 l 659 574 l 677 566 l 680 566 q 669 597 673 597 m 298 595 l 283 558 l 291 555 l 294 558 l 298 558 l 298 551 l 286 548 l 283 551 q 260 472 264 514 l 262 469 l 257 469 l 257 467 l 262 467 q 254 449 254 458 l 270 462 l 270 467 l 262 467 l 262 469 q 278 475 278 469 l 270 475 l 270 480 q 288 498 288 480 q 312 558 288 522 l 314 574 q 298 595 307 591 m 338 587 l 338 585 l 340 576 l 343 576 l 343 579 l 340 587 l 338 587 m 416 576 l 414 569 l 414 566 l 416 566 l 418 574 l 418 576 l 416 576 m 393 475 l 395 472 l 395 462 l 390 462 l 390 459 l 395 454 l 393 452 l 393 449 l 395 441 l 390 435 q 395 422 395 435 l 397 425 l 403 425 l 403 420 l 395 420 l 395 415 l 403 415 l 403 407 q 385 381 385 407 l 387 378 l 387 376 l 385 366 l 390 366 l 390 360 l 387 360 l 385 363 l 382 363 q 374 321 374 342 l 372 321 l 374 318 l 374 316 l 372 313 l 372 311 l 374 311 l 366 264 q 385 271 374 271 l 382 274 l 382 277 q 390 287 390 277 l 403 290 l 400 298 l 411 308 l 408 311 l 406 311 q 416 336 407 336 l 418 339 l 418 345 l 397 332 l 395 332 l 395 336 q 411 355 400 336 l 406 360 q 427 397 420 360 l 424 397 q 411 425 415 397 l 411 438 q 427 462 427 438 l 424 465 l 424 467 l 431 469 l 437 454 l 434 444 l 437 441 l 439 441 l 439 446 l 437 449 l 442 462 l 439 465 l 439 467 l 445 486 l 439 486 l 439 480 l 434 480 q 424 486 434 486 l 421 488 l 421 490 l 431 501 l 437 501 l 445 496 l 448 514 q 439 540 442 514 l 437 543 l 442 548 l 434 564 l 442 572 l 437 572 q 427 543 432 572 q 411 498 416 543 q 395 477 395 492 l 393 475 m 393 569 l 393 566 l 397 561 l 397 564 l 393 569 m 325 566 l 322 564 l 322 561 l 325 553 l 322 553 q 304 493 313 553 l 307 490 l 283 459 l 288 459 l 314 475 q 348 498 314 481 l 348 501 l 346 503 l 343 503 l 335 498 l 332 498 l 332 501 q 343 524 332 515 l 343 538 l 348 538 l 346 540 l 346 545 l 351 545 l 351 548 l 348 555 l 351 558 l 348 558 l 346 555 l 343 555 l 325 566 m 609 564 l 609 561 l 612 553 l 614 553 l 614 555 l 612 564 l 609 564 m 403 551 l 403 545 l 408 551 l 408 555 l 403 551 m 301 551 l 301 548 l 296 543 l 294 545 l 294 548 l 301 551 m 332 551 l 338 551 l 338 538 l 332 538 l 332 543 l 335 545 l 335 548 l 332 551 m 565 540 l 562 532 l 568 532 l 572 538 l 565 540 m 602 540 l 602 532 l 606 538 l 606 540 l 602 540 m 682 517 l 685 514 l 687 514 l 692 538 q 682 517 686 538 m 596 527 l 596 517 l 599 517 l 602 519 l 604 519 l 602 527 l 596 527 m 862 524 l 865 524 l 870 519 l 862 519 l 862 524 m 870 519 l 873 519 q 920 477 920 503 l 922 475 l 922 472 l 920 472 l 917 475 l 914 475 q 909 467 914 467 l 899 477 l 907 477 l 907 472 l 909 472 l 911 483 l 909 486 l 890 480 l 893 493 q 883 503 883 493 l 878 503 l 880 501 q 873 486 877 486 l 867 490 l 867 493 l 870 490 l 873 490 l 875 501 l 865 509 l 870 509 l 878 506 l 878 509 l 870 519 m 585 509 l 581 503 l 581 501 l 585 501 l 588 503 l 588 509 l 585 509 m 779 509 l 784 509 q 791 503 784 503 l 794 493 l 791 493 q 779 501 779 496 l 779 509 m 77 503 l 75 459 l 79 459 l 87 472 l 87 475 l 92 475 l 92 472 l 90 465 l 95 465 l 98 472 l 92 477 l 92 486 l 95 488 l 95 490 l 77 503 m 800 501 l 802 501 l 815 493 l 823 496 l 823 493 q 852 486 823 488 l 854 488 l 870 469 l 873 472 l 880 472 l 888 467 l 896 469 l 896 465 l 893 462 l 893 459 l 896 456 l 899 456 l 901 459 l 904 459 q 914 449 914 456 q 927 456 927 450 l 930 456 l 927 459 l 927 462 l 930 465 l 927 467 l 927 472 l 992 422 l 992 399 l 987 394 l 990 391 l 990 386 l 977 389 l 977 386 q 985 378 977 378 l 987 376 l 987 368 l 982 368 l 975 376 l 977 378 q 961 389 961 385 l 977 391 l 977 394 q 958 412 965 394 l 961 415 l 956 420 l 958 422 q 930 449 949 425 q 917 444 917 449 l 924 428 l 930 428 l 932 431 l 935 431 q 943 412 935 422 l 943 410 l 932 410 l 927 420 l 927 422 l 924 422 l 922 420 q 914 431 914 420 l 911 438 q 880 462 880 450 l 873 456 l 870 456 q 857 465 870 463 l 841 456 l 839 456 q 833 469 839 469 l 802 465 l 791 486 l 794 486 l 805 477 l 810 477 q 797 493 807 489 l 800 501 m 810 488 l 818 480 l 821 480 l 821 488 l 810 488 m 604 472 l 602 469 l 602 459 l 609 462 l 609 467 l 604 472 m 656 469 l 656 465 l 659 465 l 664 469 l 656 469 m 917 467 l 922 467 l 920 465 l 922 462 l 922 456 l 917 456 l 917 467 m 583 462 l 585 454 l 591 454 l 591 462 l 583 462 m 635 454 l 637 452 l 640 452 l 640 459 l 635 454 m 79 456 l 75 452 l 75 449 l 77 449 l 87 452 l 82 456 l 79 456 m 551 456 l 547 449 l 547 444 l 562 449 l 562 452 l 551 456 m 92 454 l 90 444 l 95 444 l 95 454 l 92 454 m 270 452 l 270 449 l 273 449 l 280 452 l 280 454 l 278 454 l 270 452 m 575 452 l 575 449 l 585 446 l 585 452 l 575 452 m 570 449 l 570 446 l 575 422 l 581 422 l 583 441 l 570 449 m 252 435 q 260 431 252 431 l 260 425 q 249 407 249 425 l 249 347 q 296 253 249 286 l 309 250 l 330 250 l 353 256 l 353 250 l 356 250 l 356 256 l 346 258 l 346 261 q 359 266 346 266 l 361 274 l 359 316 q 374 386 361 350 l 374 397 l 363 407 l 359 399 l 363 394 l 363 391 l 353 360 l 356 357 l 353 355 l 348 355 l 348 360 l 351 363 l 351 366 l 348 368 l 353 373 l 348 378 l 359 384 l 359 386 l 353 391 l 351 389 l 351 386 q 340 394 340 390 l 338 391 l 332 391 l 319 407 l 319 410 q 332 420 325 420 l 332 428 l 325 422 l 317 422 l 307 425 l 298 422 l 286 431 l 283 428 l 280 428 l 270 431 q 278 435 270 435 l 278 438 q 270 446 270 438 q 252 435 252 440 m 551 444 l 549 433 l 551 431 l 568 433 l 562 441 l 559 438 l 554 438 l 554 444 l 551 444 m 771 446 l 779 446 l 773 441 l 771 441 l 771 446 m 361 433 l 366 420 l 374 422 l 374 431 l 372 433 l 372 435 l 374 438 l 369 438 l 361 433 m 588 435 l 588 428 l 591 425 l 585 410 l 581 410 l 581 404 q 588 397 588 404 l 596 397 l 599 404 l 593 404 l 593 410 l 602 410 l 602 412 l 593 422 l 596 433 l 588 435 m 671 431 l 671 428 l 674 428 l 680 433 l 680 435 l 677 435 l 671 431 m 75 431 l 75 420 l 79 420 l 75 412 l 82 412 q 87 420 82 420 q 98 415 87 415 l 98 412 l 92 412 l 92 410 l 98 410 q 106 415 98 415 l 106 418 l 79 422 l 79 425 l 87 425 l 87 428 l 75 431 m 549 425 l 549 418 q 557 410 557 418 q 572 420 572 415 l 549 425 m 797 428 l 800 425 l 800 422 l 797 420 l 794 420 l 791 422 l 791 425 l 794 428 l 797 428 m 625 415 l 625 404 l 627 404 l 627 415 l 625 415 m 635 415 l 633 407 l 640 407 l 637 410 l 637 412 l 640 415 l 635 415 m 421 410 l 421 407 l 427 401 l 431 401 l 431 410 l 421 410 m 648 410 l 648 407 l 653 394 l 664 397 l 664 399 l 659 410 l 648 410 m 75 401 q 106 258 78 315 q 184 154 131 205 l 184 149 q 197 136 197 149 l 199 138 l 202 138 q 340 73 249 103 l 343 73 l 385 76 l 416 73 l 416 76 q 439 130 416 109 l 445 141 l 442 191 l 445 214 l 442 212 l 439 212 q 429 235 434 212 q 395 212 412 217 q 374 193 395 204 l 372 193 l 369 196 l 366 196 q 319 178 361 178 l 314 182 l 312 180 l 309 180 l 307 182 l 301 178 l 298 178 q 254 196 254 178 l 246 188 q 192 240 192 216 l 189 237 l 184 237 l 178 250 l 176 248 l 174 248 l 171 250 l 174 253 l 174 256 q 144 336 155 286 q 121 368 140 336 l 113 370 l 113 378 q 121 389 120 378 l 119 389 q 103 381 116 381 l 100 381 l 100 384 l 106 384 l 100 394 l 106 399 l 106 407 l 92 394 l 92 391 l 95 394 l 98 394 l 100 391 l 100 389 l 98 386 l 100 384 l 92 384 q 82 407 88 384 l 75 401 m 557 404 l 557 401 l 562 401 l 562 394 l 557 386 l 557 384 l 565 384 l 565 381 l 557 373 l 549 376 l 551 373 l 551 370 q 526 339 526 357 l 517 336 l 517 332 l 523 332 l 523 321 l 517 313 l 520 302 l 515 298 l 520 292 l 517 279 l 517 274 l 526 266 l 531 266 l 531 271 l 533 271 l 531 274 q 559 347 533 300 q 565 336 565 347 l 570 336 l 570 332 l 568 332 l 565 334 l 562 334 l 557 326 l 562 305 l 562 279 l 559 266 q 606 295 590 276 l 604 298 l 604 300 l 614 300 l 614 302 l 609 302 l 609 313 q 627 336 620 336 l 627 342 l 625 345 l 627 347 l 627 350 l 622 357 l 622 366 q 633 370 622 370 l 627 386 l 625 386 l 617 384 l 617 386 l 619 394 l 625 394 l 627 391 l 630 391 l 630 394 q 609 401 628 401 l 609 394 q 622 373 609 383 q 617 363 617 373 l 614 360 l 612 360 l 602 373 l 599 376 l 602 384 l 599 384 l 591 381 l 593 384 l 593 394 l 585 391 l 588 389 l 588 386 l 585 384 l 585 381 q 593 376 593 381 l 591 376 q 578 397 585 376 l 575 397 l 572 394 l 572 401 l 575 404 l 575 407 l 570 407 l 557 404 m 549 399 l 549 397 l 551 389 l 554 389 l 554 397 l 551 399 l 549 399 m 635 394 l 635 391 l 646 394 l 646 399 l 640 399 l 635 394 m 771 399 l 773 399 l 773 397 l 771 389 l 766 389 l 766 394 l 771 399 m 883 394 l 886 391 l 880 384 l 883 381 l 883 376 l 880 376 l 875 381 l 875 386 l 883 394 m 659 386 l 656 384 l 656 378 l 664 378 l 669 384 l 659 386 m 800 389 l 805 389 l 810 384 l 810 378 l 805 378 q 800 370 805 370 l 800 373 l 802 376 l 800 378 l 800 389 m 338 378 l 343 373 l 343 370 l 338 370 l 338 378 m 338 352 l 343 352 l 343 350 l 338 345 l 338 352 m 588 350 l 596 350 l 591 345 l 588 347 l 588 350 m 541 347 l 554 347 l 554 345 l 544 342 l 541 345 l 541 347 m 635 342 l 637 334 l 643 334 l 643 345 l 640 345 l 637 342 l 635 342 m 734 345 l 724 308 q 734 292 729 292 l 734 308 l 729 308 l 729 311 l 734 316 l 737 316 l 737 305 l 739 308 l 742 308 l 739 318 l 742 332 q 737 345 737 332 l 734 345 m 606 339 l 609 339 l 609 336 l 604 332 l 602 332 l 602 334 l 606 339 m 818 336 l 818 326 l 821 326 l 821 336 l 818 336 m 385 334 l 387 334 l 395 329 q 385 313 389 313 l 380 318 l 390 329 l 385 334 m 617 321 l 617 313 l 625 313 l 617 321 m 805 321 l 807 313 l 810 313 l 810 321 l 805 321 m 781 298 l 781 287 q 787 279 787 287 l 789 279 l 791 290 l 789 300 l 781 298 m 593 300 l 602 300 l 602 295 l 593 295 l 593 300 m 797 292 l 791 281 q 800 277 800 281 l 802 277 l 802 287 l 797 292 m 1013 284 l 1013 281 q 966 248 1013 272 q 945 232 966 243 l 943 232 l 943 237 l 948 237 l 948 240 l 943 240 q 920 227 943 231 l 920 245 q 956 264 920 252 q 990 279 956 273 l 998 277 q 1013 284 1000 284 m 753 274 l 758 274 l 763 264 l 755 264 l 755 271 l 753 269 l 747 269 l 753 274 m 870 269 l 873 256 l 865 250 l 857 250 l 857 253 l 870 269 m 163 258 l 160 250 l 147 250 l 147 256 l 163 261 l 163 258 m 1019 258 q 1037 250 1025 250 l 1037 245 q 972 203 1014 243 l 969 203 q 998 243 969 220 q 1008 256 998 250 l 1010 256 l 1010 250 l 1013 250 q 1019 258 1013 258 m 825 253 l 828 253 l 839 243 q 828 227 828 243 l 823 227 l 823 240 q 831 245 831 240 l 831 248 l 825 248 l 825 253 m 698 250 l 705 250 l 705 243 l 703 243 l 698 248 l 698 250 m 687 243 l 692 243 q 687 230 692 230 l 690 227 l 690 222 l 677 224 l 674 224 l 674 219 l 677 222 l 682 222 l 682 216 l 669 216 l 669 222 l 671 235 l 687 235 l 687 243 m 656 214 l 661 214 l 674 212 l 669 206 l 667 209 l 667 203 q 674 198 674 203 l 671 196 l 661 198 l 664 201 l 664 209 q 656 214 656 209 m 966 201 l 966 198 l 961 193 l 961 196 l 966 201 m 682 198 l 692 198 l 692 185 l 690 185 q 682 198 686 185 z "}}}
